<svg id="Layer_1" data-name="Layer 1" xmlns="http://www.w3.org/2000/svg" viewBox="0 0 1487 2272"><defs><style>.cls-1{fill:#6562ce;}.cls-2{fill:#88bed7;}.cls-3{fill:#e4effd;}.cls-11,.cls-12,.cls-4,.cls-8{fill:none;}.cls-4{stroke:#fff;stroke-width:7.23px;}.cls-12,.cls-4,.cls-6,.cls-7,.cls-8{stroke-miterlimit:10;}.cls-5{fill:#e18c32;}.cls-6{fill:#fff;}.cls-6,.cls-7,.cls-8{stroke:#88bed7;stroke-width:6.03px;}.cls-7{fill:#cbe1fd;}.cls-9{fill:#d97802;}.cls-10{fill:#40465c;}.cls-11{stroke:#40465c;stroke-linecap:round;stroke-linejoin:round;stroke-width:5.8px;}.cls-12{stroke:#6562ce;stroke-width:4.82px;}</style></defs><g id="MAN"><g id="SHOES"><g id="RIGHT"><path class="cls-1" d="M1075.53,2111.11s23,47.77,7.2,65H880.07s1.13-33.44,49.93-38.72c43.8-4.73,70.48-26.32,70.48-26.32Z"/><rect class="cls-2" x="875.01" y="2176.15" width="213.6" height="12.01" rx="3.14" transform="translate(1963.61 4364.31) rotate(-180)"/><path class="cls-2" d="M973.18,2141.66l-6.6-15.75a3.32,3.32,0,0,0-1.94-1.78,3.41,3.41,0,0,0-4.36,4.33l.07.23.57,2.18-5.66,1.48-.54-2.08a9.28,9.28,0,0,1,4.61-11.2,9.26,9.26,0,0,1,12.63,4.52l6.62,15.81Z"/><path class="cls-2" d="M944.17,2150.16l-4.33-15.92a3.41,3.41,0,0,0-4.37-2.2c-1.94.68-2.85,2.48-2.57,5.08l-5.81.63c-.58-5.34,1.89-9.64,6.45-11.23a9.24,9.24,0,0,1,11.93,6.13l4.35,16Z"/></g><g id="LEFT"><path class="cls-1" d="M778.63,2111.11s23,47.77,7.2,65H583.17s1.13-33.44,49.92-38.72c43.81-4.73,70.49-26.32,70.49-26.32Z"/><rect class="cls-2" x="578.1" y="2176.15" width="213.6" height="12.01" rx="3.14" transform="translate(1369.81 4364.31) rotate(-180)"/><path class="cls-2" d="M676.28,2141.66l-6.6-15.75a3.4,3.4,0,0,0-6.3,2.55l.07.23.57,2.18-5.66,1.48-.54-2.08a9.25,9.25,0,0,1,17.23-6.68l6.62,15.81Z"/><path class="cls-2" d="M647.27,2150.16l-4.33-15.92a3.42,3.42,0,0,0-4.37-2.2c-1.94.68-2.85,2.48-2.57,5.08l-5.82.63c-.58-5.34,1.9-9.64,6.46-11.23a9.24,9.24,0,0,1,11.93,6.13l4.34,16Z"/></g></g><path id="LEGS" class="cls-2" d="M1086.79,2110.57c-73.45,11.61-103.28-1.29-103.28-1.29S882,1528,826.6,1223.56l-14.7-7.63s-7.34,367.2,12.69,505.05C844.69,1859.22,801,2111,801,2111c-63.41,9.85-124.05,0-124.05,0s-13.51-283.16-34.61-493.45c-11.62-115.66-26.35-543.18-25.38-571.49l175.65-1.1,78-.49,130.25-.73,25-.14c1.8,59.27,9.32,517.92,62.21,646.74C1141.59,1820.92,1086.79,2110.57,1086.79,2110.57Z"/><path id="TORSO" class="cls-2" d="M891.79,470.25c16.52,0,173.19,31.21,173,99.43-.16,74.72-79.53,320.78-73,365.9s49.05,104.75,29.47,113.34c-52.73,23.12-228.8,41.48-404.79-3.41,0,0,18.37-41.45-13.28-221.48C586,725.8,582,537.91,596.67,518.27S700,478.46,732.5,472.44,891.79,470.25,891.79,470.25Z"/><g id="LAB_COAT" data-name="LAB COAT"><path class="cls-3" d="M884.26,469.69c-3.92,22.62-44.87,535.5,11,790.69,0,0,90.64,12.39,183.43-22.46,0,0-52.66-320.77-55.94-374.2s37.7-328.53,12.89-343.69C953.27,469.69,884.26,469.69,884.26,469.69Z"/><path class="cls-3" d="M728.89,473.21S739,960.37,741.74,1257.89c0,0-89.45,22.39-166.61-12.46,0,0,30.32-360.13,30.76-406s-23.36-317.26,2.7-331.07C664.69,478.62,728.89,473.21,728.89,473.21Z"/></g><g id="HANDS"><g id="LEFT_HAND" data-name="LEFT HAND"><path id="HAND" class="cls-3" d="M497.12,968.69c117.08-3.56,201.79-491.52,127.52-466.62-11.73,3.93-46.19,18.06-69.8,37.93-45.26,38.09-84.67,171.79-104.51,249.78-82.84-35.9-198.72-70.79-219-76.17-24.32-6.45-58.76,66.7-44.36,88C198.85,819.13,335.67,973.6,497.12,968.69Z"/><path id="LINE" class="cls-4" d="M599.24,866c5.42-33.83-5.3-89.2-7.51-169.57"/><path id="ARM" class="cls-5" d="M204.33,777.84c-11.07-2.2-54.6-18.51-65.2-28.12s-22.72-47.12-22.75-51.26-2.28-28.28-2.28-28.28,18.36.24,26.48,15c10.8,19.67,18.44,28,30.1,30.84,4.85,1.17,14.57,5.37,15.63-2.44s-18.07-14.1-21.59-18.83c-5.39-7.23-2.74-17.48-2.74-17.48s28.43,9.34,33.89,11.11,37.41,22.71,44.06,47.9C244,751.75,224.48,781.84,204.33,777.84Z"/></g><g id="SYRINGE"><path class="cls-6" d="M282.79,618l845.8,381.31-81.93,181.73-845.8-381.3A19.55,19.55,0,0,1,190.21,788L169,720.55l33.35-74,64.62-28.73A19.51,19.51,0,0,1,282.79,618Z"/><rect class="cls-6" x="98.31" y="609.74" width="37.93" height="86.02" transform="translate(-525.99 491.39) rotate(-65.73)"/><path class="cls-6" d="M140,660.28h63.14a12.48,12.48,0,0,1,12.48,12.48v21.42a0,0,0,0,1,0,0H127.52a0,0,0,0,1,0,0V672.76A12.48,12.48,0,0,1,140,660.28Z" transform="translate(-516.33 555.31) rotate(-65.73)"/><rect class="cls-7" x="655.56" y="429.49" width="122.17" height="986.94" transform="translate(-419.3 1196.95) rotate(-65.73)"/><rect class="cls-6" x="975" y="1084.04" width="244.34" height="20.94" rx="8.26" transform="translate(-351.56 1644.9) rotate(-65.73)"/><path class="cls-2" d="M195,687.35H296.21a13.44,13.44,0,0,1,13.44,13.44v33a0,0,0,0,1,0,0H181.53a0,0,0,0,1,0,0v-33A13.44,13.44,0,0,1,195,687.35Z" transform="translate(-503.15 642.43) rotate(-65.73)"/><rect class="cls-6" x="1077.42" y="1118.47" width="199.35" height="24.16" rx="9.53" transform="translate(-337.33 1738.98) rotate(-65.73)"/><line class="cls-8" x1="335.42" y1="726.42" x2="367.14" y2="656.06"/><line class="cls-8" x1="386.16" y1="729.06" x2="410.3" y2="675.52"/><line class="cls-8" x1="421.74" y1="765.34" x2="453.46" y2="694.97"/><line class="cls-8" x1="472.47" y1="767.98" x2="496.61" y2="714.43"/><line class="cls-8" x1="508.05" y1="804.25" x2="539.77" y2="733.89"/><line class="cls-8" x1="558.79" y1="806.89" x2="582.93" y2="753.34"/><line class="cls-8" x1="594.36" y1="843.16" x2="626.09" y2="772.8"/><line class="cls-8" x1="645.1" y1="845.8" x2="669.24" y2="792.26"/><line class="cls-8" x1="680.68" y1="882.08" x2="712.4" y2="811.71"/><line class="cls-8" x1="731.42" y1="884.71" x2="755.56" y2="831.17"/><line class="cls-8" x1="766.99" y1="920.99" x2="798.71" y2="850.63"/><line class="cls-8" x1="817.73" y1="923.63" x2="841.87" y2="870.08"/><line class="cls-8" x1="853.31" y1="959.9" x2="885.03" y2="889.54"/></g><g id="RIGHT_HAND" data-name="RIGHT HAND"><path id="HAND-2" data-name="HAND" class="cls-3" d="M1142.34,928.92c76.05-70.53-11.09-401.08-125.71-415.34-11.74-1.46-36.45,7.43-38.11,81.23-1.58,69.93,32,212,41.46,250.64-72,35.77-185,133.71-205.75,145.23s9,69.51,32.69,64C865.23,1050.4,1064.83,1002,1142.34,928.92Z"/><path id="LINE-2" data-name="LINE" class="cls-4" d="M808,1002s92.1-91.87,211.73-156.72c0,0-24.33-89.61-32.47-158"/><path id="ARM-2" data-name="ARM" class="cls-5" d="M822.87,1055.3c-10.43,4.08-58.09,17.68-72.09,15.85s-38.79-18.69-41-21.8-10.3-29.54-10.3-29.54,9.79-7.62,19.09,4.93c11,14.88,31.65,11.9,42.94,8,4.69-1.6,14.27-8.09,11-14.54s-22.34-.78-27.81-2.55c-8.37-2.7-10.58-12.44-10.58-12.44s27.49-7.53,33-9,39.66-.2,61.38,12.11S847,1045.84,822.87,1055.3Z"/></g></g><g id="HEAD"><g id="NECK"><path id="NECK-2" data-name="NECK" class="cls-5" d="M856.22,367.76s-10.89,51,26.73,102.62c0,0-65,33.26-153.42,3.37,0,0,52.1-17.94,29.83-103.86Z"/><path id="SHADOW" class="cls-9" d="M854.11,367.81c.06,3.39.06,6.21,0,8.26,0,0-3.84,38.7-23.77,57.77-15.5,14.82-63.51,29.94-79.09,22.41a126.76,126.76,0,0,0,8.1-86.36Z"/></g><path id="HEAD-2" data-name="HEAD" class="cls-5" d="M855.24,375s-20.58,34.88-29.84,38.36c-23,8.64-59.71,16.21-72,9.89-8.38-4.31-8.85-4.58-18.68-47.24-7-30.51-.09-93,4.56-95.65s102.49-9.33,107.45.85S855.63,359,855.24,375Z"/><circle class="cls-10" cx="748" cy="335.18" r="6.27"/><circle class="cls-10" cx="799.87" cy="335.18" r="6.27"/><polyline class="cls-11" points="771.95 329.56 763.23 365.64 777.73 365.64"/><g id="HAIR"><path class="cls-1" d="M854.62,351.72s-18.24,1.21-13.14-29.91c4.54-27.68-2.86-33.36-40-22.91-30.19,8.5-74.57,6.86-91-18-9.31-14.11-4-17.74,11-27,18.8-11.58,56-33,102.61-23.13,37.21,7.86,39.12,39.13,39.12,39.13s22.31-5,27.32,18.31c6.31,29.39-35.21,87.28-35.21,87.28Z"/><path class="cls-12" d="M812.49,293.43c-21.48,13.44-77,22.31-94.59,4.8"/><path class="cls-12" d="M862.17,271s11.78-12.7,24-5.13"/></g><path id="MASK" class="cls-3" d="M861.78,369.52c-1.5,6-5.7,14.41-11.24,22.21-2.43,3.45-7.54,10.11-13.53,14.67-4.5,16.61-83.48,32-95.51,9.37-11-20.58-9.36-58.55-9.36-58.55,23.25-13.63,76-6.6,94.65.18a220.53,220.53,0,0,0,32.62-10.12,30,30,0,0,0-6.77,6.45h0a244.51,244.51,0,0,1-25,7.18c2.15,8.77,7.69,31.69,9.15,40.94a67.78,67.78,0,0,0,10.77-12.21,87.27,87.27,0,0,0,8.16-14.06C856.75,374.66,859.1,372.4,861.78,369.52Z"/><path id="EAR" class="cls-5" d="M852.37,354.08s11.18-15.57,20-5.86c6,6.63-17.09,27.82-17.09,27.82Z"/></g></g></svg>