<?xml version="1.0" encoding="utf-8"?>
<!-- Generator: Adobe Illustrator 25.2.3, SVG Export Plug-In . SVG Version: 6.00 Build 0)  -->
<svg version="1.1" id="Слой_1" xmlns="http://www.w3.org/2000/svg" xmlns:xlink="http://www.w3.org/1999/xlink" x="0px" y="0px"
	 viewBox="0 0 5000 3000" style="enable-background:new 0 0 5000 3000;" xml:space="preserve">
<style type="text/css">
	.st0{fill:#FFFFFF;}
	.st1{fill:none;stroke:#6464C8;stroke-width:5;stroke-miterlimit:10;}
	.st2{fill:#E7F0FD;}
	.st3{fill:#D1E2FB;}
	.st4{fill:none;stroke:#6464C8;stroke-width:6;stroke-miterlimit:10;}
	.st5{fill:none;stroke:#E5B21A;stroke-width:5;stroke-miterlimit:10;}
	.st6{fill:#FFFFFF;stroke:#E5B21A;stroke-width:5;stroke-miterlimit:10;}
	.st7{fill:none;stroke:#96BED5;stroke-width:5;stroke-miterlimit:10;}
	.st8{fill:#6464C8;}
	.st9{fill:#FFFFFF;stroke:#96BED5;stroke-width:5;stroke-miterlimit:10;}
	.st10{fill:#91882A;}
	.st11{fill:#CBC253;}
	.st12{fill:#96BED5;}
	.st13{fill:#E5B21A;}
	.st14{fill:#E7F0FD;stroke:#96BED5;stroke-width:5;stroke-miterlimit:10;}
	.st15{fill:#FFFFFF;stroke:#6464C8;stroke-width:5;stroke-miterlimit:10;}
	.st16{fill:#C1C1E9;}
	.st17{fill:#8383D3;}
	.st18{fill:none;stroke:#FFFFFF;stroke-width:5;stroke-miterlimit:10;}
	.st19{fill:none;stroke:#6464C6;stroke-width:6;stroke-miterlimit:10;}
	.st20{fill:#FFFFFF;stroke:#E3B03D;stroke-width:5;stroke-miterlimit:10;}
	.st21{fill:#D28E46;}
	.st22{fill:#94BCD3;}
	.st23{fill:#CFE0F9;}
	.st24{fill:#C97C2D;}
	.st25{fill:#C5D7F9;}
	.st26{fill:#E38E32;}
	.st27{fill:none;stroke:#FFFFFF;stroke-width:6;stroke-miterlimit:10;}
	.st28{fill:none;stroke:#E5B21A;stroke-width:4;stroke-miterlimit:10;}
	.st29{fill:#D49046;}
	.st30{fill:#CB7C2D;}
	.st31{fill:none;stroke:#40465C;stroke-width:3;stroke-linecap:round;stroke-linejoin:round;stroke-miterlimit:10;}
	.st32{fill:#40465C;}
	.st33{fill:#41465A;}
	.st34{fill:#96C3D2;}
	.st35{fill:none;stroke:#41465A;stroke-width:3;stroke-miterlimit:10;}
	.st36{fill:none;stroke:#40465C;stroke-width:4.8109;stroke-linecap:round;stroke-linejoin:round;stroke-miterlimit:10;}
	.st37{fill:none;stroke:#FFFFFF;stroke-width:3.0404;stroke-linecap:round;stroke-linejoin:round;stroke-miterlimit:10;}
	.st38{fill:none;stroke:#E5B21A;stroke-width:8;stroke-miterlimit:10;}
	.st39{fill:#FFFFFF;stroke:#E5B21A;stroke-width:8;stroke-miterlimit:10;}
	.st40{opacity:0.36;}
	.st41{fill:none;stroke:#6464C8;stroke-width:4;stroke-miterlimit:10;}
	.st42{fill:none;stroke:#41465A;stroke-width:4;stroke-linecap:round;stroke-linejoin:round;stroke-miterlimit:10;}
	.st43{fill:none;stroke:#6464C8;stroke-width:4;stroke-linecap:round;stroke-linejoin:round;stroke-miterlimit:10;}
	.st44{fill:#32323C;}
	.st45{fill:none;stroke:#CB7C2D;stroke-width:2;stroke-linecap:round;stroke-miterlimit:10;}
	.st46{fill:none;stroke:#41465A;stroke-width:4;stroke-miterlimit:10;}
	.st47{fill:none;stroke:#40465C;stroke-width:4;stroke-linecap:round;stroke-linejoin:round;stroke-miterlimit:10;}
</style>
<rect class="st0" width="5000" height="3000"/>
<g id="FLOOR">
	<line class="st1" x1="456.9" y1="2465.6" x2="4740.1" y2="2465.6"/>
	<g>
		<g>
			<polygon class="st2" points="1081.3,2511.2 746.9,2511.2 902.9,2468.3 1237.3,2468.3 			"/>
			<polygon class="st2" points="1747.6,2511.2 1413.1,2511.2 1569.1,2468.3 1903.5,2468.3 			"/>
			<polygon class="st2" points="2413.8,2511.2 2079.4,2511.2 2235.3,2468.3 2569.8,2468.3 			"/>
			<polygon class="st2" points="3080,2511.2 2745.6,2511.2 2901.6,2468.3 3236,2468.3 			"/>
			<polygon class="st2" points="3746.3,2511.2 3411.8,2511.2 3567.8,2468.3 3902.2,2468.3 			"/>
		</g>
		<g>
			<polygon class="st2" points="1258.5,2554.1 924.1,2554.1 1080,2511.2 1414.5,2511.2 			"/>
			<polygon class="st2" points="594.3,2554.1 259.9,2554.1 415.8,2511.2 750.3,2511.2 			"/>
			<polygon class="st2" points="1924.7,2554.1 1590.3,2554.1 1746.3,2511.2 2080.7,2511.2 			"/>
			<polygon class="st2" points="2591,2554.1 2256.5,2554.1 2412.5,2511.2 2746.9,2511.2 			"/>
			<polygon class="st2" points="3257.2,2554.1 2922.8,2554.1 3078.7,2511.2 3413.2,2511.2 			"/>
			<polygon class="st2" points="3923.4,2554.1 3589,2554.1 3745,2511.2 4079.4,2511.2 			"/>
		</g>
		<g>
			<polygon class="st2" points="946.3,2640.9 611.9,2640.9 767.8,2598 1102.2,2598 			"/>
			<polygon class="st2" points="1612.5,2640.9 1278.1,2640.9 1434,2598 1768.5,2598 			"/>
			<polygon class="st2" points="2278.8,2640.9 1944.3,2640.9 2100.3,2598 2434.7,2598 			"/>
			<polygon class="st2" points="2945,2640.9 2610.6,2640.9 2766.5,2598 3100.9,2598 			"/>
			<polygon class="st2" points="3611.2,2640.9 3276.8,2640.9 3432.7,2598 3767.2,2598 			"/>
		</g>
		<g>
			<polygon class="st2" points="769.4,2597 435,2597 591,2554.1 925.4,2554.1 			"/>
			<polygon class="st2" points="1435.7,2597 1101.2,2597 1257.2,2554.1 1591.6,2554.1 			"/>
			<polygon class="st2" points="2101.9,2597 1767.5,2597 1923.4,2554.1 2257.9,2554.1 			"/>
			<polygon class="st2" points="2768.1,2597 2433.7,2597 2589.7,2554.1 2924.1,2554.1 			"/>
			<polygon class="st2" points="3434.4,2597 3099.9,2597 3255.9,2554.1 3590.3,2554.1 			"/>
			<polygon class="st2" points="4407,2511.2 4072.6,2511.2 4228.5,2468.3 4563,2468.3 			"/>
			<polygon class="st2" points="4584.2,2554.1 4249.7,2554.1 4405.7,2511.2 4740.1,2511.2 			"/>
			<polygon class="st2" points="4272,2640.9 3937.5,2640.9 4093.5,2598 4427.9,2598 			"/>
			<polygon class="st2" points="4095.1,2597 3760.7,2597 3916.6,2554.1 4251.1,2554.1 			"/>
		</g>
	</g>
</g>
<g id="CHAIRS">
	<path class="st1" d="M1818.8,2199.1H532.9c-29.4,0-54.7-21-60-50l-33.7-182.3c-6.8-36.8,21.5-70.7,58.9-70.7h1018.2
		c32.8,0,60.9,23.5,66.7,55.8l35.2,197.2c5.3,29,30.6,50,60,50"/>
	<path class="st2" d="M945.6,2190.8v5.2H548.9v-5.2c0-26.2,21.2-47.5,47.5-47.5h301.8C924.3,2143.3,945.6,2164.6,945.6,2190.8z"/>
	<path class="st2" d="M1379.9,2196H983.2v-1.3c0-28.4,23-51.4,51.4-51.4h293.9c28.4,0,51.4,23,51.4,51.4V2196z"/>
	<path class="st2" d="M1814.3,2196h-396.7v-1.3c0-28.4,23-51.4,51.4-51.4h293.9c28.4,0,51.4,23,51.4,51.4V2196z"/>
	<path class="st3" d="M678.8,2190.8v5.2h-130v-5.2c0-26.2,21.2-47.5,47.5-47.5h35C657.6,2143.3,678.8,2164.6,678.8,2190.8z"/>
	<path class="st3" d="M1113.2,2190.8v5.2h-130v-5.2c0-26.2,21.2-47.5,47.5-47.5h35C1092,2143.3,1113.2,2164.6,1113.2,2190.8z"/>
	<path class="st3" d="M1547.6,2190.8v5.2h-130v-5.2c0-26.2,21.2-47.5,47.5-47.5h35C1526.3,2143.3,1547.6,2164.6,1547.6,2190.8z"/>
	<path class="st3" d="M746.4,2068H515.7c-24.3,0-45.1-17.3-49.5-41.2l-27.8-150.4c-5.6-30.3,17.7-58.3,48.6-58.3h230.7
		c24.3,0,45.1,17.3,49.5,41.2l27.8,150.4C800.6,2040,777.3,2068,746.4,2068z"/>
	<path class="st3" d="M1167.3,2068H936.6c-24.3,0-45.1-17.3-49.5-41.2l-27.8-150.4c-5.6-30.3,17.7-58.3,48.6-58.3h230.7
		c24.3,0,45.1,17.3,49.5,41.2l27.8,150.4C1221.5,2040,1198.2,2068,1167.3,2068z"/>
	<path class="st2" d="M746.4,2068H535c-24.3,0-45.1-17.3-49.5-41.2l-27.8-150.4c-5.6-30.3,17.7-58.3,48.6-58.3h211.4
		c24.3,0,45.1,17.3,49.5,41.2l27.8,150.4C800.6,2040,777.3,2068,746.4,2068z"/>
	<path class="st2" d="M1167.3,2068H955.9c-24.3,0-45.1-17.3-49.5-41.2l-27.8-150.4c-5.6-30.3,17.7-58.3,48.6-58.3h211.4
		c24.3,0,45.1,17.3,49.5,41.2l27.8,150.4C1221.5,2040,1198.2,2068,1167.3,2068z"/>
	<path class="st1" d="M445.7,1999.4h109.6c61.3,0,115,47.6,130.8,116.1l19.3,83.6"/>
	<path class="st4" d="M1634.7,1999.4h31.1c61.3,0,115,47.6,130.8,116.1l19.3,83.6"/>
	<path class="st3" d="M1588.2,2068h-230.7c-24.3,0-45.1-17.3-49.5-41.2l-27.8-150.4c-5.6-30.3,17.7-58.3,48.6-58.3h230.7
		c24.3,0,45.1,17.3,49.5,41.2l27.8,150.4C1642.4,2040,1619.1,2068,1588.2,2068z"/>
	<path class="st2" d="M1588.2,2068h-211.4c-24.3,0-45.1-17.3-49.5-41.2l-27.8-150.4c-5.6-30.3,17.7-58.3,48.6-58.3h211.4
		c24.3,0,45.1,17.3,49.5,41.2l27.8,150.4C1642.4,2040,1619.1,2068,1588.2,2068z"/>
	<polyline class="st1" points="508.4,2466.1 583.7,2199.7 684.7,2199.7 760,2466.1 	"/>
	<polyline class="st1" points="1562.7,2466.1 1638,2199.7 1739,2199.7 1814.3,2466.1 	"/>
</g>
<g id="CLOCK">
	<path class="st2" d="M2481.4,1037h-193.5c-22.2,0-40.2-18-40.2-40.2V803.3c0-22.2,18-40.2,40.2-40.2h193.5
		c22.2,0,40.2,18,40.2,40.2v193.5C2521.6,1019,2503.6,1037,2481.4,1037z"/>
	<path class="st5" d="M2495.6,1023.1h-193.5c-22.2,0-40.2-18-40.2-40.2V789.4c0-22.2,18-40.2,40.2-40.2h193.5
		c22.2,0,40.2,18,40.2,40.2v193.5C2535.8,1005.1,2517.8,1023.1,2495.6,1023.1z"/>
	<g>
		<rect x="2392.1" y="749.2" class="st6" width="13.6" height="40.3"/>
		<rect x="2392.1" y="982.7" class="st6" width="13.6" height="40.3"/>
	</g>
	<g>
		
			<rect x="2275.3" y="866" transform="matrix(4.557694e-11 -1 1 4.557694e-11 1395.9596 3168.1829)" class="st5" width="13.6" height="40.3"/>
		
			<rect x="2508.8" y="866" transform="matrix(4.557694e-11 -1 1 4.557694e-11 1629.542 3401.7654)" class="st6" width="13.6" height="40.3"/>
	</g>
	<polyline class="st5" points="2374.9,832.1 2398.2,884.9 2333.4,941.8 	"/>
	<circle class="st6" cx="2398.9" cy="886.1" r="6.8"/>
</g>
<g id="LAMP">
	<line class="st7" x1="3034.2" y1="345.2" x2="3034.2" y2="662.9"/>
	<line class="st7" x1="3633.1" y1="345.2" x2="3633.1" y2="662.9"/>
	<line class="st7" x1="4231.9" y1="345.2" x2="4231.9" y2="662.9"/>
	<path class="st5" d="M2908.7,729.5c0-48.1,39.2-66.6,87.5-66.6h1270.4c48.3,0,87.5,21.1,87.5,69.3"/>
	<path class="st2" d="M3589.4,725.5h-618.8c-10.2,0-18.4-8.3-18.4-18.4v0c0-10.2,8.3-18.4,18.4-18.4h618.8
		c10.2,0,18.4,8.3,18.4,18.4v0C3607.9,717.2,3599.6,725.5,3589.4,725.5z"/>
	<path class="st2" d="M4293.5,725.5h-618.8c-10.2,0-18.4-8.3-18.4-18.4v0c0-10.2,8.3-18.4,18.4-18.4h618.8
		c10.2,0,18.4,8.3,18.4,18.4v0C4311.9,717.2,4303.7,725.5,4293.5,725.5z"/>
</g>
<g id="SHELF">
	<g id="BOOKS">
		<rect x="3852.5" y="1181.4" class="st6" width="240.5" height="46.5"/>
		<rect x="3890.1" y="1160.3" class="st8" width="242.9" height="18.2"/>
		<rect x="3867.5" y="1133.4" class="st9" width="242.9" height="23.8"/>
		<rect x="3852.9" y="1103.2" class="st2" width="214.2" height="27.1"/>
	</g>
	<polygon id="SHELF_1_" class="st9" points="4133.8,1267 3681.9,1267 3592.9,1137.4 3177.6,1137.4 3177.6,1103.2 3610.5,1103.2 
		3699.5,1232.8 4133.8,1232.8 	"/>
	<g id="PLANT_1_">
		<path class="st3" d="M3752.4,1230.6L3752.4,1230.6c-34,0-61.5-27.5-61.5-61.5v-9.8h123v9.8
			C3813.8,1203.1,3786.3,1230.6,3752.4,1230.6z"/>
		<path class="st10" d="M3710.4,1159.4c0,0-26.6,21.7-41.9,3.9c-11-12.9,32.6-12.9,32.6-12.9s-23-18.4-15.7-21.7
			c17.9-8.2,28.4,19.3,28.4,19.3s-24.7-46.1-3.3-54c17.6-6.5,17.6,41,17.6,41s3.7-19.3,13.7-18c9.9,1.2,2.8,21.7,2.8,21.7
			s8.7-5.9,9.3,7.5c0,0,1.7-50.8,23-46c17.7,4-5.9,38.8-5.9,38.8s13.7-17.1,25.8-11.8c12.1,5.3-10.9,21.1-10.9,21.1
			s32.9-30.7,44.8-22.5c9.1,6.3-14,21.7-14,21.7s16.5-4.6,20.2,3.5s-23.1,8.5-23.1,8.5H3710.4z"/>
		<path class="st11" d="M3724.4,1159.4c0,0,0.9-43.8,17.4-42.5s-6.5,42.5-6.5,42.5H3724.4z"/>
		<path class="st11" d="M3724.4,1159.4c0,0-16.5-41.3-39-30.7c-21.9,10.3,25.2,30.7,25.2,30.7H3724.4z"/>
		<path class="st11" d="M3758.4,1159.4c0,0,14.8-37.2,38.4-33.7c23.6,3.5-29.1,33.7-29.1,33.7H3758.4z"/>
		<path class="st11" d="M3782.6,1159.4c0,0,46.1-23.2,54.4-9.2C3845.2,1164.1,3782.6,1159.4,3782.6,1159.4z"/>
	</g>
	<g id="DOCUMENTS">
		<g>
			<rect x="3235.4" y="866.9" class="st9" width="63.1" height="236.4"/>
			<rect x="3252.4" y="948.1" class="st12" width="29" height="7.5"/>
			<rect x="3252.4" y="968" class="st12" width="29" height="7.5"/>
			<rect x="3252.4" y="988" class="st12" width="29" height="7.5"/>
			<rect x="3252.4" y="1007.9" class="st12" width="29" height="7.5"/>
			<circle class="st12" cx="3266.9" cy="1062.4" r="14.2"/>
		</g>
		<g>
			<rect x="3304" y="866.9" class="st6" width="63.1" height="236.4"/>
			<rect x="3321.1" y="948.1" class="st13" width="29" height="7.5"/>
			<rect x="3321.1" y="968" class="st13" width="29" height="7.5"/>
			<rect x="3321.1" y="988" class="st13" width="29" height="7.5"/>
			<rect x="3321.1" y="1007.9" class="st13" width="29" height="7.5"/>
			<circle class="st13" cx="3335.6" cy="1062.4" r="14.2"/>
		</g>
		<g>
			<rect x="3372.7" y="866.9" class="st14" width="63.1" height="236.4"/>
			<rect x="3389.7" y="947.1" class="st0" width="29" height="7.5"/>
			<rect x="3389.7" y="967" class="st0" width="29" height="7.5"/>
			<rect x="3389.7" y="987" class="st0" width="29" height="7.5"/>
			<rect x="3389.7" y="1006.9" class="st0" width="29" height="7.5"/>
			<circle class="st0" cx="3404.2" cy="1061.4" r="14.2"/>
		</g>
		<g>
			<rect x="3441.3" y="866.9" class="st15" width="63.1" height="236.4"/>
			<rect x="3458.4" y="948.1" class="st8" width="29" height="7.5"/>
			<rect x="3458.4" y="968" class="st8" width="29" height="7.5"/>
			<rect x="3458.4" y="988" class="st8" width="29" height="7.5"/>
			<rect x="3458.4" y="1007.9" class="st8" width="29" height="7.5"/>
			<circle class="st8" cx="3472.9" cy="1062.4" r="14.2"/>
		</g>
	</g>
</g>
<g id="PLANT">
	<g>
		<path class="st3" d="M4531.7,2295.7c8.1,20.9,14,43.8,15.3,67.4l-5,0.3c-0.9-15.6-3.8-30.9-8.1-45.5l-36.2-20.4
			c16-2.8,25.8,1.2,31.7,6.7c-2.8-7.9-6-15.6-9.4-23l-62.6-29.4c28.9-2.9,46.6,7.4,56.6,17c-4.1-8.1-8.4-15.6-12.7-22.7l-79.5-20.6
			c29.5-7.6,54-5.4,69.9,5.8c-0.2-0.2-0.3-0.4-0.5-0.7c-6.4-9.4-12.7-17.9-18.6-25.3l-80.1-8.9c35.1-16,60.3-7.2,73.6,0.9
			c-8.1-9.7-14.7-16.8-18.4-20.6c-19.7-12.2-79.3-49.9-73.3-55c6.8-5.8,39.2-13.1,74.1,48.7c0,0,0,0,0,0
			c2.4,2.3,13.5,13.6,27.4,31.1c-10.1-21.8-18.4-52.8-4.3-81.6l20.1,102.8c1.1,1.6,2.3,3.3,3.4,4.9c3.7,5.4,7.5,11.3,11.2,17.6
			c-9.3-23.7-15-56.2,1.9-82.7l9,102.1c2.4,4.6,4.7,9.4,7,14.3c-4.3-22.5,1.2-41.4,17-63.9L4531.7,2295.7z"/>
		<path class="st3" d="M4558.5,2228.5c9,95.9,12,152.1,12.1,153.5l-5,0.3c-0.1-1.5-3.8-70.5-15.2-186.3c0,0,0-0.1,0-0.1
			c-1.4-9.5-2.3-18-2.6-25.8c-2-19.2-4.2-39.5-6.5-60.9c-0.1-0.9-0.3-1.8-0.4-2.7c-33.8-90.7-73.2-96.4-73.2-96.4
			c35.3,1.8,55.3,17.9,66.4,37.4c-1.5-12.1-3-24.6-4.6-37.2c-29.4-81.2-84.8-95.1-84.8-95.1c41.1-7.6,64.1,10,76.8,33.8
			c-1.3-9.9-2.7-19.8-4.1-29.9c-15.4-18.8-57-66.5-97.7-87.6c0,0,64.2,0.5,91.7,45.3c-0.6-4.2-1.2-8.5-1.9-12.8
			c-15.2-30.5-51.9-97.5-91.1-117.8c0,0,53.5,1.7,81.6,54.7c-1.6-10.4-3.3-21-5-31.6c-21.3-27.8-87-110.3-125.1-121.4
			c0,0,81.1-12.1,118,77.7c-2.1-12.7-4.3-25.6-6.5-38.5c-17.3-34-58.2-104.5-99.1-104.5c0,0,56.8-21.2,88.8,45.5
			c-2.5-13.7-5-27.5-7.6-41.4c-31.1-7.2-26.5-184.1-19.4-184.5c0,0,40.7,171,24.4,183.9c4.3,22.9,8.4,45.6,12.3,68
			c0.1,0.3,0.2,0.5,0.2,0.8c-12-124.2,60.2-122.5,60.2-122.5c-46.4,53.3-50.6,179.1-50.6,179.1c-0.1-0.2-0.1-0.5-0.2-0.7
			c2.9,17.2,5.7,34.2,8.4,51c0.1,0.6,0.3,1.2,0.4,1.9c-13.7-147.4,83-142.1,83-142.1c-50.2,42.3-75.5,153.1-78.9,168.7
			c1.5,9.7,3,19.3,4.5,28.9c1.1,3.1,2,6.3,2.9,9.7c-1.7-116.5,87.1-113.1,87.1-113.1c-58.9,40.8-78.5,157.6-80.3,169.1
			c0.3,2.4,0.7,4.8,1,7.1c0.4,1.2,0.8,2.4,1.2,3.6c4-87.6,87.8-98.3,87.8-98.3c-81.1,45.5-79.5,160.3-79.5,160.3
			c-0.3-1.2-0.6-2.3-1-3.4c0.6,4.1,1.1,8.1,1.6,12.1c1.5,4.5,2.7,9.1,3.7,13.6c2.5-91.5,54.5-79.3,54.5-79.3
			c-25.2,25.6-36.8,82.5-42,122.6c15.7-40.1,51.8-34.2,51.8-34.2c-29.6,26.2-40.3,96.8-44.1,137.1c12.6-36.1,44.1-31,44.1-31
			C4566.3,2122.1,4559.8,2205.6,4558.5,2228.5z"/>
		<path class="st3" d="M4667.3,2096c-1.1,4.7-2.3,9.4-3.4,14c27.7-52.7,74.1-50.8,74.1-50.8c-50.7,34.5-76.3,81.7-89.2,116.2
			c-1.3,5.8-2.6,11.5-3.8,17c-0.8,3.7-1.6,7.3-2.4,10.9c26.9-62,78.4-59.9,78.4-59.9c-55,37.4-80.5,89.8-92.2,124.8c0,0,0,0,0,0.1
			c-11.3,54.5-18.7,93-18.8,93.6l-4.9-0.9c0.1-0.3,2.5-13.3,6.8-34.8c-1.7-19.5-6.9-64.4-19.2-80.4c0,0,21.8,5.1,26.5,35
			c-1-33.1-5.3-92.8-23.7-117.5c0,0,34.4,15.3,34.2,76.3c1.5-7,3-14.1,4.6-21.4c0.4-31.7-0.7-124.6-26.1-160.1
			c0,0,43.6,20.4,39.5,99.4c1.1-4.7,2.1-9.4,3.2-14.2c0.5-24.1,1.2-127.8-26-165.8c0,0,49,22.9,38.3,114c2.6-10.8,5.3-21.5,8-32.1
			c-3.1-28.6-13.1-118.9-16.9-128.2c-5-12.2,28.9,33.4,23.1,104.3c4.3-16.3,8.7-32,13-46.7c-2.7-24.6-10.3-92.9-13.2-100.1
			c-4-9.7,23,26.6,18.4,83.2c3.8-12.2,7.6-23.4,11.2-33.4c4.8-35.9,18.6-121.1,40.2-116.7c14.1,2.9-18.4,79.6-34.1,114.8
			c0,0,0,0,0,0c-4.9,13.1-10,28.6-15.2,45.6c11.9-25.5,32.9-52,68.5-51.4c0,0-41.9,13.3-80.1,92c-2.7,9.9-5.4,20.2-8.1,30.6
			c14.6-33.4,41.3-70,88.2-69.2C4766.2,1984.1,4714.9,2000.4,4667.3,2096z"/>
	</g>
	<path class="st13" d="M4635.7,2461.5h-123.9c-22.5,0-40.8-18.3-40.8-40.8V2394c0-22.5,18.3-40.8,40.8-40.8h123.9
		c22.5,0,40.8,18.3,40.8,40.8v26.6C4676.5,2443.2,4658.2,2461.5,4635.7,2461.5z"/>
</g>
<g id="POSTERS">
	<g>
		<rect x="1254.7" y="685.8" class="st2" width="580" height="774.6"/>
		<rect x="1276.9" y="665.5" class="st7" width="580" height="774.6"/>
		<path class="st2" d="M1797,988.2v171.6l-53.2-27.4c-7.6,0-48.2,273-48.2,273h-280c0,0-40.6-273-48.2-273l-49,25.7V984.8
			c0-41.2,95.2-65.6,123.9-81.3c46.8-25.6,58.2-58.8,56.9-90.5l1.8,0c-1.2-0.2-1.9-0.3-1.9-0.3c-6-37.9-20.1-48.6-20.3-86.1h179.8
			c-2.7,31.3-4.4,63.9-26.3,86.8c-4.6,4.8-13.8,7.4-25.3,8.5c1,30.3,17.8,64.7,61.9,81.5C1706.2,917.8,1797,953.4,1797,988.2z"/>
		<path class="st2" d="M1599.9,943.7c-27.3,0-31.6,139.5-24.3,192.1c5.4,38.9,94.2,60,108.3,41.9
			C1716.4,1136,1652,943.7,1599.9,943.7z"/>
		<path class="st2" d="M1515.7,943.7c27.3,0,31.6,139.5,24.3,192.1c-5.4,38.9-95.8,61.1-108.3,41.9
			C1397.5,1125.3,1463.6,943.7,1515.7,943.7z"/>
		<path class="st2" d="M1604.2,1209.4c0.7-13.5-60.4-29.9-135.4-7.7c-57.9,17.2-40.4,108.6-16.2,108.5c12-0.1,20.1-25.3,43.3-25
			c56.9,0.9,84.6-20.4,90.2-56C1588.2,1215.7,1603.7,1220.2,1604.2,1209.4z"/>
		<path class="st2" d="M1568.9,1280.2c-3.1,13.6,83.2,6.6,93.9-34.2c9.5-36.1-27.7-43.9-45.5-25.8c-12.6,12.8-11.6,16.7-21.5,34.8
			C1583.8,1276.8,1570.7,1272.8,1568.9,1280.2z"/>
		<g>
			<path class="st2" d="M1665.7,1267.2c-10,13.2-25.2,22.8-40.6,28.5c-17.8,6.5-35.5,6.6-54.3,6c-37.6-1.3-82.5-5.8-109.9,25.6
				c-13.4,15.3-21.2,35.7-19.6,56.2c0.5,6.4,5.1,11.9,11.9,11.9c6.1,0,12.5-5.5,11.9-11.9c-1.2-14.7,3.3-29,13-39.8
				c11.2-12.5,26.4-17.5,43.6-18.4c37.4-2.1,76.6,6.6,112.5-7.6c20.7-8.2,38.5-20.5,52-38.4c3.9-5.2,0.8-13.4-4.3-16.3
				C1675.9,1259.4,1669.6,1262.1,1665.7,1267.2L1665.7,1267.2z"/>
		</g>
	</g>
	<g>
		<rect x="494" y="685.8" class="st2" width="580" height="774.6"/>
		<rect x="516.2" y="665.5" class="st7" width="580" height="774.6"/>
		<g>
			<g>
				<circle class="st0" cx="697.8" cy="838" r="115.4"/>
				<path class="st3" d="M752,736.2L697.8,838V722.6C717.4,722.6,735.9,727.5,752,736.2C752,736.2,752,736.2,752,736.2z"/>
				<path class="st12" d="M813.2,838H697.8L752,736.2c0,0,0,0,0,0C788.4,755.6,813.2,793.9,813.2,838z"/>
				<path class="st16" d="M813.2,838c0,63.7-51.7,115.4-115.4,115.4c-32.7,0-62.3-13.6-83.3-35.5c0,0,0,0,0,0l83.3-79.8H813.2z"/>
				<path class="st17" d="M697.8,838l-83.3,79.8h0c-6.3-6.6-11.8-13.9-16.4-21.8L697.8,838z"/>
			</g>
			<polyline class="st18" points="769.9,791.3 823.8,752.1 867.9,752.1 			"/>
			<line class="st18" x1="769.9" y1="877.9" x2="867.4" y2="940.1"/>
		</g>
		<rect x="797.3" y="1024.6" class="st0" width="231.2" height="316.1"/>
		<rect x="582.4" y="1371.3" class="st0" width="446.1" height="19.2"/>
		<g>
			<g>
				<rect x="582.4" y="1024.6" class="st2" width="187.4" height="23.3"/>
				<rect x="582.4" y="1073.4" class="st2" width="187.4" height="23.3"/>
				<rect x="582.4" y="1122.2" class="st2" width="187.4" height="23.3"/>
				<rect x="582.4" y="1171" class="st2" width="187.4" height="23.3"/>
				<rect x="582.4" y="1219.8" class="st2" width="187.4" height="23.3"/>
				<rect x="582.4" y="1268.6" class="st2" width="187.4" height="23.3"/>
				<rect x="582.4" y="1317.4" class="st2" width="187.4" height="23.3"/>
			</g>
			<g>
				<rect x="877.9" y="736.2" class="st2" width="150.6" height="15"/>
				<rect x="877.9" y="760.7" class="st2" width="150.6" height="15"/>
				<rect x="877.9" y="785.2" class="st2" width="102.4" height="15"/>
			</g>
			<g>
				<rect x="877.9" y="946.7" class="st2" width="150.6" height="15"/>
				<rect x="877.9" y="971.2" class="st2" width="150.6" height="15"/>
			</g>
		</g>
	</g>
</g>
<g id="RECEPTION_1_">
	<g id="SECRETARY">
		<g id="CHAIR">
			<g>
				<path class="st8" d="M4305.5,1941.5l-42,137.3c-8.7,28.5-33.1,47.8-60.4,47.8h-237.7c-27.4,0-51.7-19.2-60.4-47.8l-34.6-112.9
					c-6-19.7,7.3-40.1,26.2-40.1h26.6c12.5,0,23.2-10.2,24.9-23.8l15.5-121.1c3.7-28.9,26.2-50.4,52.7-50.4h214
					c32.4,0,57.2,31.5,52.7,66.7l-13.3,104.5c-1.6,12.8,7.4,24.1,19.1,24.1h6.4C4302.6,1925.8,4307.8,1933.8,4305.5,1941.5z"/>
			</g>
			<rect x="4065.8" y="2122.8" class="st15" width="34.8" height="259"/>
			<path class="st19" d="M4178.2,2416.3v-12c0-12.4-14.3-22.5-31.9-22.5h-124.1c-17.6,0-31.9,10.1-31.9,22.5v12"/>
			<circle class="st20" cx="3991" cy="2440.7" r="24.4"/>
			<circle class="st20" cx="4177.8" cy="2440.7" r="24.4"/>
		</g>
		<g id="LEGS_3_">
			<g id="LEFT_LEG_5_">
				<path id="FOOT_2_" class="st21" d="M3777,2344c-3.1,11.7-14.5,51.9-10.4,66.3c4.1,14.4,15.5,25,12.3,39.7
					c-3.3,15.6-95.1,5.7-97.9,5.1c-2.8-0.6,48.7-29.2,49.3-50.5c0.6-21.3-6.2-60.6-6.2-60.6H3777z"/>
				<g id="SHOES_2_">
					<path class="st22" d="M3666.4,2466.3h113.4c2.7,0,4.9-2.2,4.9-4.9l0,0c0-2.7-2.2-4.9-4.9-4.9h-113.4c-2.7,0-4.9,2.2-4.9,4.9
						l0,0C3661.5,2464.1,3663.7,2466.3,3666.4,2466.3z"/>
					<path class="st23" d="M3747.6,2457.2c0,0-11.9-14.5-28.7-18.8c-18.4-4.7-27.3-2.2-37.2,2.8c-9.6,4.9-15,15.3-15,15.3
						L3747.6,2457.2z"/>
					<path class="st23" d="M3748,2456.9c0,0-1-34,21.5-38.5c0,0,21.6,19.3,9.7,38.5H3748z"/>
				</g>
				<path id="SHADOW_6_" class="st24" d="M3777,2344h-52.8c0,0,1.3,7.5,2.7,17.8c19.2,1.8,39-4.6,47.4-7.8
					C3775.4,2349.9,3776.4,2346.4,3777,2344z"/>
				<path id="PANT_1_" class="st25" d="M3901.4,2112.9c-29.2,0-59.1-0.3-98.6-0.9c4.8,34,9.9,76.2,9.1,110.9
					c-0.7,32.6-7.4,37-7.2,50.8c0.5,22.1-14.3,29.4-9.5,45.2c8,26.5-18.2,25.1-18.2,25.1s-34.4,6.3-60.4,0l-26.6-273.5
					c-7.6-25.4,25.9-56.1,59.1-70.9c57.1-25.6,273.7-123.3,302-34C4058.6,1989.4,4034.4,2113.1,3901.4,2112.9z"/>
			</g>
			<g id="RIGHT_LEG_3_">
				<path id="FOOT_1_" class="st21" d="M3938,2344c-3.1,11.7-14.5,51.9-10.4,66.3c4.1,14.4,15.5,25,12.3,39.7
					c-3.3,15.6-95.1,5.7-97.9,5.1c-2.8-0.6,48.7-29.2,49.3-50.5c0.6-21.3-6.2-60.6-6.2-60.6H3938z"/>
				<g id="SHOES_1_">
					<path class="st22" d="M3827.4,2466.3h113.4c2.7,0,4.9-2.2,4.9-4.9l0,0c0-2.7-2.2-4.9-4.9-4.9h-113.4c-2.7,0-4.9,2.2-4.9,4.9
						l0,0C3822.5,2464.1,3824.7,2466.3,3827.4,2466.3z"/>
					<path class="st23" d="M3908.6,2457.2c0,0-11.9-14.5-28.7-18.8c-18.4-4.7-27.3-2.2-37.2,2.8c-9.6,4.9-15,15.3-15,15.3
						L3908.6,2457.2z"/>
					<path class="st23" d="M3909,2456.9c0,0-1-34,21.5-38.5c0,0,21.6,19.3,9.7,38.5H3909z"/>
				</g>
				<path id="SHADOW_5_" class="st24" d="M3938,2344h-52.8c0,0,1.3,7.5,2.7,17.8c19.2,1.8,39-4.6,47.4-7.8
					C3936.4,2349.9,3937.4,2346.4,3938,2344z"/>
				<path id="PANT" class="st23" d="M4042.4,2112.9c-29.2,0-59.1-0.3-98.6-0.9c4.8,34,9.9,76.2,9.1,110.9c-0.7,32.6,2.6,37,2.8,50.8
					c0.5,22.1-4.3,29.4,0.5,45.2c8,26.5-18.2,25.1-18.2,25.1s-34.4,6.3-60.4,0l-46.6-273.5c-7.6-25.4,5.9-56.1,39.1-70.9
					c57.1-25.6,266.5-145.3,301-11C4177.3,2012.7,4175.4,2113.1,4042.4,2112.9z"/>
			</g>
		</g>
		<g id="LEFT_HAND_3_">
			<path class="st3" d="M3959.9,1638.2c3.6,22.7,21,34.9-42.8,192.2c-24.2,59.7-73.3,31.2-69.7,0.6c3.6-30.6,43.8-150.5,57.6-178.4
				C3919.9,1622.3,3956.9,1619.2,3959.9,1638.2z"/>
			<path class="st26" d="M3894.3,1856c-46.2,23-226.4,9.7-226.9-1.9c-0.6-13.5,159-43.8,193-47.5
				C3901,1802.1,3921.9,1842.2,3894.3,1856z"/>
			<path class="st26" d="M3699.3,1846.6c-1.2-4.1-33.3-3.6-43.8-0.7c-10.5,2.9-25,15.1-27,17.8c-2,2.7-6.8,16.8-6.8,16.8
				s4.1,5.2,10.1-2.8s21-16.5,24.7-14.1c8.2,5.5-10.7,9.6-12.9,12.8c-2.3,3.3-1.3,5.4-1.3,5.4s19.5-3.9,22.6-4.1
				c3-0.2,13.3-4.4,19.3-9.3C3690.1,1863.6,3701,1852.7,3699.3,1846.6z"/>
		</g>
		<g id="SHIRT">
			<path class="st2" d="M4168.9,2010.8c29.1,34.1-32.7-119.9-44.3-158.7c-5.5-18.4,7-89.6,20.4-147.7c13.5-58.8-7.7-80-44.3-89.1
				c-40.8-10.2-93.5-7.5-105.9-5.8c-39.4,5.2-48.9,9.9-67,19.6c-9,4.8-8.5,98.6-11.2,123.3c-2.6,24.7,10.4,39.6,25.8,49.8
				c4.4,2.9,13.6,18.3,13.4,54.7c-0.2,36.3-5.5,55.9-20.1,76.4C3935.7,1933.3,4086.2,1913.7,4168.9,2010.8z"/>
			<polyline class="st27" points="4089.8,1613.6 3996.7,1723.7 3955.6,1615.5 			"/>
		</g>
		<g id="RIGHT_HAND_3_">
			<path class="st3" d="M4134.7,1631.7c16.9,15.6,38.4,47.5,85.2,210.7c17.7,61.9-22.8,60.1-38.8,33.7s-83.8-146.2-90.4-176.7
				C4079.2,1646.5,4120.7,1618.7,4134.7,1631.7z"/>
			<path class="st26" d="M4211.9,1893c-47.9,24.1-243.9-1.7-244.5-13.7c-0.7-14.1,167.2-26.8,202.5-30.8
				C4211.9,1843.7,4240.4,1878.6,4211.9,1893z"/>
			<path class="st26" d="M3994.1,1881.7c0.2,4.3-30.4,14.1-41.3,14.7s-28.5-6.3-31.3-8.2c-2.8-1.9-11.8-13.7-11.8-13.7
				s2.2-6.3,10.4-0.6c8.2,5.7,25.2,8.9,27.9,5.4c6-7.8-13.2-5.6-16.4-8c-3.2-2.4-3-4.7-3-4.7s19.7-2.6,22.7-3.4
				c2.9-0.8,14-0.1,21.3,2.6S3993.7,1875.3,3994.1,1881.7z"/>
		</g>
		<g id="HEAD_7_">
			<g id="HAIR_4_">
				<path class="st13" d="M4049.8,1530.5c16-3.2,37.5-32.7,30.1-58c-7.4-25.3-43.3-55.1-80-43.3s-59.3,29.5-54.9,65.8
					c3.5,28.8,93.7,122.9,155.8,119.4c25-1.4,50.2-54,17.5-73.6C4085.6,1521.2,4049.8,1530.5,4049.8,1530.5z"/>
				<path class="st28" d="M4133,1540.8c-33-30.3-82.3-11.2-82.3-11.2"/>
			</g>
			<g id="NECK_5_">
				<path id="NECK_4_" class="st29" d="M4044.7,1527.4c0,0-5.2,59.7,26.2,83l-67.1,78.1l-29.2-75.2c0,0,32.8-6.1,19.2-86H4044.7z"/>
				<path id="SHADOW_7_" class="st30" d="M4044.4,1539c-0.1,1.1-0.2,1.7-0.2,1.7c0,11-22.4,53.1-53.4,56.6c5.6-12.1,9.2-33.2,3-69.9
					h51C4044.7,1527.4,4044.3,1531.9,4044.4,1539z"/>
			</g>
			<path id="FACE_1_" class="st29" d="M4044.3,1532.3c-0.1,0.6-0.1,1-0.1,1c0.9,8.2-31.8,40.9-57.6,43.9
				c-11.6,1.3-28.8-32.1-31.7-43.4c-4.1-16.5-4.4-32.8-4.6-38.8c-0.3-9.6,0.3-33.7,28-33.7c27.9,0,43.5,61.4,64.1,49
				c0.4-0.9,3.9-8.1,12.8-2.4C4061.9,1512.2,4051.9,1527.8,4044.3,1532.3z"/>
			<polyline class="st31" points="3977.3,1510.5 3974.5,1532.2 3980,1538.7 			"/>
			<g id="GLASSES">
				<circle class="st1" cx="3955.9" cy="1516.6" r="17"/>
				<circle class="st1" cx="4001.2" cy="1516.6" r="17"/>
				<line class="st1" x1="3972.9" y1="1516.6" x2="3984.2" y2="1516.6"/>
				<path class="st1" d="M4018.1,1515.7c0,0,27.3-16.8,39-7.8"/>
			</g>
			<circle class="st32" cx="3962.8" cy="1516.5" r="4.1"/>
			<circle class="st32" cx="3995" cy="1516.5" r="4.1"/>
			<path class="st31" d="M3980.4,1550.9c0,0,9.1,1.6,15.3-7"/>
		</g>
	</g>
	<g id="COMPUTER">
		<path class="st0" d="M3885.6,1795.4h-296.7c-9.9,0-18.8-6.3-22.1-15.6l-60.6-171.2c-3.8-10.6,4.1-21.7,15.4-21.7h299.1
			c8.5,0,16,5.3,18.9,13.3l61.4,173.5C3904.7,1784.3,3896.9,1795.4,3885.6,1795.4z"/>
		<path class="st2" d="M3876.4,1804.6h-296.7c-9.9,0-18.8-6.3-22.1-15.6l-60.6-171.2c-3.8-10.6,4.1-21.7,15.4-21.7h299.1
			c8.5,0,16,5.3,18.9,13.3l61.4,173.5C3895.5,1793.5,3887.6,1804.6,3876.4,1804.6z"/>
		<path class="st7" d="M3885.6,1794.5h-296.7c-9.9,0-18.8-6.3-22.1-15.6l-60.6-171.2c-3.8-10.6,4.1-21.7,15.4-21.7h299.1
			c8.5,0,16,5.3,18.9,13.3l61.4,173.5C3904.7,1783.4,3896.9,1794.5,3885.6,1794.5z"/>
		<polygon class="st9" points="3730.9,1841.8 3642.7,1841.8 3670.4,1724.6 3758.6,1724.6 		"/>
	</g>
	<g id="ICON">
		<path class="st6" d="M3495.5,1524.5c9.3,0,15.7-9.1,15.7-18.6v-53.3c0-10.3-8.4-18.7-18.7-18.7h-121.3c-10.3,0-18.7,8.4-18.7,18.7
			v53.3c0,10.3,8.4,18.7,18.7,18.7h71.1c17.4,0,26.8,28,26.8,28S3474.9,1524.5,3495.5,1524.5z"/>
		<g>
			<circle class="st6" cx="3397.1" cy="1478.8" r="7"/>
			<circle class="st6" cx="3431.7" cy="1479.2" r="7"/>
			<circle class="st6" cx="3466.4" cy="1479.2" r="7"/>
		</g>
	</g>
	<path id="RECEPTION" class="st15" d="M4305.2,2465.6H2249.8c-27.1,0-49.1-22-49.1-49.1v-719.4c0-27.1,22-49.1,49.1-49.1H3223
		c35.4,0,70,11.1,98.7,31.8l181.6,130.3c28.8,20.7,63.3,31.8,98.7,31.8h703.1c27.1,0,49.1,22,49.1,49.1v525.6
		C4354.3,2443.6,4332.3,2465.6,4305.2,2465.6z"/>
</g>
<g id="DOCTOR">
	<g id="SHOES">
		<g>
			<path class="st33" d="M3199.7,2477c0,0,17.3,35.9,5.4,48.9h-152.5c0,0,0.9-25.2,37.6-29.1c33-3.6,53-19.8,53-19.8H3199.7z"/>
			<path class="st8" d="M3051.4,2535h155.5c1.4,0,2.6-1.2,2.6-2.6v-3.8c0-1.4-1.2-2.6-2.6-2.6h-155.5c-1.4,0-2.6,1.2-2.6,2.6v3.8
				C3048.8,2533.8,3050,2535,3051.4,2535z"/>
			<g>
				<path class="st1" d="M3124.7,2499.1l-5-11.8c-1.1-2.5-4.1-3.6-6.5-2.3l0,0c-2.1,1.1-3.1,3.6-2.3,5.8l0.4,1.6"/>
				<path class="st1" d="M3103,2505.8l-3.3-12c-0.8-2.6-3.6-4.1-6.1-3.2l0,0c-2.3,0.8-3.7,3-3.4,6.1"/>
			</g>
		</g>
		<g>
			<path class="st33" d="M2976.3,2477c0,0,17.3,35.9,5.4,48.9h-152.5c0,0,0.9-25.2,37.6-29.1c33-3.6,53-19.8,53-19.8H2976.3z"/>
			<path class="st8" d="M2828.1,2535h155.5c1.4,0,2.6-1.2,2.6-2.6v-3.8c0-1.4-1.2-2.6-2.6-2.6h-155.5c-1.4,0-2.6,1.2-2.6,2.6v3.8
				C2825.4,2533.8,2826.6,2535,2828.1,2535z"/>
			<g>
				<path class="st1" d="M2901.3,2499.1l-5-11.8c-1.1-2.5-4.1-3.6-6.5-2.3l0,0c-2.1,1.1-3.1,3.6-2.3,5.8l0.4,1.6"/>
				<path class="st1" d="M2879.6,2505.8l-3.3-12c-0.8-2.6-3.6-4.1-6.1-3.2l0,0c-2.3,0.8-3.7,3-3.4,6.1"/>
			</g>
		</g>
	</g>
	<path id="LEGS_2_" class="st12" d="M3162.3,1692.1c1.4,44.6,7,389.6,46.8,486.6c40.3,98.2-0.9,298-0.9,298c-55.3,8.7-77.7-1-77.7-1
		s-75.7-423.2-117.5-647.9l-11.6-6c0,0-5.5,276.3,9.6,380c15.1,104-17.8,275.3-17.8,275.3c-47.7,7.4-93.3,0-93.3,0
		s-10.2-194.9-26.1-353.1c-8.7-87-19.8-408.7-19.1-429.9L3162.3,1692.1z"/>
	<path id="TORSO" class="st12" d="M3061.4,1260.7c12.4,0,130.3,23.5,130.2,74.8c-0.1,56.2-59.8,241.3-54.9,275.3
		c4.9,33.9,36.9,78.8,22.2,85.3c-39.7,17.4-172.1,31.2-304.5-2.6c0,0,13.8-31.2-10-166.6c-13-73.9-16-215.3-4.9-230
		c11.1-14.8,77.8-30,102.2-34.5C2966,1257.8,3061.4,1260.7,3061.4,1260.7z"/>
	<g id="LAB_COAT">
		<path class="st2" d="M3057.5,1260.3c-2.9,17-35.5,402.9,6.5,594.9c0,0,68.2,9.3,138-16.9c0,0-39.6-241.3-42.1-281.5
			c-2.5-40.2,28.4-247.2,9.7-258.6C3107.7,1260.3,3057.5,1260.3,3057.5,1260.3z"/>
		<path class="st2" d="M2937.1,1262.9c0,0,9.3,366.5,11.4,590.3c0,0-67.3,16.8-125.3-9.4c0,0,22.8-270.9,23.1-305.4
			c0.3-34.5-17.6-238.7,2-249.1C2890.6,1267,2937.1,1262.9,2937.1,1262.9z"/>
	</g>
	<g id="HANDS">
		<g id="LEFT_HAND_2_">
			<path id="HAND_5_" class="st2" d="M2788.2,1632.8c75.9-40.4,123.7-365.5,72.3-348.2c-8.8,3-34.8,13.6-52.5,28.5
				c-41.3,34.8-82.4,175.5-94.3,218.7c-67.9,3.5-182.2,29.9-199.7,34.6c-18.3,4.9-15.2,74.7,4.2,75.1
				C2526.9,1641.6,2743.8,1652,2788.2,1632.8z"/>
			<path id="LINE_1_" class="st27" d="M2841.3,1558.4c4.1-25.4-4-67.1-5.6-127.6"/>
			<ellipse id="SHADOW_3_" class="st3" cx="2517.9" cy="1604.8" rx="15.5" ry="33.5"/>
			<path id="ARM_6_" class="st29" d="M2512.5,1622.9c-8,2.7-42.6,8.3-53.1,6c-10.5-2.3-32.5-22.3-34-25
				c-1.6-2.7-12.1-17.6-12.1-17.6s13.8-6.3,20.3,4.5c7.8,12.9,25.4,12.8,34.1,10.3c3.6-1,11.2-8,8.9-13.5c-2.2-5.5-17.9-2-21.9-3.8
				c-6.2-2.7-7.5-10.8-7.5-10.8s22.1-4.5,26.3-5.4c4.2-0.9,32.9,0.8,46.7,14.8C2528.6,1591.1,2527.1,1618,2512.5,1622.9z"/>
		</g>
		<g id="RIGHT_HAND_2_">
			<path id="TABLET" class="st8" d="M3103,1718.5l-138.8,38.9c-6.8,1.9-13.9-2.1-15.8-8.9l-58.8-209.6c-1.9-6.8,2.1-13.9,8.9-15.8
				l138.8-38.9c6.8-1.9,13.9,2.1,15.8,8.9l58.8,209.6C3113.8,1709.5,3109.8,1716.6,3103,1718.5z"/>
			<path id="HAND_4_" class="st2" d="M3250,1605.7c57.2-53.1-8.4-301.7-94.6-312.4c-8.8-1.1-27.4,5.6-28.7,61.1
				c-1.2,52.6,24.1,159.5,31.2,188.6c-54.2,26.9-139.2,100.6-154.8,109.2c-15.7,8.7,7.9,55.6,24.6,48.2
				C3036.6,1696.4,3201.9,1642.5,3250,1605.7z"/>
			<path id="LINE" class="st27" d="M2998.4,1660.8c0,0,69.3-69.1,159.3-117.9c0,0-18.3-67.4-24.4-118.9"/>
			<path id="ARM_5_" class="st29" d="M3009.6,1700.8c-7.8,3.1-43.7,13.3-54.2,11.9s-29.2-14.1-30.9-16.4c-1.7-2.3-7.7-22.2-7.7-22.2
				s7.4-5.7,14.4,3.7c8.3,11.2,23.8,8.9,32.3,6.1c3.5-1.2,10.7-6.1,8.3-10.9c-2.5-4.9-16.8-0.6-20.9-1.9c-6.3-2-8-9.4-8-9.4
				s20.7-5.7,24.8-6.8s29.8-0.1,46.2,9.1C3030.2,1673.3,3027.8,1693.7,3009.6,1700.8z"/>
		</g>
	</g>
	<g id="NAME_TAG">
		<path class="st0" d="M2922.5,1431.9H2852c-2.2,0-4-1.8-4-4v-38.7c0-2.2,1.8-4,4-4h70.5c2.2,0,4,1.8,4,4v38.7
			C2926.5,1430.1,2924.7,1431.9,2922.5,1431.9z"/>
		<rect x="2882.6" y="1368.3" class="st34" width="9.4" height="21.7"/>
		<g>
			<rect x="2857.5" y="1394.3" class="st3" width="17" height="20.4"/>
			<rect x="2879.9" y="1394.3" class="st3" width="36.5" height="4.7"/>
			<rect x="2879.9" y="1402.1" class="st3" width="36.5" height="4.7"/>
			<rect x="2879.9" y="1410" class="st3" width="36.5" height="4.7"/>
			<rect x="2857.5" y="1418" class="st3" width="59" height="4.7"/>
		</g>
	</g>
	<g id="HEAD_6_">
		<g id="NECK_3_">
			<path id="NECK_2_" class="st29" d="M3036.6,1179.7c0,0-8.5,40.1,21,80.5c0,0-51,26.1-120.4,2.6c0,0,40.9-14.1,23.4-81.5
				L3036.6,1179.7z"/>
			<path id="SHADOW_4_" class="st30" d="M3034.9,1179.8c0,2.7,0,4.9,0,6.5c0,0-3,30.4-18.7,45.3c-12.2,11.6-49.8,23.5-62.1,17.6
				c8-16.6,13.3-41,6.4-67.8L3034.9,1179.8z"/>
		</g>
		<path id="FACE" class="st29" d="M3035.8,1185.4c0,0-16.2,27.4-23.4,30.1c-18,6.8-46.9,12.7-56.5,7.8c-6.6-3.4-6.9-3.6-14.7-37.1
			c-5.5-23.9-0.1-73,3.6-75.1c3.6-2.1,80.4-7.3,84.3,0.7C3033,1119.7,3036.1,1172.8,3035.8,1185.4z"/>
		<g id="HAIR_3_">
			<path class="st33" d="M3035.3,1167.1c0,0-14.3,1-10.3-23.5c3.6-21.7-2.2-26.2-31.4-18c-23.7,6.7-58.5,5.4-71.4-14.1
				c-7.3-11.1-3.2-13.9,8.6-21.2c14.8-9.1,44-25.9,80.5-18.2c29.2,6.2,30.7,30.7,30.7,30.7s17.5-3.9,21.4,14.4
				c5,23.1-27.6,68.5-27.6,68.5L3035.3,1167.1z"/>
			<path class="st35" d="M3002.2,1121.4c-16.9,10.5-60.5,17.5-74.2,3.8"/>
			<path class="st35" d="M3041.2,1103.8c0,0,9.3-8.1,18.8-2.1"/>
			<path class="st33" d="M3024.8,1151.9c-3,16.2-12.7,50.6-29.7,38c-14.9-11-36.5-16.5-54.1-4.7c0,0,2.6,19.9,0,35.8
				c-3.3,20.2,71.5,11.3,83.4-8.1s9.3-35.2,11-45.8C3037.1,1156.5,3024.8,1151.9,3024.8,1151.9z"/>
		</g>
		<path id="EAR" class="st29" d="M3034.5,1167.1c0,0,7.7-8.9,14.8-2.8c5.3,4.6-13.4,21.8-13.4,21.8L3034.5,1167.1z"/>
		<circle class="st32" cx="2947.7" cy="1155.6" r="5.2"/>
		<circle class="st32" cx="2990.8" cy="1155.6" r="5.2"/>
		<polyline class="st36" points="2967.6,1151 2960.4,1175.8 2972.4,1175.8 		"/>
		<path class="st37" d="M2967.7,1198c0,0,10.9,2.6,15.8-8"/>
	</g>
</g>
<g id="OLD_WOMAN">
	<g id="LEGS_1_">
		<g id="RIGHT_LEG_2_">
			<path id="SHOE_2_" class="st13" d="M2129.7,2474.1c-11,0.6-24.9,25.4-13.8,60.9h5.7c0,0,1.2-23.2,11.9-23.5
				c12.3-0.3,18.3,23.5,29.5,23.5c12.8,0,55.2,0,55.2,0s-0.8-12-15.3-13.9c-31.4-4.1-35.2-40.4-35.2-40.4L2129.7,2474.1z"/>
			<path id="LEG_2_" class="st29" d="M2241.3,2305.1c0,0-79.8,120.6-73,180c3.1,27-34.3,7-42.8-18.4
				c-21.7-64.8-19.2-141.3-19.2-141.3S2181.4,2319.8,2241.3,2305.1z"/>
			<path id="SHADOW_1_" class="st30" d="M2241.3,2305.1c0,0-3.3,5-8.5,13.5c-30,8.1-75.1,18.2-126.5,22.9c-0.2-10.1,0-16.1,0-16.1
				S2181.4,2319.8,2241.3,2305.1z"/>
		</g>
		<g id="LEFT_LEG_2_">
			<path id="SHOE_3_" class="st13" d="M1897.7,2461.1c-10.9-1.5-29.3,20.2-25.2,57.2l5.6,1.1c0,0,5.6-22.6,16.1-20.8
				c12.1,2,13.5,26.5,24.5,28.7c12.6,2.4,54.2,6.4,54.2,6.4s1.5-12-12.4-16.6c-30-10-26.9-42.2-26.9-42.2L1897.7,2461.1z"/>
			<path id="LEG_3_" class="st29" d="M2029,2326.6c0,0-90.8,93-95.5,152.6c-2.1,27-35,0.4-38.5-26.2c-9-67.7,8.1-145.1,8.1-145.1
				S1966.5,2326.8,2029,2326.6z"/>
			<path id="SHADOW_2_" class="st30" d="M1903.1,2307.9c0,0,63.5,18.9,125.9,18.7c0,0-5.9,6.1-14.9,16.1
				c-38-2.7-76.7-9.8-113.2-23.8C1902.2,2311.9,1903.1,2307.9,1903.1,2307.9z"/>
		</g>
	</g>
	<g id="CANE">
		<path class="st38" d="M2335.8,1939.7c0-22.7,18.1-41.1,40.4-41.1l0,0c22.3,0,40.4,18.4,40.4,41.1V2535"/>
		<path class="st39" d="M2425.1,2535h-17.3c-3.5,0-6.2-2.5-5.3-5l4.1-12.7c0.8-2.4,3.6-4,6.9-4h6c3.3,0,6.1,1.7,6.9,4l4.1,12.7
			C2431.2,2532.5,2428.6,2535,2425.1,2535z"/>
	</g>
	<path id="ARM_4_" class="st29" d="M2353.2,1844.9c0.7,5.7,4.3,11.1,12.4,13.6c11,3.5,44.4,15.2,50.6,35.1c4,12.8,8.2,22.6,8.2,22.6
		s-9.4,3.7-16.4-4c-12.1-13.5-34.8-14.3-42.6-13.7c-7.9,0.6-29.5-4.4-39.9-32.9C2315.1,1837.1,2353.2,1844.9,2353.2,1844.9z"/>
	<g id="DRESS_1_">
		<path class="st8" d="M2141.3,1462.3c56.3,2.3,132.3,37.5,161.7,184.1s71.1,206.3,71.1,206.3l-45.3,31.4c0,0-82.1-30.2-107.8-68.7
			c0,0,20.9,100.9,46,198c40.5,156.9,4.2,284.2,4.2,284.2s-213.7,64.3-385.2,4.9c0,0-47.1-270.4-47.2-349.6
			C1838.5,1685.2,1929.4,1453.6,2141.3,1462.3z"/>
		<path class="st27" d="M2152.4,1677.5c0,0,0.3,74.9,75.9,150.9"/>
		<g class="st40">
			<circle class="st0" cx="2302.4" cy="1852.6" r="10.3"/>
			<circle class="st0" cx="2336.6" cy="1819.7" r="10.3"/>
			<circle class="st0" cx="2027.3" cy="1541.8" r="10.3"/>
			<circle class="st0" cx="2100.8" cy="1517" r="10.3"/>
			<circle class="st0" cx="2094.1" cy="1596.1" r="10.3"/>
			<circle class="st0" cx="2069.6" cy="1555.3" r="10.3"/>
			<circle class="st0" cx="2066.9" cy="1487.1" r="10.3"/>
			<path class="st0" d="M2020.2,1500c0,5.7-4.6,10.3-10.3,10.3c-5.4,0-9.8-4.1-10.3-9.4c5.1-3.5,10.3-6.8,15.7-9.8
				C2018.3,1493,2020.2,1496.3,2020.2,1500z"/>
			<circle class="st0" cx="2135.7" cy="1474.9" r="10.3"/>
			<circle class="st0" cx="2142.3" cy="1552.2" r="10.3"/>
			<circle class="st0" cx="2172.4" cy="1510.3" r="10.3"/>
			<path class="st0" d="M2219.4,1489.7c-1.9,2.4-4.8,3.9-8.1,3.9c-5.7,0-10.4-4.6-10.4-10.3c0-1.6,0.4-3.2,1.1-4.6
				C2207.9,1481.8,2213.7,1485.4,2219.4,1489.7z"/>
			<circle class="st0" cx="2231.3" cy="1534.6" r="10.3"/>
			<circle class="st0" cx="2196.4" cy="1565.7" r="10.3"/>
			<circle class="st0" cx="2142.3" cy="1619.1" r="10.3"/>
			<circle class="st0" cx="2094.1" cy="1665.3" r="10.3"/>
			<circle class="st0" cx="2033.7" cy="1608.8" r="10.3"/>
			<circle class="st0" cx="1979.1" cy="1555.3" r="10.3"/>
			<circle class="st0" cx="1973" cy="1615.2" r="10.3"/>
			<circle class="st0" cx="2009.9" cy="1667.8" r="10.3"/>
			<circle class="st0" cx="2193" cy="1629.5" r="10.3"/>
			<circle class="st0" cx="2241.6" cy="1586.4" r="10.3"/>
			<path class="st0" d="M2297.9,1623.8c-1.7,1.1-3.7,1.8-5.8,1.8c-5.7,0-10.3-4.6-10.3-10.4c0-5.7,4.6-10.3,10.3-10.3
				c0.2,0,0.4,0,0.5,0C2294.5,1610.9,2296.2,1617.2,2297.9,1623.8z"/>
			<circle class="st0" cx="2252" cy="1657.5" r="10.3"/>
			<circle class="st0" cx="2186.1" cy="1688.5" r="10.3"/>
			<circle class="st0" cx="2231.3" cy="1714.2" r="10.3"/>
			<circle class="st0" cx="2295.2" cy="1688.5" r="10.3"/>
			<circle class="st0" cx="2281.7" cy="1736.5" r="10.3"/>
			<circle class="st0" cx="2200.7" cy="1746.8" r="10.3"/>
			<circle class="st0" cx="2241.6" cy="1780.6" r="10.3"/>
			<circle class="st0" cx="2315.9" cy="1770.3" r="10.3"/>
			<circle class="st0" cx="2284.9" cy="1803.2" r="10.3"/>
			<circle class="st0" cx="2231.3" cy="1815.5" r="10.3"/>
			<circle class="st0" cx="2054.3" cy="1709.2" r="10.3"/>
			<circle class="st0" cx="1962.7" cy="1678.2" r="10.3"/>
			<circle class="st0" cx="1908.3" cy="1644.6" r="10.3"/>
			<path class="st0" d="M1934.6,1582.1c0,5.7-4.6,10.3-10.3,10.3c-2.3,0-4.4-0.7-6.1-2c3.6-6,7.3-11.8,11.1-17.4
				C1932.4,1574.8,1934.6,1578.2,1934.6,1582.1z"/>
			<circle class="st0" cx="2126.1" cy="1729.9" r="10.3"/>
			<circle class="st0" cx="2080.1" cy="1773.1" r="10.3"/>
			<circle class="st0" cx="2003.8" cy="1749.6" r="10.3"/>
			<circle class="st0" cx="1918.6" cy="1719.5" r="10.3"/>
			<circle class="st0" cx="1944.9" cy="1783.4" r="10.3"/>
			<circle class="st0" cx="1871.8" cy="1762.7" r="10.3"/>
			<circle class="st0" cx="1892.4" cy="1819.7" r="10.3"/>
			<circle class="st0" cx="2003.8" cy="1819.7" r="10.3"/>
			<circle class="st0" cx="1944.9" cy="1863" r="10.3"/>
			<circle class="st0" cx="2064.7" cy="1852.6" r="10.3"/>
			<circle class="st0" cx="2146.8" cy="1813.5" r="10.3"/>
			<circle class="st0" cx="2200.7" cy="1842.3" r="10.3"/>
			<circle class="st0" cx="2124.6" cy="1873.3" r="10.3"/>
			<circle class="st0" cx="2016.9" cy="1895.4" r="10.3"/>
			<circle class="st0" cx="2075" cy="1921.2" r="10.3"/>
			<circle class="st0" cx="1968.8" cy="1916.8" r="10.3"/>
			<circle class="st0" cx="1897.9" cy="1887.5" r="10.3"/>
			<path class="st0" d="M1856.9,1867.1c0,5.7-4.6,10.4-10.3,10.4c-1.9,0-3.7-0.5-5.3-1.4c0.4-6.2,0.9-12.4,1.4-18.5
				c1.2-0.5,2.5-0.7,3.8-0.7C1852.2,1856.8,1856.9,1861.4,1856.9,1867.1z"/>
			<circle class="st0" cx="1866.9" cy="1941.9" r="10.3"/>
			<circle class="st0" cx="1930.8" cy="1968.7" r="10.3"/>
			<circle class="st0" cx="2020.2" cy="1974.1" r="10.3"/>
			<circle class="st0" cx="1979.1" cy="2013.5" r="10.3"/>
			<circle class="st0" cx="2175.8" cy="1897.8" r="10.3"/>
			<circle class="st0" cx="2121.6" cy="1964.6" r="10.3"/>
			<circle class="st0" cx="2206.8" cy="1949.8" r="10.3"/>
			<circle class="st0" cx="2172.4" cy="2009.8" r="10.3"/>
			<circle class="st0" cx="2069.7" cy="2013.5" r="10.3"/>
			<circle class="st0" cx="2115.8" cy="2056.8" r="10.3"/>
			<circle class="st0" cx="2236.9" cy="2009.8" r="10.3"/>
			<circle class="st0" cx="2190.3" cy="2079.1" r="10.3"/>
			<circle class="st0" cx="2020.2" cy="2073" r="10.3"/>
			<circle class="st0" cx="1924.2" cy="2033.8" r="10.3"/>
			<circle class="st0" cx="1866.9" cy="2013.5" r="10.3"/>
			<circle class="st0" cx="1889.3" cy="2089.4" r="10.3"/>
			<circle class="st0" cx="1958.4" cy="2119.9" r="10.3"/>
			<circle class="st0" cx="2069.7" cy="2114.9" r="10.3"/>
			<circle class="st0" cx="2023.3" cy="2156.6" r="10.3"/>
			<circle class="st0" cx="1913.9" cy="2146.2" r="10.3"/>
			<path class="st0" d="M1882.1,2195.7c0,5.7-4.6,10.3-10.3,10.3c-0.6,0-1.2-0.1-1.9-0.2c-1-6.3-2-12.7-3-19.3
				c1.5-0.8,3.1-1.2,4.9-1.2C1877.5,2185.4,1882.1,2190,1882.1,2195.7z"/>
			<circle class="st0" cx="1958.4" cy="2206.1" r="10.3"/>
			<circle class="st0" cx="1913.9" cy="2242.6" r="10.3"/>
			<circle class="st0" cx="2018.7" cy="2227.1" r="10.3"/>
			<circle class="st0" cx="1968.8" cy="2278.9" r="10.3"/>
			<circle class="st0" cx="2059.4" cy="2271.5" r="10.3"/>
			<circle class="st0" cx="2142.3" cy="2140.6" r="10.3"/>
			<circle class="st0" cx="2090.4" cy="2195.7" r="10.3"/>
			<circle class="st0" cx="2200.7" cy="2164" r="10.3"/>
			<circle class="st0" cx="2252" cy="2104.6" r="10.3"/>
			<path class="st0" d="M2285.9,2180.7c-0.1,5.4-0.3,10.6-0.6,15.8c-1.8,1.4-4,2.2-6.4,2.2c-5.7,0-10.4-4.6-10.4-10.3
				c0-5.7,4.6-10.3,10.4-10.3C2281.6,2178,2284.1,2179,2285.9,2180.7z"/>
			<circle class="st0" cx="2231.3" cy="2227.1" r="10.3"/>
			<circle class="st0" cx="2152.7" cy="2227.1" r="10.3"/>
			<circle class="st0" cx="2190.3" cy="2281.9" r="10.3"/>
			<circle class="st0" cx="2115.8" cy="2289.3" r="10.3"/>
			<path class="st0" d="M1898.8,2292.1c0,5.7-4.6,10.3-10.4,10.3c-0.9,0-1.8-0.1-2.6-0.3c-0.3-1.8-1.5-8.4-3.2-18.5
				c1.7-1.1,3.7-1.8,5.8-1.8C1894.2,2281.7,1898.8,2286.4,1898.8,2292.1z"/>
			<circle class="st0" cx="2026.9" cy="2309.3" r="10.3"/>
		</g>
	</g>
	<g id="HEAD_4_">
		<path id="HEAD_5_" class="st29" d="M2176.8,1352.3c6.8,37.3,37.4,64.3,22.6,90.9c-18.7,33.6-88.9,34.7-108,18.9
			c-35.6-29.4-24.9-105.1,13-115.6C2142.3,1336,2176.8,1352.3,2176.8,1352.3z"/>
		<g id="GLESSES">
			
				<ellipse transform="matrix(0.9847 -0.1745 0.1745 0.9847 -208.7212 405.7386)" class="st41" cx="2203.3" cy="1390" rx="4.9" ry="17.6"/>
			<circle class="st33" cx="2174.1" cy="1394.7" r="4.8"/>
			<path class="st42" d="M2160.5,1423.2c0,0,11.5,8.6,32.1,0"/>
			<path class="st42" d="M2204.4,1374.5"/>
			<line class="st43" x1="2143.2" y1="1401.7" x2="2206" y2="1388.6"/>
		</g>
		<path id="HAIR_2_" class="st2" d="M2135.6,1365.8c0,0,58.2,11,70.3-14.6c12.1-25.5-32-32.4-32-32.4s1.2-35.1-42.7-35.2
			c-42.1-0.1-42,33.7-46.8,30.5c-6.2-4-18.9,1.2-21.2,9.2c0,0-30.6-12.1-45.6,11.8c-15,23.9,3.5,39.5,3.5,39.5s-8.7,2.3-6.7,11
			c2,8.6-30.8,20.8-18.1,43.8c12.7,23.1,42.1,17,42.1,17s-0.2,28.2,31.3,26.5c31.4-1.7,40.9-28.5,33.9-44.1
			c-7-15.6,20.1,2.3,37.4-20.8C2158.4,1385.1,2135.6,1365.8,2135.6,1365.8z"/>
		<path class="st42" d="M2182,1399.5c0,0-8.6,8-12.6,10.6"/>
	</g>
</g>
<g id="MOTHER__x26__CHILD">
	<g id="RIGHT_HAND">
		<path id="HAND_1_" class="st29" d="M1470.8,1917.5c4.5,9.5-159.1,22.6-203.5,7.8c-37.2-12.5-93.5-191.3-86.5-207.6
			c6.8-16,35.7-24.1,50.3,2.8c10.9,20.2,45.5,110.9,60.4,159C1291.5,1879.5,1463.2,1901.3,1470.8,1917.5z"/>
		<path id="ARM_1_" class="st29" d="M1451.1,1913.1c2.3-6.6,26.8-3.2,36.7-2.5c10,0.7,25.4,5.4,28,6.9c6.2,3.5,10.1,13.9,10.1,13.9
			s-1.1,1.5-9.1-2.6c-7.6-3.9-23.6-2.4-26.9-0.3c-7.4,4.9,9.6,5.7,11.7,8.7s1.1,4.9,1.1,4.9s-17.7-0.6-20.4-0.8
			c-2.7-0.2-12-4.1-17.5-8.5C1459.4,1928.6,1448.4,1920.8,1451.1,1913.1z"/>
	</g>
	<path id="DRESS" class="st13" d="M1317.1,2144.1c-57.5,1.1-71.3,1.4-106.9,1.5c-5.4,0-10.6-0.2-15.5-0.6c-30,0.4-55.8,0.5-77.7,0.6
		c-103,0.2-119.2-66.2-118.3-99.2c-0.7-40.6,37.8-102.1,48.3-137.2c5-16.7-10.9-81.2-23-133.8c-12.3-53.3,7-72.5,40.1-80.8
		c36.9-9.2,84.7-6.8,96-5.3c35.7,4.7,41.8,8.4,58.2,17.2c8.2,4.4,10.2,89.9,12.6,112.3c2.4,22.4-9.4,35.9-23.4,45.1
		c-4,2.6-15.4,16.8-12.2,49.6c1.6,16.2,11.7,41.3,20.2,63.5c56.3,13.2,115.7,44,141.8,55.7
		C1413.3,2057.9,1393.7,2142.6,1317.1,2144.1z"/>
	<g id="LEGS">
		<g id="RIGHT_LEG">
			<path id="LEG_1_" class="st29" d="M1410.3,2403.2c5.1,36.6,21.4,40.8,20,41.4c-37.8,17.8-45-26.4-49.1-34
				c-17-31.2-50.3-112.9-70.4-188.5c-16.4-61.5-3.2-103.6,7.5-136.1c12.5-37.9,62.3-71.3,71-10.6
				C1393.7,2106.1,1380.8,2192.3,1410.3,2403.2z"/>
			<path id="SHOE_1_" class="st33" d="M1368.6,2462.4c0,0-15.2-52.6,5.1-60.7c6.5-2.6,14.4,3.9,16.5,26.1
				c1.8,19.4,30.1,22.4,32.8,9.8c0,0,34.7,7,34.7,24.7H1368.6z"/>
		</g>
		<g id="LEFT_LEG">
			<path id="LEG" class="st29" d="M1302.4,2092.2c-8.4,42-15.6,53.8-35.9,121.4c-7.4,24.5-39.7,131.1-54.2,196.3
				c-3.7,16.5,46.7,44.6-22.1,37.1c-3.8-0.4,4.5-26.7,1.3-48.7c-7.1-48.2-13.5-136.3-10.8-204.3c2.6-64.8,41.9-104.8,64.8-131.1
				C1269.3,2035.6,1315.7,2025.6,1302.4,2092.2z"/>
			<path id="SHOE" class="st33" d="M1192.1,2409.7c-5.4,0-14.9,9.8-14.1,25.4c0.9,15.6,5.7,27.2,5.7,27.2h60.7
				c-1.1-16.8-19-24.7-19-24.7c-15.7-2.5-36,12.4-33.8-10.8L1192.1,2409.7z"/>
		</g>
	</g>
	<g id="CHILD">
		<g id="RIGHT_HAND_1_">
			<path id="ARM_3_" class="st29" d="M1215.2,1896.6c2.3,0.8,10.9,2.6,15.2,6.9c2.1,2.1,3.7,10.3,3.7,11c0,0.8-0.7,4.7-0.7,4.7
				s-3.3,0.2-3.2-3c0.1-3.8-3.7-6.3-6.1-7.2c-1-0.4-2-1.4-2.3,0s2.4,3,3.1,4c1,1.5,0.2,3.3,0.2,3.3s-5.8-1.6-6.9-2.1
				c-1.1-0.5-7-6.4-9.1-11.2C1207,1898.2,1210,1894.8,1215.2,1896.6z"/>
			<path id="HAND_3_" class="st29" d="M1171.3,1817.1c-11.8,3.6-11.3,34.6,1.5,61.8c12.8,27.3,45.6,29.1,45.6,25.8
				c0-5.8-12.5-28.7-14.6-34.5C1194.8,1845.5,1190.8,1811.2,1171.3,1817.1z"/>
		</g>
		<g id="RIGHT_LEG_1_">
			<path class="st3" d="M1134.4,1924.2c4.3-7.7,10.3-13.5,60.8-11.7c58.5,2.1,90.3,54.6,80.3,75.7c-3.2,6.7-15.1,1.6-76.5-6.1
				C1162.9,1977.6,1115.5,1958.6,1134.4,1924.2z"/>
			<path class="st44" d="M1266.8,1980.8c1.8,11,6.5,19.9,11.6,19.5c5.3-0.4,10.4-10,12.1-21.1c1.5-9.8-0.6-20.5-18.2-23.4
				C1264.7,1954.6,1264.8,1968.9,1266.8,1980.8z"/>
		</g>
		<path id="BODY" class="st2" d="M1178.8,1814.7c6.6,7.3,20.3,43.6,16.4,115.6c-3.1,57.3-27,62-34.4,62.5
			c-42.7,2.8-63.6-24.6-66.8-46.8c-8.6-59-0.6-111.5,35.2-136.6C1141.5,1800.8,1170.8,1805.9,1178.8,1814.7z"/>
		<g id="HEAD_3_">
			<path id="HAIR_1_" class="st33" d="M1128.4,1779.8c0,0,45.3,6.4,53.9-13.8c6.8-15.8-44.3-38.6-63.6-0.2c0,0-16,3.3-14.7,23.2
				s20.8,21.4,20.8,21.4l-1.1-10.4C1123.8,1800,1132.2,1798,1128.4,1779.8z"/>
			<path id="HEAD_2_" class="st29" d="M1179.6,1815c-20,23.8-49.6-0.1-54.1-4.1c-1-0.1-11.6-1-10.6-6.5c0.9-5,7.6-4.7,9.2-4.5
				c1.4-0.5,7.7-3.8,4.4-20.1c0,0,34.4,4.9,49-7.3C1186.1,1785.9,1188.9,1803.9,1179.6,1815z"/>
		</g>
		<g id="LEFT_HAND_1_">
			<path id="ARM_2_" class="st29" d="M1162.4,1904c1.8,1.9,13.2,13.2,16.3,14.2c3.1,1.1,10.7-0.6,11.4-1c0.7-0.4,4.2-2.8,4.2-2.8
				s-1.4-3.3-4.4-1.8c-3.6,1.8-7.9-0.7-9.8-2.6c-0.8-0.8-1.7-2.9-0.5-3.8c1.3-0.9,4.5,2,5.8,2.2c2,0.3,3.3-1.4,3.3-1.4
				s-5.3-4.4-6.3-5.3c-1-0.8-9.5-3.9-15.1-3.6C1161.7,1898.4,1158.3,1899.7,1162.4,1904z"/>
			<path id="HAND_2_" class="st29" d="M1123.7,1822.4c-12.4,0-27.3,43.2-14.4,70.5s69.2,16.1,69.2,12.7c0-5.8-39.1-20.7-39.2-26.9
				C1139,1872.6,1145.3,1822.4,1123.7,1822.4z"/>
		</g>
		<g id="LEFT_LEG_1_">
			<path class="st2" d="M1101.1,1934.9c4.3-7.7,2.3-14.5,72.7-11.7c58.5,2.4,78.5,54.6,68.5,75.7c-3.2,6.7-14.2-16.2-77.6-6.1
				C1128.7,1998.6,1082.1,1969.4,1101.1,1934.9z"/>
			<path class="st44" d="M1255.8,1983.7c-4.3,11.1-11,19.4-16.2,17.9c-5.5-1.5-8.7-12.7-8.1-24.6c0.5-10.5,5-21.3,24-20.5
				C1263.6,1956.9,1260.3,1971.8,1255.8,1983.7z"/>
		</g>
	</g>
	<g id="LEFT_HAND">
		<path id="HAND" class="st29" d="M1168.9,1931.9c0,7.8-155.1,16.3-198.6-5.6c-5-2.5-8.1-5.8-9.5-9.5c0,0,0-0.1,0-0.1
			c-3.3-7.4-3.7-19.1,1.2-36.3c42.4-147.9,57.6-157.6,72.9-171.8c12.7-11.8,42.8,4.7,36.5,34.6c-4.5,21.6-35.9,97.1-56.4,140.6
			C1055.1,1890.4,1168.9,1919.9,1168.9,1931.9z"/>
		<g id="ARM">
			<path class="st29" d="M1233.9,1943.5c0,0-2.5,2.9-6.4,0.9c-2.6-1.4-7.4-5.1-10.7-6.5c4.2,4.8,8.4,9.9,8.4,9.9s-5,3.3-12.9,3.5
				c-3.8,0.1-9.8-5.1-15.3-7.9c-5.5-2.9-13.4,2.2-22.6,3.8c-9.2,1.6-19.7-10.9-19.7-10.9l2-12.3c14.9-0.9,41.4,2.8,51.1,5.4
				c0,0,0,0,0,0c4.3,0.5,12.2,2.8,14.9,4.6C1225.9,1935.8,1233.9,1943.5,1233.9,1943.5z"/>
			<path class="st45" d="M1221,1948.1c0,0-11.9-12-15.1-12.9c-5.7-1.7-13.1-3.9-13.1-3.9"/>
			<path class="st45" d="M1215,1950.2c0,0-10.3-10.6-13.5-11.5c-5.7-1.7-13.1-3.9-13.1-3.9"/>
		</g>
	</g>
	<g id="BAG">
		<path class="st6" d="M1566.3,2141.6h-92.7c-37.4,0-65.1-34.8-56.7-71.3l18.7-66.1c1.3-5.8,6.5-9.8,12.4-9.8h144
			c5.9,0,11,4.1,12.4,9.8l18.7,66.1C1631.4,2106.8,1603.7,2141.6,1566.3,2141.6z"/>
		<path class="st5" d="M1576.1,1984.8c0,3.3-0.3,6.4-0.9,9.5h-110.4c-0.6-3.1-0.9-6.3-0.9-9.5c0-29.5,25.1-53.3,56.1-53.3
			C1550.9,1931.5,1576.1,1955.4,1576.1,1984.8z"/>
		<path class="st6" d="M1601.2,1998.4c-1.9,43.1-38.3,77.5-81.3,77.5c-41.8,0-79.4-34.4-81.2-77.5c2.3-2.5,5.7-4,9.3-4h144
			C1595.5,1994.4,1598.9,1995.9,1601.2,1998.4z"/>
		<rect x="1514.4" y="2063.3" class="st6" width="11.2" height="26.4"/>
	</g>
	<g id="HEAD">
		<g id="HAIR">
			<path class="st33" d="M1164.1,1529.4c-8.4,1-33-22.2-66.2,3.5c-33.1,25.7-46.1,69.1-49.2,76.5c-0.8,1.9,15.2,58,91.8,66.6
				c69.4,7.8,90.8-9.9,90.8-9.9s-17.9-35-14-70.2C1220.8,1563.5,1214.7,1523.3,1164.1,1529.4z"/>
			<path class="st46" d="M1239.5,1661.5c0,0-20.5-30.5-15.9-65.6c4.8-36.2-11-74.2-62.3-63.7"/>
		</g>
		<g id="NECK_1_">
			<path id="NECK" class="st29" d="M1106.5,1606.6c0,0,12.3,61.2-27.1,85.3c0,0,57.6,44,107.4,3.5c0,0-37.3-12.5-32.5-88.8H1106.5z"
				/>
			<path id="SHADOW" class="st30" d="M1106.5,1606.6c0,0,0.4,2.1,0.8,5.6c0.3,1.2,0.5,1.9,0.5,1.9c0,7.5,16.3,52.3,53.6,52.1
				c0.1,0-3.6-12-3.6-12c-3.1-11.9-4.8-27.4-3.5-47.5H1106.5z"/>
		</g>
		<path id="HEAD_1_" class="st29" d="M1188.3,1607.6c-1.5,10.5-14,42.2-24.6,42c-23.5-0.3-56-26.9-55.9-34.3
			c-7.1-1.7-20.9-18.2-14.8-23c7.4-5.9,11.8-0.2,12.4,0.7c0.1,0,0.1,0,0.2,0c31.6-1,25.3-47.1,51.6-47.1c24.5,0,31.1,17.6,31.7,26.3
			C1189.2,1577.5,1190.6,1592.3,1188.3,1607.6z"/>
	</g>
	<circle class="st32" cx="1150.3" cy="1585.5" r="4"/>
	<circle class="st32" cx="1181.1" cy="1586.8" r="4"/>
	<line class="st47" x1="1168.4" y1="1587.6" x2="1171.7" y2="1604.3"/>
	<circle class="st32" cx="1152.9" cy="1789.7" r="2.8"/>
	<circle class="st32" cx="1176.7" cy="1784.3" r="2.8"/>
	<path class="st47" d="M1150.3,1613.9c0,0,6.5,6.2,19.8,4.2"/>
	<path class="st31" d="M1168.1,1790.2c0,0,5.8-1.2,4.6,5.8"/>
	<path class="st47" d="M1159.1,1801.2c0,0,3.9,4,11.3,2.1"/>
</g>
</svg>
