<svg id="Layer_1" data-name="Layer 1" xmlns="http://www.w3.org/2000/svg" viewBox="0 0 1200 1200"><defs><style>.cls-1{fill:#fff;}.cls-1,.cls-4,.cls-5,.cls-6{stroke:#88bed7;stroke-width:4.19px;}.cls-1,.cls-4,.cls-5{stroke-miterlimit:10;}.cls-2{fill:#88bed7;}.cls-3{fill:#e4effd;}.cls-4,.cls-5,.cls-6{fill:none;}.cls-5,.cls-6{stroke-linecap:round;}.cls-6{stroke-linejoin:round;}</style></defs><g id="THERMOMETER"><path class="cls-1" d="M600,33.62a19.12,19.12,0,0,1,19.12,19.11v124.2c0,77.25,16.81,154,42.08,227l2.14,6.18A694,694,0,0,1,701.5,637v500.64a50.71,50.71,0,0,1-50.71,50.72H549.22a50.72,50.72,0,0,1-50.72-50.72V637a693.78,693.78,0,0,1,38.17-227l2.13-6.18c25.27-73,42.09-149.7,42.09-226.95V52.73A19.12,19.12,0,0,1,600,33.62Z"/><path class="cls-2" d="M600,33.62a19.12,19.12,0,0,1,19.12,19.11v81.86H580.89V52.73A19.12,19.12,0,0,1,600,33.62Z"/><rect class="cls-3" x="514.67" y="876.29" width="186.34" height="77.04" rx="19.11" transform="translate(-306.97 1522.65) rotate(-90)"/><rect class="cls-4" x="506.83" y="884.92" width="186.34" height="77.04" rx="19.11" transform="translate(-323.44 1523.44) rotate(-90)"/><circle class="cls-3" cx="606.28" cy="628.46" r="22.97"/><circle class="cls-4" cx="600" cy="634.73" r="22.97"/><path class="cls-4" d="M531.51,425.34a72.19,72.19,0,0,1,136.11-2.45"/><path class="cls-5" d="M576.88,989.29V967.2a2.9,2.9,0,0,1,2.89-2.9H599a2.9,2.9,0,0,1,2.9,2.9v22.09"/><path class="cls-5" d="M601.87,989.29V967.2a2.89,2.89,0,0,1,2.89-2.9H624a2.89,2.89,0,0,1,2.89,2.9v22.09"/><path class="cls-5" d="M576.88,924.3v22.09a2.89,2.89,0,0,0,2.89,2.89H599"/><path class="cls-5" d="M626.85,927v19.37a2.89,2.89,0,0,1-2.89,2.89h-19.2a2.89,2.89,0,0,1-2.89-2.89V927a2.72,2.72,0,0,1,2.72-2.72h19.54A2.72,2.72,0,0,1,626.85,927Z"/><path class="cls-5" d="M576.88,856.84v22.09a2.9,2.9,0,0,0,2.89,2.9H599"/><path class="cls-5" d="M626.85,859.56v19.37a2.89,2.89,0,0,1-2.89,2.9h-19.2a2.89,2.89,0,0,1-2.89-2.9V859.56a2.72,2.72,0,0,1,2.72-2.72h19.54A2.72,2.72,0,0,1,626.85,859.56Z"/><rect class="cls-6" x="620.6" y="898.82" width="6.25" height="6.25" transform="translate(-278.22 1525.67) rotate(-90)"/></g></svg>