<svg id="Layer_1" data-name="Layer 1" xmlns="http://www.w3.org/2000/svg" viewBox="0 0 1200 1200"><defs><style>.cls-1,.cls-5,.cls-8{fill:#fff;}.cls-2{fill:#e4effd;}.cls-3{fill:#cbe1fd;}.cls-4,.cls-6,.cls-7{fill:none;}.cls-4,.cls-5{stroke:#88bed7;}.cls-4,.cls-5,.cls-6,.cls-7,.cls-8{stroke-miterlimit:10;}.cls-4,.cls-5,.cls-6{stroke-width:2.62px;}.cls-6{stroke:#6562ce;}.cls-7,.cls-8{stroke:#efaf00;stroke-width:3.14px;}</style></defs><g id="MEDICAL_KIT" data-name="MEDICAL KIT"><path class="cls-1" d="M1140.44,274.49V948.32c0,22.64-17.76,41-39.67,41H86.65C64.74,989.32,47,971,47,948.32V274.49c0-22.64,17.76-41,39.67-41H1100.77C1122.68,233.49,1140.44,251.85,1140.44,274.49Z"/><path class="cls-2" d="M1067.86,289.21V963c0,22.64-17.77,41-39.67,41H97.44c-21.92,0-39.67-18.35-39.67-41V289.21c0-22.65,17.75-41,39.67-41h930.75C1050.09,248.21,1067.86,266.56,1067.86,289.21Z"/><path class="cls-3" d="M1152.1,289.21V963c0,22.65-17.77,41-39.67,41h-89.58c-21.91,0-39.67-18.35-39.67-41V289.21c0-22.65,17.76-41,39.67-41h89.58C1134.33,248.21,1152.1,266.56,1152.1,289.21Z"/><path class="cls-4" d="M1140.44,273.51V947.34c0,22.64-17.76,41-39.67,41H86.65C64.74,988.34,47,970,47,947.34V273.51c0-22.64,17.76-41,39.67-41H1100.77C1122.68,232.51,1140.44,250.87,1140.44,273.51Z"/><path class="cls-4" d="M1140.44,273.51V947.34c0,22.64-17.76,41-39.67,41h-89.22c-21.91,0-39.67-18.36-39.67-41V273.51c0-22.64,17.76-41,39.67-41h89.22C1122.68,232.51,1140.44,250.87,1140.44,273.51Z"/><path class="cls-5" d="M671.74,556.45v81.63a10.48,10.48,0,0,1-10.48,10.48H596a10.49,10.49,0,0,0-10.48,10.49v65.26A10.49,10.49,0,0,1,575,734.8H493.4a10.49,10.49,0,0,1-10.49-10.49V659.05a10.49,10.49,0,0,0-10.48-10.49H407.17a10.49,10.49,0,0,1-10.49-10.48V556.45A10.49,10.49,0,0,1,407.17,546h65.26a10.48,10.48,0,0,0,10.48-10.48V470.22a10.49,10.49,0,0,1,10.49-10.49H575a10.49,10.49,0,0,1,10.49,10.49v65.26A10.48,10.48,0,0,0,596,546h65.27A10.49,10.49,0,0,1,671.74,556.45Z"/><line class="cls-4" x1="1058.7" y1="233.49" x2="1058.7" y2="988.43"/></g><g id="STETHOSCOPE"><path class="cls-6" d="M678.47,221.3h0a72.25,72.25,0,0,1,72.25-72.25h6.95l1.53,0a68.36,68.36,0,0,1,55.43,31l14.9,22.59"/><path class="cls-7" d="M961.26,520.29c-21.3,13-48.7,8.5-63.81-10.53l-96.3-121.21c-47.3-60.37-29.85-149.25,37.39-190.35h0c67.23-41.09,154.29-16.09,186.44,53.54l64,141c10,22.12,1.57,48.57-19.73,61.59"/><rect class="cls-8" x="955.12" y="501.33" width="34.76" height="24.39" rx="9.09" transform="matrix(0.85, -0.52, 0.52, 0.85, -125.09, 582.53)"/><rect class="cls-8" x="1040.88" y="448.91" width="34.76" height="24.39" rx="9.09" transform="matrix(0.85, -0.52, 0.52, 0.85, -85.17, 619.57)"/><path class="cls-7" d="M812.89,403.32s-26.84-100.29,58-152.15c83.54-51.06,161.87,17.75,161.87,17.75"/><path class="cls-6" d="M572.72,221.3V215a68.85,68.85,0,0,0-68.85-68.84h0A68.84,68.84,0,0,0,435,215v98.55"/><circle class="cls-1" cx="442.58" cy="365.08" r="45.9"/><circle class="cls-7" cx="435.97" cy="359.48" r="45.9"/><circle class="cls-7" cx="435.97" cy="359.18" r="30.49"/></g></svg>