<svg id="Layer_1" data-name="Layer 1" xmlns="http://www.w3.org/2000/svg" viewBox="0 0 1853 2434"><defs><style>.cls-1{fill:#6464c8;}.cls-2,.cls-21,.cls-23,.cls-24,.cls-25,.cls-26,.cls-27,.cls-32,.cls-4{fill:#fff;}.cls-19,.cls-2,.cls-25,.cls-32{stroke:#6464c8;}.cls-13,.cls-15,.cls-19,.cls-2,.cls-22,.cls-23,.cls-24,.cls-25,.cls-26,.cls-27,.cls-3,.cls-31,.cls-32,.cls-4{stroke-miterlimit:10;}.cls-19,.cls-2,.cls-22,.cls-23,.cls-24,.cls-4{stroke-width:7.4px;}.cls-13,.cls-15,.cls-18,.cls-19,.cls-22,.cls-3{fill:none;}.cls-3{stroke:#6464c6;}.cls-13,.cls-3{stroke-width:8.88px;}.cls-4{stroke:#e3b03d;}.cls-5{fill:#d28e46;}.cls-6{fill:#94bcd3;}.cls-7{fill:#cfe0f9;}.cls-8{fill:#c97c2d;}.cls-9{fill:#c5d7f9;}.cls-10{fill:#d1e2fb;}.cls-11{fill:#e38e32;}.cls-12,.cls-31{fill:#e7f0fd;}.cls-13{stroke:#fff;}.cls-14{fill:#e5b21a;}.cls-15,.cls-24,.cls-26{stroke:#e5b21a;}.cls-15{stroke-width:5.92px;}.cls-16{fill:#d49046;}.cls-17{fill:#cb7c2d;}.cls-18{stroke:#40465c;stroke-linecap:round;stroke-linejoin:round;stroke-width:4.44px;}.cls-20{fill:#40465c;}.cls-22,.cls-23,.cls-27,.cls-31{stroke:#96bed5;}.cls-25{stroke-width:7.41px;}.cls-26,.cls-27,.cls-31,.cls-32{stroke-width:6.89px;}.cls-28{fill:#91882a;}.cls-29{fill:#cbc253;}.cls-30{fill:#96bed5;}</style></defs><g id="RECEPTION"><g id="SECRETARY"><g id="CHAIR"><path class="cls-1" d="M1717.39,1552.1l-62.2,203.22c-12.93,42.26-48.94,70.72-89.47,70.72H1213.81c-40.53,0-76.54-28.46-89.48-70.72l-51.15-167.15c-8.92-29.13,10.78-59.3,38.72-59.3h39.4c18.56,0,34.29-15,36.88-35.26l23-179.29c5.48-42.81,38.78-74.64,78.07-74.64h316.89c47.89,0,84.73,46.59,78.08,98.78l-19.71,154.68c-2.4,18.88,10.92,35.73,28.25,35.73h9.51C1713.16,1528.87,1720.88,1540.69,1717.39,1552.1Z"/><rect class="cls-2" x="1362.57" y="1820.58" width="51.58" height="383.43"/><path class="cls-3" d="M1529,2255.05v-17.78c0-18.37-21.12-33.27-47.17-33.27H1298c-26,0-47.17,14.9-47.17,33.27v17.78"/><circle class="cls-4" cx="1251.81" cy="2291.23" r="36.18"/><circle class="cls-4" cx="1528.35" cy="2291.23" r="36.18"/></g><g id="LEGS"><g id="LEFT_LEG" data-name="LEFT LEG"><path id="FOOT" class="cls-5" d="M935,2148.06c-4.63,17.38-21.44,76.81-15.41,98.13s22.93,37,18.27,58.74c-5,23.15-140.77,8.51-144.94,7.58s72.11-43.28,73-74.79-9.16-89.66-9.16-89.66Z"/><g id="SHOES"><rect class="cls-6" x="763.97" y="2314.65" width="182.3" height="14.47" rx="7.23" transform="translate(1710.24 4643.76) rotate(180)"/><path class="cls-7" d="M891.4,2315.57s-17.64-21.5-42.49-27.82c-27.24-6.93-40.45-3.24-55.14,4.19-14.23,7.19-22.19,22.71-22.19,22.71Z"/><path class="cls-7" d="M892,2315.24s-1.5-50.39,31.82-56.94c0,0,32,28.56,14.3,56.94Z"/></g><path id="SHADOW" class="cls-8" d="M935,2148.06H856.77s1.93,11.18,4,26.38c28.46,2.68,57.71-6.76,70.18-11.48C932.6,2156.74,934,2151.55,935,2148.06Z"/><path id="PANT" class="cls-9" d="M1119.15,1805.84c-43.22-.07-87.53-.43-146-1.31,7.17,50.34,14.63,112.89,13.49,164.19-1.08,48.34-11,54.86-10.6,75.22.68,32.73-21.13,43.58-14.08,67,11.86,39.2-27,37.15-27,37.15s-50.87,9.37-89.44,0l-39.4-405c-11.33-37.64,38.38-83,87.47-105,84.51-37.85,405.17-182.56,447.18-50.28C1351.91,1623,1316.05,1806.18,1119.15,1805.84Z"/></g><g id="RIGHT_LEG" data-name="RIGHT LEG"><path id="FOOT-2" data-name="FOOT" class="cls-5" d="M1173.33,2148.06c-4.63,17.38-21.43,76.81-15.41,98.13s22.93,37,18.28,58.74c-5,23.15-140.77,8.51-144.94,7.58s72.1-43.28,73-74.79-9.15-89.66-9.15-89.66Z"/><g id="SHOES-2" data-name="SHOES"><rect class="cls-6" x="1002.34" y="2314.65" width="182.3" height="14.47" rx="7.23" transform="translate(2186.99 4643.76) rotate(180)"/><path class="cls-7" d="M1129.78,2315.57s-17.65-21.5-42.5-27.82c-27.23-6.93-40.45-3.24-55.14,4.19-14.23,7.19-22.19,22.71-22.19,22.71Z"/><path class="cls-7" d="M1130.38,2315.24s-1.51-50.39,31.81-56.94c0,0,32,28.56,14.3,56.94Z"/></g><path id="SHADOW-2" data-name="SHADOW" class="cls-8" d="M1173.33,2148.06h-78.19s1.94,11.18,4,26.38c28.47,2.68,57.72-6.76,70.19-11.48C1171,2156.74,1172.4,2151.55,1173.33,2148.06Z"/><path id="PANT-2" data-name="PANT" class="cls-7" d="M1327.91,1805.84c-43.22-.07-87.53-.43-146-1.31,7.17,50.34,14.63,112.89,13.49,164.19-1.08,48.34,3.78,54.86,4.21,75.22.68,32.73-6.33,43.58.72,67,11.86,39.2-27,37.15-27,37.15s-50.87,9.37-89.44,0l-69-405c-11.32-37.64,8.77-83,57.86-105,84.52-37.85,394.62-215.18,445.7-16.23C1527.58,1657.58,1524.82,1806.18,1327.91,1805.84Z"/></g></g><g id="LEFT_HAND" data-name="LEFT HAND"><path class="cls-10" d="M1205.75,1103c5.37,33.61,31.14,51.72-63.4,284.62-35.86,88.36-108.54,46.2-103.19.85s64.81-222.77,85.23-264.09C1146.53,1079.56,1201.28,1075,1205.75,1103Z"/><path class="cls-11" d="M1108.68,1425.46c-68.44,34.13-335.14,14.37-335.91-2.77-.89-20,235.46-64.9,285.78-70.4C1118.58,1345.73,1149.48,1405.12,1108.68,1425.46Z"/><path class="cls-11" d="M819.87,1411.63c-1.71-6.14-49.28-5.31-64.89-1s-37,22.42-40,26.41-10,24.81-10,24.81,6.12,7.74,14.91-4.15,31.15-24.48,36.54-20.87c12.11,8.11-15.78,14.17-19.15,19s-1.91,8-1.91,8,28.92-5.77,33.41-6.08,19.69-6.56,28.6-13.77S822.39,1420.68,819.87,1411.63Z"/></g><g id="SHIRT"><path class="cls-12" d="M1515.19,1654.74c43,50.55-48.39-177.45-65.56-235-8.12-27.22,10.41-132.72,30.18-218.64,20-87.13-11.47-118.43-65.57-131.92-60.34-15.06-138.36-11.1-156.79-8.65-58.27,7.72-72.37,14.59-99.2,29-13.33,7.16-12.63,146-16.53,182.54s15.42,58.68,38.21,73.75c6.51,4.31,20.17,27.13,19.85,81s-8.14,82.82-29.78,113.12C1170,1539.94,1392.74,1510.9,1515.19,1654.74Z"/><polyline class="cls-13" points="1398.04 1066.62 1260.27 1229.56 1199.46 1069.48"/></g><g id="RIGHT_HAND" data-name="RIGHT HAND"><path class="cls-10" d="M1464.61,1093.43c25,23.14,56.89,70.3,126.17,311.92,26.27,91.66-33.7,89-57.46,50s-124.09-216.53-133.86-261.57C1382.46,1115.36,1443.8,1074.13,1464.61,1093.43Z"/><path class="cls-11" d="M1578.82,1480.25c-71,35.72-361.15-2.51-362-20.31-1-20.81,247.52-39.69,299.78-45.61C1578.92,1407.28,1621.13,1459,1578.82,1480.25Z"/><path class="cls-11" d="M1256.35,1463.49c.36,6.37-44.95,20.89-61.13,21.79s-42.25-9.33-46.39-12.13-17.49-20.27-17.49-20.27,3.31-9.29,15.45-.86,37.37,13.16,41.31,8c8.85-11.58-19.49-8.34-24.25-11.84s-4.37-7-4.37-7,29.23-3.84,33.58-5,20.75-.11,31.51,3.84S1255.83,1454.11,1256.35,1463.49Z"/></g><g id="HEAD"><g id="HAIR"><path class="cls-14" d="M1338.8,943.62c23.7-4.67,55.44-48.39,44.56-85.87s-64.08-81.62-118.5-64.09-87.81,43.68-81.34,97.35c5.14,42.67,138.69,182,230.72,176.71,37-2.12,74.32-79.92,26-108.94S1338.8,943.62,1338.8,943.62Z"/><path class="cls-15" d="M1462.06,958.78c-48.88-44.83-121.9-16.52-121.9-16.52"/></g><g id="NECK"><path id="NECK-2" data-name="NECK" class="cls-16" d="M1331.34,939s-7.77,88.38,38.73,122.92l-99.35,115.7-43.3-111.29s48.5-9,28.49-127.33Z"/><path id="SHADOW-3" data-name="SHADOW" class="cls-17" d="M1330.86,956.1c-.16,1.6-.27,2.56-.27,2.56,0,16.26-33.13,78.57-79.07,83.75,8.33-18,13.55-49.22,4.38-103.46h75.44S1330.75,945.66,1330.86,956.1Z"/></g><path id="FACE" class="cls-16" d="M1330.74,946.32c-.09.9-.15,1.41-.15,1.41,1.41,12.12-47,60.55-85.22,65-17.16,2-42.69-47.54-46.89-64.32-6.12-24.46-6.46-48.59-6.77-57.37-.5-14.23.4-49.87,41.4-49.87,41.26,0,64.46,90.85,94.88,72.49.56-1.26,5.77-11.94,19-3.49C1356.75,916.43,1342,939.52,1330.74,946.32Z"/><polyline class="cls-18" points="1231.52 913.95 1227.42 946.11 1235.46 955.76"/><g id="GLASSES"><circle class="cls-19" cx="1199.91" cy="923.06" r="25.11"/><circle class="cls-19" cx="1266.88" cy="923.06" r="25.11"/><line class="cls-19" x1="1225.02" y1="923.06" x2="1241.77" y2="923.06"/><path class="cls-19" d="M1292,921.69s40.38-24.9,57.71-11.54"/></g><circle class="cls-20" cx="1209.98" cy="922.9" r="6.01"/><circle class="cls-20" cx="1257.74" cy="922.9" r="6.01"/><path class="cls-18" d="M1236.16,973.86s13.45,2.43,22.69-10.35"/></g></g><g id="COMPUTER"><path class="cls-21" d="M1095.81,1335.79H656.54a34.74,34.74,0,0,1-32.74-23.15l-89.75-253.49A24.1,24.1,0,0,1,556.77,1027H999.64a29.64,29.64,0,0,1,27.95,19.76l91,256.87A24.11,24.11,0,0,1,1095.81,1335.79Z"/><path class="cls-12" d="M1082.15,1349.45H642.87a34.73,34.73,0,0,1-32.74-23.14l-89.75-253.49a24.11,24.11,0,0,1,22.73-32.16H986a29.68,29.68,0,0,1,28,19.76l90.94,256.88A24.1,24.1,0,0,1,1082.15,1349.45Z"/><path class="cls-22" d="M1095.81,1334.42H656.54a34.73,34.73,0,0,1-32.74-23.14l-89.75-253.49a24.11,24.11,0,0,1,22.72-32.16H999.64a29.65,29.65,0,0,1,27.95,19.76l91,256.87A24.11,24.11,0,0,1,1095.81,1334.42Z"/><polygon class="cls-23" points="866.67 1404.47 736.09 1404.47 777.08 1230.92 907.67 1230.92 866.67 1404.47"/></g><g id="ICON"><path class="cls-24" d="M899.12,934.68c13.74,0,23.22-13.41,23.22-27.51V828.24a27.74,27.74,0,0,0-27.74-27.75H715a27.74,27.74,0,0,0-27.75,27.75v78.93A27.74,27.74,0,0,0,715,934.91H820.3c25.78,0,39.67,41.47,39.67,41.47S868.75,934.68,899.12,934.68Z"/><circle class="cls-24" cx="753.43" cy="867.01" r="10.36"/><circle class="cls-24" cx="804.79" cy="867.69" r="10.36"/><circle class="cls-24" cx="856.14" cy="867.69" r="10.36"/></g></g><polyline class="cls-25" points="168.27 2317.16 168.27 1415.45 1369.86 1415.45 1369.86 2398"/><g id="SHELF"><g id="BOOKS"><rect class="cls-26" x="1208.55" y="547.41" width="331.31" height="64"/><rect class="cls-1" x="1260.42" y="518.37" width="334.62" height="25.06"/><rect class="cls-27" x="1229.19" y="481.3" width="334.62" height="32.86"/><rect class="cls-12" x="1209.12" y="439.66" width="295.18" height="37.34"/></g><polygon id="SHELF-2" data-name="SHELF" class="cls-27" points="1596.1 665.36 973.58 665.36 850.95 486.79 278.67 486.79 278.67 439.74 875.11 439.74 997.74 618.3 1596.1 618.3 1596.1 665.36"/><g id="PLANT"><path class="cls-10" d="M985.86,517.07h169.45a0,0,0,0,1,0,0v13.48a84.72,84.72,0,0,1-84.72,84.72h0a84.72,84.72,0,0,1-84.72-84.72V517.07a0,0,0,0,1,0,0Z"/><path class="cls-28" d="M1012.73,517.07S976,547,955.05,522.46c-15.18-17.78,44.93-17.8,44.93-17.8s-31.7-25.38-21.65-30c24.7-11.23,39.2,26.53,39.2,26.53s-34-63.53-4.54-74.45c24.22-9,24.22,56.48,24.22,56.48s5.13-26.53,18.83-24.82,3.85,30,3.85,30,12-8.13,12.83,10.27c0,0,2.32-70,31.67-63.33,24.39,5.56-8.13,53.49-8.13,53.49s18.83-23.54,35.51-16.26-15,29.09-15,29.09,45.35-42.36,61.78-31c12.49,8.66-19.25,29.85-19.25,29.85s22.68-6.31,27.81,4.81-31.83,11.73-31.83,11.73Z"/><path class="cls-29" d="M1032,517.07s1.31-60.36,24-58.63-9,58.63-9,58.63Z"/><path class="cls-29" d="M1032,517.07s-22.78-57-53.68-42.37c-30.17,14.25,34.75,42.37,34.75,42.37Z"/><path class="cls-29" d="M1078.87,517.07s20.45-51.32,52.9-46.44-40,46.44-40,46.44Z"/><path class="cls-29" d="M1112.24,517.07s63.47-32,74.9-12.69S1112.24,517.07,1112.24,517.07Z"/></g><g id="DOCUMENTS"><rect class="cls-27" x="358.32" y="114.07" width="86.94" height="325.66"/><rect class="cls-30" x="381.81" y="225.96" width="39.95" height="10.27"/><rect class="cls-30" x="381.81" y="253.44" width="39.95" height="10.27"/><rect class="cls-30" x="381.81" y="280.92" width="39.95" height="10.27"/><rect class="cls-30" x="381.81" y="308.41" width="39.95" height="10.27"/><circle class="cls-30" cx="401.79" cy="383.49" r="19.63"/><rect class="cls-26" x="452.89" y="114.07" width="86.94" height="325.66"/><rect class="cls-14" x="476.39" y="225.96" width="39.95" height="10.27"/><rect class="cls-14" x="476.39" y="253.44" width="39.95" height="10.27"/><rect class="cls-14" x="476.39" y="280.92" width="39.95" height="10.27"/><rect class="cls-14" x="476.39" y="308.41" width="39.95" height="10.27"/><circle class="cls-14" cx="496.36" cy="383.49" r="19.63"/><rect class="cls-31" x="547.47" y="114.07" width="86.94" height="325.66"/><rect class="cls-21" x="570.96" y="224.58" width="39.95" height="10.27"/><rect class="cls-21" x="570.96" y="252.06" width="39.95" height="10.27"/><rect class="cls-21" x="570.96" y="279.54" width="39.95" height="10.27"/><rect class="cls-21" x="570.96" y="307.03" width="39.95" height="10.27"/><circle class="cls-21" cx="590.94" cy="382.11" r="19.63"/><rect class="cls-32" x="642.04" y="114.07" width="86.94" height="325.66"/><rect class="cls-1" x="665.54" y="225.96" width="39.95" height="10.27"/><rect class="cls-1" x="665.54" y="253.44" width="39.95" height="10.27"/><rect class="cls-1" x="665.54" y="280.92" width="39.95" height="10.27"/><rect class="cls-1" x="665.54" y="308.41" width="39.95" height="10.27"/><circle class="cls-1" cx="685.51" cy="383.49" r="19.63"/></g></g></svg>