<svg xmlns="http://www.w3.org/2000/svg" viewBox="0 0 1582 1013"><defs><style>.cls-1{isolation:isolate;}.cls-2,.cls-4{fill:#e7f0fd;}.cls-10,.cls-3{fill:none;stroke-miterlimit:10;stroke-width:5px;}.cls-3{stroke:#96bed5;}.cls-4{mix-blend-mode:multiply;}.cls-5{fill:#fff;}.cls-6{fill:#d1e2fb;}.cls-7{fill:#96bed5;}.cls-8{fill:#c1c1e9;}.cls-9{fill:#8383d3;}.cls-10{stroke:#fff;}</style></defs><g class="cls-1"><g id="Layer_1" data-name="Layer 1"><g id="POSTERS"><rect class="cls-2" x="843.78" y="120.53" width="580" height="774.6"/><rect class="cls-3" x="865.93" y="100.22" width="580" height="774.6"/><path class="cls-4" d="M1386,422.92V594.49l-53.22-27.39c-7.62,0-48.19,273-48.19,273h-280s-40.58-273-48.18-273l-49,25.68V419.57c0-41.18,95.19-65.6,123.86-81.31,46.75-25.62,58.17-58.75,56.91-90.45l1.81,0-1.86-.35c-6-37.88-20.06-48.56-20.35-86.14h179.79c-2.69,31.32-4.39,63.89-26.35,86.82-4.58,4.78-13.78,7.38-25.31,8.54,1,30.26,17.82,64.71,61.89,81.54C1295.3,352.54,1386,388.09,1386,422.92Z"/><path class="cls-2" d="M1189,378.39c-27.31,0-31.59,139.53-24.26,192.1,5.43,38.87,94.2,60,108.31,41.89C1305.43,570.77,1241,378.39,1189,378.39Z"/><path class="cls-2" d="M1104.74,378.39c27.31,0,31.6,139.53,24.26,192.1-5.43,38.87-95.77,61.14-108.31,41.89C986.56,560,1052.68,378.39,1104.74,378.39Z"/><path class="cls-2" d="M1193.29,644.1c.66-13.5-60.38-29.9-135.38-7.66-57.94,17.17-40.39,108.64-16.25,108.45,12-.09,20.09-25.33,43.34-25,56.85.88,84.57-20.43,90.15-56C1177.27,650.4,1192.76,654.92,1193.29,644.1Z"/><path class="cls-2" d="M1158,715c-3.15,13.63,83.18,6.59,93.92-34.24,9.5-36.14-27.71-43.9-45.5-25.8-12.59,12.81-11.57,16.71-21.53,34.8C1172.85,711.56,1159.7,707.47,1158,715Z"/><path class="cls-2" d="M1254.72,702c-10,13.24-25.24,22.84-40.6,28.49-17.77,6.55-35.46,6.64-54.29,6-37.63-1.26-82.49-5.81-109.92,25.57-13.41,15.35-21.23,35.67-19.56,56.18.53,6.43,5.12,11.94,12,11.94,6,0,12.46-5.48,11.94-11.94a52.77,52.77,0,0,1,13-39.81c11.22-12.54,26.37-17.48,43.6-18.45,37.43-2.08,76.63,6.61,112.48-7.56,20.7-8.18,38.53-20.53,52-38.38,3.89-5.15.82-13.35-4.29-16.34-6.12-3.58-12.44-.88-16.33,4.29Z"/><rect class="cls-2" x="83.07" y="120.53" width="580" height="774.6"/><rect class="cls-3" x="105.23" y="100.22" width="580" height="774.6"/><circle class="cls-5" cx="286.84" cy="272.73" r="115.36"/><path class="cls-6" d="M341.08,170.89,286.84,272.73V157.36a114.94,114.94,0,0,1,54.23,13.51Z"/><path class="cls-7" d="M402.21,272.73H286.84l54.24-101.84h0A115.37,115.37,0,0,1,402.21,272.73Z"/><path class="cls-8" d="M402.21,272.73a115.36,115.36,0,0,1-198.64,79.83l0,0,83.29-79.81Z"/><path class="cls-9" d="M286.84,272.73l-83.29,79.81h0a115.4,115.4,0,0,1-16.43-21.77Z"/><polyline class="cls-10" points="358.91 225.97 412.81 186.77 456.91 186.77"/><line class="cls-10" x1="358.91" y1="312.63" x2="456.49" y2="374.81"/><rect class="cls-5" x="386.34" y="459.34" width="231.22" height="316.05"/><rect class="cls-5" x="171.48" y="806.02" width="446.08" height="19.21"/><rect class="cls-4" x="171.48" y="459.34" width="187.43" height="23.28"/><rect class="cls-4" x="171.48" y="508.14" width="187.43" height="23.28"/><rect class="cls-4" x="171.48" y="556.93" width="187.43" height="23.28"/><rect class="cls-4" x="171.48" y="605.73" width="187.43" height="23.28"/><rect class="cls-4" x="171.48" y="654.53" width="187.43" height="23.28"/><rect class="cls-4" x="171.48" y="703.32" width="187.43" height="23.28"/><rect class="cls-4" x="171.48" y="752.12" width="187.43" height="23.28"/><rect class="cls-4" x="466.96" y="170.89" width="150.6" height="15.02"/><rect class="cls-4" x="466.96" y="195.41" width="150.6" height="15.02"/><rect class="cls-4" x="466.96" y="219.93" width="102.4" height="15.02"/><rect class="cls-4" x="466.96" y="381.4" width="150.6" height="15.02"/><rect class="cls-4" x="466.96" y="405.92" width="150.6" height="15.02"/></g></g></g></svg>