<svg xmlns="http://www.w3.org/2000/svg" viewBox="0 0 1200 1200"><defs><style>.cls-1{isolation:isolate;}.cls-2,.cls-3{fill:#e4effd;}.cls-3{mix-blend-mode:multiply;}.cls-4{fill:none;}.cls-4,.cls-5{stroke:#88bed7;stroke-miterlimit:10;stroke-width:5.27px;}.cls-5,.cls-7{fill:#fff;}.cls-6{opacity:0.7;}</style></defs><g class="cls-1"><g id="Layer_1" data-name="Layer 1"><g id="DROPS"><path class="cls-2" d="M728.47,680.2v349.39a50.23,50.23,0,0,1-50.23,50.23H533.67a50.23,50.23,0,0,1-50.23-50.23V680.2a50.24,50.24,0,0,1,46.39-50.08V583.77H682.08v46.35A50.24,50.24,0,0,1,728.47,680.2Z"/><path class="cls-3" d="M728.47,715.08v315.36a50.23,50.23,0,0,1-50.23,50.23H533.67a50.23,50.23,0,0,1-50.23-50.23V715.08Z"/><path class="cls-4" d="M716.56,670.84v349.39a50.23,50.23,0,0,1-50.23,50.23H521.76a50.23,50.23,0,0,1-50.23-50.23V670.84a50.24,50.24,0,0,1,46.39-50.08V565.91H670.17v54.85A50.24,50.24,0,0,1,716.56,670.84Z"/><path class="cls-4" d="M569.79,565.9H618.3a0,0,0,0,1,0,0V917.39A24.25,24.25,0,0,1,594,941.65h0a24.25,24.25,0,0,1-24.25-24.25V565.9A0,0,0,0,1,569.79,565.9Z"/><path class="cls-5" d="M544.09,394.54H644A43.49,43.49,0,0,1,687.49,438V552.63a19.76,19.76,0,0,1-19.76,19.76H520.36a19.76,19.76,0,0,1-19.76-19.76V438A43.49,43.49,0,0,1,544.09,394.54Z"/><path class="cls-5" d="M630.46,394.54H557.63l10-250.1A26.4,26.4,0,0,1,594,119.1h0a26.4,26.4,0,0,1,26.38,25.34Z"/><g class="cls-6"><path class="cls-7" d="M519.89,981.21A12.09,12.09,0,0,0,532,969.12v-15.3a12.09,12.09,0,0,0-24.18,0v15.3A12.09,12.09,0,0,0,519.89,981.21Z"/><path class="cls-7" d="M519.89,920.67A12.09,12.09,0,0,0,532,908.59V708.09a12.09,12.09,0,0,0-24.18,0v200.5A12.09,12.09,0,0,0,519.89,920.67Z"/></g></g></g></g></svg>