<svg id="Layer_1" data-name="Layer 1" xmlns="http://www.w3.org/2000/svg" viewBox="0 0 1518 1743"><defs><style>.cls-1{fill:#e4effd;}.cls-2{fill:#cbe1fd;}.cls-3,.cls-4,.cls-7{fill:#fff;}.cls-3,.cls-5{stroke:#88bed7;}.cls-10,.cls-11,.cls-12,.cls-14,.cls-16,.cls-3,.cls-5,.cls-7{stroke-miterlimit:10;}.cls-10,.cls-16,.cls-3,.cls-5,.cls-7{stroke-width:5px;}.cls-10,.cls-11,.cls-12,.cls-13,.cls-14,.cls-16,.cls-5{fill:none;}.cls-6{fill:#88bed7;}.cls-16,.cls-7{stroke:#6562ce;}.cls-8{fill:#6562ce;}.cls-9{opacity:0.5;}.cls-10,.cls-12{stroke:#efaf00;}.cls-11,.cls-13,.cls-14{stroke:#fff;stroke-width:2px;}.cls-12{stroke-width:4px;}.cls-13{stroke-linejoin:round;}.cls-14,.cls-16{stroke-linecap:round;}.cls-15{fill:#f2bf33;}</style></defs><g id="SHELF"><polygon id="SHADOW" class="cls-1" points="842.89 446.62 740.78 500.6 184.06 500.6 184.06 226.18 241.6 149.76 241.6 445.24 840.09 445.24 842.89 446.62"/><g id="SHELF-2" data-name="SHELF"><rect class="cls-2" x="347.05" y="174.89" width="469.07" height="245.21"/><path class="cls-3" d="M321.91,149.76V445.24H841.26V149.76ZM816.12,420.1H347.05V174.89H816.12Z"/><rect class="cls-3" x="241.6" y="149.76" width="80.31" height="295.48"/></g><g id="MEDICAL_KIT" data-name="MEDICAL KIT"><path class="cls-4" d="M505.32,229.75v170.1a10.19,10.19,0,0,0,10,10.35h256a10.18,10.18,0,0,0,10-10.35V229.75a10.19,10.19,0,0,0-10-10.36h-256A10.2,10.2,0,0,0,505.32,229.75Z"/><path class="cls-5" d="M505.32,229.5V399.6a10.19,10.19,0,0,0,10,10.35h256a10.18,10.18,0,0,0,10-10.35V229.5a10.18,10.18,0,0,0-10-10.35h-256A10.19,10.19,0,0,0,505.32,229.5Z"/><path class="cls-5" d="M505.32,229.5V399.6a10.19,10.19,0,0,0,10,10.35h22.52a10.19,10.19,0,0,0,10-10.35V229.5a10.19,10.19,0,0,0-10-10.35H515.34A10.19,10.19,0,0,0,505.32,229.5Z"/><path class="cls-6" d="M623.64,300.92v20.61a2.65,2.65,0,0,0,2.65,2.65h16.48a2.64,2.64,0,0,1,2.64,2.64V343.3a2.65,2.65,0,0,0,2.65,2.65h20.6a2.65,2.65,0,0,0,2.65-2.65V326.82a2.65,2.65,0,0,1,2.65-2.64h16.47a2.65,2.65,0,0,0,2.65-2.65V300.92a2.64,2.64,0,0,0-2.65-2.64H674a2.65,2.65,0,0,1-2.65-2.65V279.15a2.64,2.64,0,0,0-2.65-2.64h-20.6a2.65,2.65,0,0,0-2.65,2.64v16.48a2.65,2.65,0,0,1-2.64,2.65H626.29A2.65,2.65,0,0,0,623.64,300.92Z"/><line class="cls-5" x1="525.96" y1="219.39" x2="525.96" y2="409.97"/><path class="cls-5" d="M626.07,195.05h47.72a14,14,0,0,1,14,14v10.15a0,0,0,0,1,0,0H612.11a0,0,0,0,1,0,0V209A14,14,0,0,1,626.07,195.05Z"/></g><g id="PILL"><path class="cls-7" d="M436.18,357.45h44.46a0,0,0,0,1,0,0v40a12.9,12.9,0,0,1-12.9,12.9H449.07a12.9,12.9,0,0,1-12.9-12.9v-40A0,0,0,0,1,436.18,357.45Z"/><rect class="cls-8" x="432.48" y="343.2" width="52.02" height="14.21" rx="4.27"/><rect class="cls-4" x="437.96" y="346.79" width="1.42" height="6.92" rx="0.71"/><rect class="cls-4" x="444.56" y="346.79" width="1.42" height="6.92" rx="0.71"/><rect class="cls-4" x="451.17" y="346.79" width="1.42" height="6.92" rx="0.71"/><rect class="cls-4" x="457.78" y="346.79" width="1.42" height="6.92" rx="0.71"/><rect class="cls-4" x="464.39" y="346.79" width="1.42" height="6.92" rx="0.71"/><rect class="cls-4" x="471" y="346.79" width="1.42" height="6.92" rx="0.71"/><rect class="cls-4" x="477.6" y="346.79" width="1.42" height="6.92" rx="0.71"/><path class="cls-3" d="M371.67,357.45h44.46a0,0,0,0,1,0,0v40a12.9,12.9,0,0,1-12.9,12.9H384.57a12.9,12.9,0,0,1-12.9-12.9v-40A0,0,0,0,1,371.67,357.45Z"/><rect class="cls-6" x="367.97" y="343.2" width="52.02" height="14.21" rx="4.27"/><rect class="cls-4" x="373.45" y="346.79" width="1.42" height="6.92" rx="0.71"/><rect class="cls-4" x="380.06" y="346.79" width="1.42" height="6.92" rx="0.71"/><rect class="cls-4" x="386.67" y="346.79" width="1.42" height="6.92" rx="0.71"/><rect class="cls-4" x="393.28" y="346.79" width="1.42" height="6.92" rx="0.71"/><rect class="cls-4" x="399.88" y="346.79" width="1.42" height="6.92" rx="0.71"/><rect class="cls-4" x="406.49" y="346.79" width="1.42" height="6.92" rx="0.71"/><rect class="cls-4" x="413.1" y="346.79" width="1.42" height="6.92" rx="0.71"/><path class="cls-7" d="M390.2,285.73h44.46a0,0,0,0,1,0,0v40a12.9,12.9,0,0,1-12.9,12.9H403.1a12.9,12.9,0,0,1-12.9-12.9v-40A0,0,0,0,1,390.2,285.73Z"/><rect class="cls-8" x="386.5" y="271.48" width="52.02" height="14.21" rx="4.27"/><rect class="cls-4" x="391.98" y="275.07" width="1.42" height="6.92" rx="0.71"/><rect class="cls-4" x="398.59" y="275.07" width="1.42" height="6.92" rx="0.71"/><rect class="cls-4" x="405.19" y="275.07" width="1.42" height="6.92" rx="0.71"/><rect class="cls-4" x="411.8" y="275.07" width="1.42" height="6.92" rx="0.71"/><rect class="cls-4" x="418.41" y="275.07" width="1.42" height="6.92" rx="0.71"/><rect class="cls-4" x="425.02" y="275.07" width="1.42" height="6.92" rx="0.71"/><rect class="cls-4" x="431.63" y="275.07" width="1.42" height="6.92" rx="0.71"/></g><g id="GLASS" class="cls-9"><polygon class="cls-4" points="773.97 181.03 523.66 413.97 474.56 413.97 724.87 181.03 773.97 181.03"/><polygon class="cls-4" points="423.53 413.97 353.96 413.97 353.96 181.02 673.84 181.02 423.53 413.97"/></g></g><g id="LIFE_SUPPORT" data-name="LIFE SUPPORT"><polygon class="cls-2" points="403.74 931.59 403.74 887.97 716.45 887.97 716.45 893.37 403.74 931.59"/><path class="cls-5" d="M360.33,1597.75v11.74a14.43,14.43,0,0,1-14.43,14.42h0a32.7,32.7,0,0,0-32.69,32.69v3.16"/><circle class="cls-10" cx="349" cy="1658.66" r="26.12"/><path class="cls-5" d="M504.74,1597.75v11.74a14.43,14.43,0,0,1-14.42,14.42h0a32.69,32.69,0,0,0-32.69,32.69v3.16"/><circle class="cls-10" cx="493.42" cy="1658.66" r="26.12"/><path class="cls-5" d="M768,1597.75v11.74a14.43,14.43,0,0,0,14.42,14.42h0a32.69,32.69,0,0,1,32.69,32.69v3.16"/><circle class="cls-10" cx="779.31" cy="1658.66" r="26.12"/><rect class="cls-3" x="283.05" y="931.59" width="396.95" height="665.26" rx="38.6"/><rect class="cls-3" x="440.23" y="931.59" width="396.95" height="665.26" rx="38.6"/><rect class="cls-3" x="455.2" y="957.24" width="368.13" height="189.49" rx="17.24"/><rect class="cls-1" x="565.92" y="1050.72" width="128.65" height="14.91" rx="6.97"/><rect class="cls-10" x="574.87" y="1044.32" width="128.65" height="13.85" rx="6.93"/><rect class="cls-3" x="455.2" y="1168.01" width="368.13" height="189.49" rx="17.24"/><rect class="cls-1" x="565.92" y="1261.48" width="128.65" height="14.91" rx="6.97"/><rect class="cls-10" x="574.87" y="1255.08" width="128.65" height="13.85" rx="6.93"/><rect class="cls-3" x="455.2" y="1378.77" width="368.13" height="189.49" rx="17.24"/><rect class="cls-1" x="565.92" y="1472.28" width="128.65" height="14.91" rx="6.97"/><rect class="cls-10" x="574.87" y="1465.85" width="128.65" height="13.85" rx="6.93"/><rect class="cls-5" x="403.74" y="887.97" width="312.71" height="43.61"/><path class="cls-3" d="M336,611.88H463.15a0,0,0,0,1,0,0V888a0,0,0,0,1,0,0H336a14.49,14.49,0,0,1-14.49-14.49V626.37A14.49,14.49,0,0,1,336,611.88Z"/><path class="cls-3" d="M779.35,888H460.09a23.14,23.14,0,0,1-22-16l-79-243.67a12.54,12.54,0,0,1,11.93-16.42H690.31a23.13,23.13,0,0,1,22,16l79,243.67A12.55,12.55,0,0,1,779.35,888Z"/><path class="cls-8" d="M658.25,807.16H456.5a14.61,14.61,0,0,1-13.9-10.11l-49.91-154a7.93,7.93,0,0,1,7.55-10.37H602a14.61,14.61,0,0,1,13.9,10.11l49.91,154A7.93,7.93,0,0,1,658.25,807.16Z"/><polyline class="cls-11" points="600.04 807.84 584.42 759.64 654.89 759.64"/><path class="cls-2" d="M709.59,808.12h-1.45c-10.33,0-20.66-6.65-25.58-16.48h0c-7.14-14.27.92-28.9,15.92-28.9h1.45c10.33,0,20.66,6.65,25.57,16.48h0C732.65,793.49,724.59,808.12,709.59,808.12Z"/><path class="cls-12" d="M716.87,805.51h-1.45c-10.33,0-20.66-6.65-25.58-16.48h0c-7.14-14.27.92-28.9,15.92-28.9h1.45c10.33,0,20.66,6.65,25.58,16.48h0C739.93,790.88,731.87,805.51,716.87,805.51Z"/><path class="cls-2" d="M660.46,652.75H637.27a1.67,1.67,0,0,1-1.6-1.17l-5.74-17.7a.91.91,0,0,1,.87-1.19H654a1.67,1.67,0,0,1,1.6,1.16l5.74,17.7A.92.92,0,0,1,660.46,652.75Z"/><path class="cls-2" d="M697.05,652.75h-23.2a1.68,1.68,0,0,1-1.6-1.17l-5.73-17.7a.9.9,0,0,1,.86-1.19h23.2a1.67,1.67,0,0,1,1.6,1.16l5.74,17.7A.92.92,0,0,1,697.05,652.75Z"/><path class="cls-2" d="M669.72,683H646.53a1.67,1.67,0,0,1-1.6-1.17l-5.74-17.7a.91.91,0,0,1,.87-1.19h23.19a1.68,1.68,0,0,1,1.6,1.16l5.74,17.7A.92.92,0,0,1,669.72,683Z"/><path class="cls-2" d="M706.31,683h-23.2a1.68,1.68,0,0,1-1.6-1.17l-5.74-17.7a.91.91,0,0,1,.87-1.19h23.2a1.69,1.69,0,0,1,1.6,1.16l5.73,17.7A.91.91,0,0,1,706.31,683Z"/><path class="cls-2" d="M680.8,715.78H657.6a1.69,1.69,0,0,1-1.6-1.16l-5.74-17.71a.91.91,0,0,1,.87-1.19h23.2a1.69,1.69,0,0,1,1.6,1.16l5.73,17.71A.9.9,0,0,1,680.8,715.78Z"/><path class="cls-2" d="M717.38,715.78H694.19a1.68,1.68,0,0,1-1.6-1.16l-5.74-17.71a.91.91,0,0,1,.87-1.19h23.19a1.68,1.68,0,0,1,1.6,1.16l5.74,17.71A.91.91,0,0,1,717.38,715.78Z"/><path class="cls-2" d="M692,749.93H668.76a1.67,1.67,0,0,1-1.6-1.17l-5.74-17.7a.91.91,0,0,1,.87-1.19h23.19a1.67,1.67,0,0,1,1.6,1.16l5.74,17.7A.92.92,0,0,1,692,749.93Z"/><path class="cls-2" d="M728.54,749.93h-23.2a1.68,1.68,0,0,1-1.6-1.17L698,731.06a.9.9,0,0,1,.86-1.19h23.2a1.67,1.67,0,0,1,1.6,1.16l5.74,17.7A.92.92,0,0,1,728.54,749.93Z"/><polyline class="cls-11" points="401.65 674.57 421.65 674.57 426.76 656.6 437.94 690.9 438.25 673.75 463.05 673.6 468.16 656.6 479.34 690.9 479.65 673.75 504.45 673.6 509.56 656.6 520.74 690.9 521.05 673.75 545.85 673.6 550.96 656.6 562.14 690.9 562.45 673.75 586.29 673.6 591.4 656.6 602.58 690.9 602.88 673.75 625.76 673.6"/><polyline class="cls-13" points="639.93 713.09 632.23 725.49 627.5 718.46 627.5 733.35 617.43 713.09 614.54 733.35 604.77 713.09 597.08 725.49 592.34 718.46 592.34 733.35 582.27 713.09 572.68 733.35 562.91 713.09 555.21 725.49 550.47 718.46 550.47 733.35 540.41 713.09 537.52 733.35 527.75 713.09 520.06 725.49 515.32 718.46 515.32 733.35 505.25 713.09 505.25 725.49 498.52 718.05 494.69 733.35 484.93 713.09 477.23 725.49 472.49 718.46 472.49 733.35 462.42 713.09 459.54 733.35 449.77 713.09 442.07 725.49 437.33 718.46 437.33 733.35 427.27 713.09 416.51 722.51"/><path class="cls-14" d="M602.9,769.76h12.31a2.15,2.15,0,0,1,2,1.61l2.47,10.7"/><line class="cls-14" x1="620.4" y1="785.29" x2="623.19" y2="797.38"/><path class="cls-14" d="M639.1,769.76H626.79a1.24,1.24,0,0,0-1.24,1.61l2.47,10.7"/><path class="cls-14" d="M644,797.59H633.22a2.14,2.14,0,0,1-2-1.61l-2.47-10.69a1.24,1.24,0,0,1,1.24-1.61H640.8a2,2,0,0,1,1.86,1.51l2.51,10.89A1.16,1.16,0,0,1,644,797.59Z"/><path class="cls-14" d="M537.29,768.91H525a1.24,1.24,0,0,0-1.24,1.61l2.47,10.69"/><path class="cls-14" d="M528.19,782.82H539a2,2,0,0,1,1.87,1.52l2.51,10.88a1.17,1.17,0,0,1-1.16,1.52H529.48"/><line class="cls-14" x1="492.74" y1="769.76" x2="495.65" y2="782.07"/><line class="cls-14" x1="496.39" y1="785.29" x2="499.18" y2="797.38"/><path class="cls-14" d="M504,782.07l-2.47-10.7a1.24,1.24,0,0,1,1.24-1.61h11.35"/><path class="cls-14" d="M518,781.15l-2-9.78c-.12-1.61-1.31-1.61-2.2-1.61H502.46"/><path class="cls-14" d="M518.65,785.19l2.51,10.89a1.16,1.16,0,0,1-1.16,1.51H509.21a2.14,2.14,0,0,1-2-1.61l-2.47-10.69"/><line class="cls-11" x1="584.42" y1="759.64" x2="429.68" y2="759.64"/></g><g id="PLANT"><g id="PLANT-2" data-name="PLANT"><path class="cls-15" d="M1226,1179.12c-42.34,64.09-122.1,99.1-157.34,79.28-34.07-19.16-37-113.57,5.29-177.66s113.1-94,154.22-66.86S1268.35,1115,1226,1179.12Z"/><path class="cls-16" d="M1073.38,1474.32s-42.64-345.87,154.5-458.87"/><line class="cls-16" x1="1255.8" y1="1092.63" x2="1137.75" y2="1104.69"/><line class="cls-16" x1="1254.19" y1="1105.09" x2="1130.29" y2="1117.74"/><line class="cls-16" x1="1075.36" y1="1081.43" x2="1105.36" y2="1170.09"/><path class="cls-15" d="M1382.5,1355.79c-13.09,33.77-70.44,43-128.11,20.67s-79.9-66.76-77.38-81.51c3.19-18.59,71.24-50.35,124.79-40.77C1362.67,1265.06,1395.59,1322,1382.5,1355.79Z"/><path class="cls-16" d="M1038.12,1474.32s-5.18-151.93,155.27-183.12c87.85-17.07,155.81,27.08,187,64.51"/><line class="cls-16" x1="1281.08" y1="1293.59" x2="1335.87" y2="1268.48"/><line class="cls-16" x1="1294.76" y1="1297.94" x2="1345.78" y2="1274.07"/><line class="cls-16" x1="1258.42" y1="1289.18" x2="1279.77" y2="1382.22"/><path class="cls-15" d="M1006,1248.59c26,39.3,22,95,.79,107.9-12.84,7.85-66.83-6.35-92.86-45.65s-25.95-86.45-.73-103.16S979.94,1209.29,1006,1248.59Z"/><path class="cls-16" d="M1018.94,1474.32s14.59-196.49-105-264.58"/><line class="cls-16" x1="897.27" y1="1267.09" x2="972.75" y2="1267.09"/><line class="cls-16" x1="901.08" y1="1280.14" x2="980.21" y2="1280.14"/><line class="cls-16" x1="1007.76" y1="1254.01" x2="994.2" y2="1308.13"/></g><g id="VASE"><path class="cls-3" d="M1155,1507.87v136.64a33.51,33.51,0,0,1-33.55,33.54H984.85a33.49,33.49,0,0,1-33.55-33.54V1507.87a33.56,33.56,0,0,1,33.55-33.55h136.64a33.55,33.55,0,0,1,33.55,33.55Z"/></g><circle class="cls-2" cx="1018.26" cy="1509.97" r="10.27"/><circle class="cls-2" cx="1063.96" cy="1509.92" r="10.27"/><circle class="cls-2" cx="1109.67" cy="1509.86" r="10.27"/><path class="cls-2" d="M1152.66,1507.86v12.22h-.12a10.27,10.27,0,0,1-1-20.5A31.08,31.08,0,0,1,1152.66,1507.86Z"/><circle class="cls-2" cx="972.55" cy="1510.03" r="10.27"/><path class="cls-2" d="M1051.79,1479.24a10.28,10.28,0,1,1-20.22-2.54h19.9A10.58,10.58,0,0,1,1051.79,1479.24Z"/><path class="cls-2" d="M1097.49,1479.18a10.27,10.27,0,1,1-20.23-2.48h19.93A10.09,10.09,0,0,1,1097.49,1479.18Z"/><path class="cls-2" d="M1141.83,1484.26a10.27,10.27,0,0,1-19.17-5.11,10.07,10.07,0,0,1,.29-2.41A31,31,0,0,1,1141.83,1484.26Z"/><path class="cls-2" d="M997.85,1489.37a10.29,10.29,0,0,1-12-12.67h19.88c0,.18.1.37.14.56A10.28,10.28,0,0,1,997.85,1489.37Z"/><circle class="cls-2" cx="1114.39" cy="1574.17" r="10.27"/><path class="cls-2" d="M1152.66,1564.5v19.23a10.28,10.28,0,0,1,0-19.23Z"/><circle class="cls-2" cx="1068.68" cy="1574.22" r="10.27"/><circle class="cls-2" cx="1022.97" cy="1574.28" r="10.27"/><circle class="cls-2" cx="981.57" cy="1576.11" r="10.27"/><circle class="cls-2" cx="1137.65" cy="1543.45" r="10.27"/><circle class="cls-2" cx="1091.94" cy="1543.5" r="10.27"/><circle class="cls-2" cx="1046.23" cy="1543.55" r="10.27"/><path class="cls-2" d="M956.29,1554a10,10,0,0,1-2.61.19v-20.51a10.27,10.27,0,0,1,2.61,20.32Z"/><circle class="cls-2" cx="999.96" cy="1543.85" r="10.27"/><circle class="cls-2" cx="1121.73" cy="1639.46" r="10.27"/><circle class="cls-2" cx="1076.03" cy="1639.51" r="10.27"/><circle class="cls-2" cx="1030.32" cy="1639.57" r="10.27"/><circle class="cls-2" cx="988.92" cy="1641.4" r="10.27"/><path class="cls-2" d="M1152.66,1601.89v13.67a10.27,10.27,0,1,1,0-13.67Z"/><circle class="cls-2" cx="1099.29" cy="1608.79" r="10.27"/><circle class="cls-2" cx="1053.58" cy="1608.84" r="10.27"/><path class="cls-2" d="M963.64,1619.26a10.29,10.29,0,0,1-10-3.53v-13.07a10.27,10.27,0,1,1,10,16.6Z"/><circle class="cls-2" cx="1007.31" cy="1609.14" r="10.27"/><path class="cls-2" d="M1110.41,1673.12a10.3,10.3,0,0,1-.32,2.55h-19.91a10.56,10.56,0,0,1-.31-2.53,10.27,10.27,0,1,1,20.54,0Z"/><path class="cls-2" d="M1146.69,1662.84a31.07,31.07,0,0,1-11.07,9.43,10.25,10.25,0,0,1,10.22-9.46C1146.12,1662.81,1146.41,1662.82,1146.69,1662.84Z"/><path class="cls-2" d="M1064.4,1675.67h-19.93a3,3,0,0,1-.1-.45,10.26,10.26,0,0,1,20.12-4.08A10.15,10.15,0,0,1,1064.4,1675.67Z"/><path class="cls-2" d="M1018.7,1675.67H998.76c0-.12-.07-.26-.1-.39a10.27,10.27,0,1,1,20,.39Z"/><path class="cls-2" d="M972.72,1673.19a31.29,31.29,0,0,1-12.57-9.67l.27-.06a10.27,10.27,0,0,1,12.1,8A9.74,9.74,0,0,1,972.72,1673.19Z"/></g></svg>