<svg xmlns="http://www.w3.org/2000/svg" viewBox="0 0 1200 1200"><defs><style>.cls-1{isolation:isolate;}.cls-2{fill:#6562ce;}.cls-3{fill:#8281d8;}.cls-4,.cls-6{fill:#fff;}.cls-4,.cls-8{stroke:#efaf00;}.cls-4,.cls-6,.cls-8{stroke-miterlimit:10;stroke-width:7.04px;}.cls-5{fill:#efaf00;}.cls-6{stroke:#8281d8;}.cls-7{fill:#e8e8f8;mix-blend-mode:multiply;}.cls-8{fill:none;}</style></defs><g class="cls-1"><g id="Layer_1" data-name="Layer 1"><g id="PILL"><rect class="cls-2" x="232.91" y="117.88" width="740.26" height="202.13" rx="59.09"/><rect class="cls-3" x="310.84" y="169" width="20.25" height="98.41" rx="10.12"/><rect class="cls-3" x="404.86" y="169" width="20.25" height="98.41" rx="10.12"/><rect class="cls-3" x="498.89" y="169" width="20.25" height="98.41" rx="10.12"/><rect class="cls-3" x="592.91" y="169" width="20.25" height="98.41" rx="10.12"/><rect class="cls-3" x="686.94" y="169" width="20.25" height="98.41" rx="10.12"/><rect class="cls-3" x="780.96" y="169" width="20.25" height="98.41" rx="10.12"/><rect class="cls-3" x="874.99" y="169" width="20.25" height="98.41" rx="10.12"/><path class="cls-4" d="M682.36,915.38l-37.57-83.07a41.89,41.89,0,1,1,76.33-34.53l37.57,83.07a41.89,41.89,0,0,1-76.33,34.53Z"/><path class="cls-5" d="M682.36,915.38l-18.79-41.54,76.34-34.52,18.78,41.53a41.89,41.89,0,0,1-76.33,34.53Z"/><path class="cls-4" d="M417.68,806.8l.5,91.17a41.89,41.89,0,0,1-83.78.46l-.5-91.17a41.89,41.89,0,0,1,83.78-.46Z"/><path class="cls-5" d="M417.68,806.8l.25,45.58-83.78.46-.25-45.58a41.89,41.89,0,0,1,83.78-.46Z"/><path class="cls-4" d="M683.68,734l-74.33,52.8a41.89,41.89,0,1,1-48.51-68.31l74.33-52.79A41.89,41.89,0,0,1,683.68,734Z"/><path class="cls-5" d="M683.68,734l-37.16,26.4L598,692.09l37.17-26.4A41.89,41.89,0,0,1,683.68,734Z"/><path class="cls-4" d="M516.83,549.41,589.05,605a41.89,41.89,0,1,1-51.12,66.38L465.7,615.78a41.89,41.89,0,0,1,51.13-66.37Z"/><path class="cls-5" d="M516.83,549.41l36.11,27.82L501.81,643.6,465.7,615.78a41.89,41.89,0,0,1,51.13-66.37Z"/><path class="cls-6" d="M867.14,994.54,799.82,1056a41.89,41.89,0,1,1-56.5-61.87l67.33-61.48a41.89,41.89,0,0,1,56.49,61.87Z"/><path class="cls-3" d="M867.14,994.54l-33.66,30.74L777,963.41l33.66-30.74a41.89,41.89,0,0,1,56.49,61.87Z"/><path class="cls-6" d="M485.29,860.4l86.76-28a41.89,41.89,0,1,1,25.74,79.73l-86.76,28a41.89,41.89,0,0,1-25.74-79.73Z"/><path class="cls-3" d="M485.29,860.4l43.38-14,25.74,79.73-43.38,14a41.89,41.89,0,0,1-25.74-79.73Z"/><path class="cls-6" d="M453.14,808.16l-47.45-77.85a41.89,41.89,0,1,1,71.53-43.61l47.46,77.85a41.89,41.89,0,0,1-71.54,43.61Z"/><path class="cls-3" d="M453.14,808.16l-23.73-38.92L501,725.63l23.73,38.92a41.89,41.89,0,0,1-71.54,43.61Z"/><path class="cls-6" d="M330.8,622.67l28.83-86.49a41.89,41.89,0,1,1,79.48,26.5l-28.83,86.49a41.89,41.89,0,0,1-79.48-26.5Z"/><path class="cls-3" d="M330.8,622.67l14.41-43.25,79.48,26.5-14.41,43.25a41.89,41.89,0,0,1-79.48-26.5Z"/><path class="cls-6" d="M889.88,789.69l-39,82.39a41.89,41.89,0,1,1-75.71-35.88l39-82.39a41.89,41.89,0,0,1,75.71,35.88Z"/><path class="cls-3" d="M889.88,789.69l-19.52,41.19L794.65,795l19.52-41.2a41.89,41.89,0,0,1,75.71,35.88Z"/><path class="cls-6" d="M786.42,602.87l24.22,87.89A41.89,41.89,0,1,1,729.86,713l-24.21-87.89a41.89,41.89,0,0,1,80.77-22.25Z"/><path class="cls-3" d="M786.42,602.87l12.11,44-80.77,22.25-12.11-44a41.89,41.89,0,0,1,80.77-22.25Z"/><path class="cls-7" d="M284.58,322H917.21a0,0,0,0,1,0,0V949.89a144,144,0,0,1-144,144H428.55a144,144,0,0,1-144-144V322A0,0,0,0,1,284.58,322Z"/><path class="cls-8" d="M285.54,322.55H918.18a0,0,0,0,1,0,0V950.47a144,144,0,0,1-144,144H429.51a144,144,0,0,1-144-144V322.55A0,0,0,0,1,285.54,322.55Z"/></g></g></g></svg>