<svg id="Layer_1" data-name="Layer 1" xmlns="http://www.w3.org/2000/svg" viewBox="0 0 3046.46 1888.41"><defs><style>.cls-1,.cls-5,.cls-8{fill:#fff;}.cls-1{stroke:#cbe1fd;}.cls-1,.cls-13,.cls-14,.cls-16,.cls-19,.cls-2,.cls-20,.cls-22,.cls-4,.cls-5{stroke-miterlimit:10;}.cls-1,.cls-14,.cls-4{stroke-width:6px;}.cls-13,.cls-14,.cls-16,.cls-17,.cls-19,.cls-2,.cls-20,.cls-21,.cls-22,.cls-4{fill:none;}.cls-2,.cls-20{stroke:#efaf00;}.cls-16,.cls-2,.cls-5{stroke-width:5px;}.cls-3{fill:#efaf00;}.cls-4{stroke:#6562ce;}.cls-16,.cls-5{stroke:#88bed7;}.cls-6{fill:#e4effd;}.cls-7{fill:#cbe1fd;}.cls-9{fill:#88bed7;}.cls-10{fill:#e18c32;}.cls-11{fill:#d97802;}.cls-12{fill:#40465c;}.cls-13{stroke:#db7800;stroke-width:3px;}.cls-13,.cls-14,.cls-17,.cls-22{stroke-linecap:round;}.cls-14{stroke:#c4d7f6;}.cls-15{fill:#e38e32;}.cls-17{stroke:#40465c;stroke-width:4.81px;}.cls-17,.cls-21{stroke-linejoin:round;}.cls-18{fill:#6562ce;}.cls-19,.cls-21,.cls-22{stroke:#fff;stroke-width:2px;}.cls-20{stroke-width:4px;}</style></defs><g id="CURTAIN"><path class="cls-1" d="M1311.39,73.7V1523.24c0,12.72-61.69,23-137.79,23s-137.78-10.32-137.78-23V73.7c0,12.72,61.68,23,137.78,23S1311.39,86.42,1311.39,73.7Z"/><path class="cls-1" d="M1036.32,73.7V1523.24c0,12.72-61.7,23-137.8,23s-137.78-10.32-137.78-23V73.7c0,12.72,61.69,23,137.78,23S1036.32,86.42,1036.32,73.7Z"/><path class="cls-1" d="M1587,73.7V1523.24c0,12.72-61.69,23-137.79,23s-137.78-10.32-137.78-23V73.7c0,12.72,61.68,23,137.78,23S1587,86.42,1587,73.7Z"/><path class="cls-1" d="M1862.53,73.7V1523.24c0,12.72-61.69,23-137.79,23S1587,1536,1587,1523.24V73.7c0,12.72,61.69,23,137.78,23S1862.53,86.42,1862.53,73.7Z"/><path class="cls-1" d="M2138.11,73.7V1523.24c0,12.72-61.7,23-137.8,23s-137.78-10.32-137.78-23V73.7c0,12.72,61.69,23,137.78,23S2138.11,86.42,2138.11,73.7Z"/><rect class="cls-2" x="653.67" y="22.62" width="1639.94" height="24.07" rx="12.03"/><path class="cls-3" d="M1057.48,41.9c0,23.5-9.51,41.91-21.66,41.91-10.73,0-19.47-14.24-21.31-34.24h4.84C1021,66.3,1028,79,1035.82,79c9.13,0,16.85-17,16.85-37.09S1045,4.81,1035.82,4.81c-5.08,0-10.11,5.67-13.33,14.73h-5.07C1021.32,7.25,1028.11,0,1035.82,0,1048,0,1057.48,18.41,1057.48,41.9Z"/><path class="cls-3" d="M784.06,41.9c0,23.5-9.52,41.91-21.67,41.91-10.72,0-19.46-14.24-21.3-34.24h4.84C747.58,66.3,754.57,79,762.39,79c9.14,0,16.85-17,16.85-37.09S771.53,4.81,762.39,4.81c-5.07,0-10.11,5.67-13.32,14.73H744C747.89,7.25,754.68,0,762.39,0,774.54,0,784.06,18.41,784.06,41.9Z"/><path class="cls-3" d="M1311.39,0c-7.89,0-14.67,7.77-18.46,19.66H1298c3.1-8.95,8-14.85,13.37-14.85,9.13,0,16.85,17,16.85,37.09S1320.52,79,1311.39,79c-8,0-14.83-12.87-16.47-29.47h-4.85c1.8,19.75,10.52,34.29,21.32,34.29,12.14,0,21.66-18.41,21.66-41.91S1323.53,0,1311.39,0Z"/><path class="cls-3" d="M1587,0c-7.91,0-14.71,7.82-18.48,19.77h5.07c3.1-9,8-15,13.41-15,9.13,0,16.85,17,16.85,37.09S1596.09,79,1587,79c-7.94,0-14.82-12.84-16.47-29.42h-4.83c1.81,19.72,10.51,34.24,21.3,34.24,12.15,0,21.66-18.41,21.66-41.91S1599.11,0,1587,0Z"/><path class="cls-3" d="M1862.53,0c-7.89,0-14.67,7.77-18.45,19.66h5.08c3.1-8.95,8-14.85,13.37-14.85,9.14,0,16.85,17,16.85,37.09S1871.67,79,1862.53,79c-8,0-14.84-12.9-16.48-29.52h-4.83c1.78,19.77,10.5,34.34,21.31,34.34,12.15,0,21.67-18.41,21.67-41.91S1874.68,0,1862.53,0Z"/><path class="cls-3" d="M2138.11,0c-7.89,0-14.68,7.77-18.46,19.66h5.08c3.11-8.95,8-14.85,13.38-14.85,9.13,0,16.84,17,16.84,37.09S2147.24,79,2138.11,79c-7.94,0-14.81-12.84-16.48-29.42h-4.83c1.81,19.72,10.52,34.24,21.31,34.24,12.15,0,21.66-18.41,21.66-41.91S2150.26,0,2138.11,0Z"/></g><g id="PATIENT_BED" data-name="PATIENT &amp; BED"><g id="BACK_BEDSIDE" data-name="BACK BEDSIDE"><path class="cls-4" d="M799.8,1143.91h545.12a110,110,0,0,1,110,110v254a0,0,0,0,1,0,0H689.83a0,0,0,0,1,0,0v-254A110,110,0,0,1,799.8,1143.91Z"/><line class="cls-4" x1="687.47" y1="1300.85" x2="1454.89" y2="1300.85"/><path class="cls-5" d="M1119.75,1515.56H994.86L703.41,946.33l5.5-2.81A104.39,104.39,0,0,1,757.29,932h.29a104.91,104.91,0,0,1,92.62,57.15Z"/><path class="cls-6" d="M1797.34,1506.89h-667L860.79,980.45a104.9,104.9,0,0,0-92.62-57.14h667a104.93,104.93,0,0,1,92.64,57.14Z"/><path class="cls-7" d="M2400.14,1504.77v2.12H1005.45l-.54-1.05L714,937.67l5.5-2.81a104.39,104.39,0,0,1,48.38-11.55h.29a104.9,104.9,0,0,1,92.62,57.14l216,421.79a108.69,108.69,0,0,1,37.2-6.52H2291.09A109.05,109.05,0,0,1,2400.14,1504.77Z"/><path class="cls-4" d="M2118,1608.47v128.26a27,27,0,0,0,27,27h0a61.18,61.18,0,0,1,61.17,61.18v5.9"/><circle class="cls-6" cx="2130.35" cy="1836.58" r="48.87"/><circle class="cls-4" cx="2140.94" cy="1826.95" r="48.87"/><path class="cls-4" d="M2928.8,1608.47v128.26a27,27,0,0,0,27,27h0A61.18,61.18,0,0,1,3017,1824.9v5.9"/><circle class="cls-6" cx="2941.2" cy="1836.58" r="48.87"/><circle class="cls-4" cx="2951.79" cy="1826.95" r="48.87"/><line class="cls-4" x1="2117.95" y1="1687.06" x2="2928.8" y2="1687.06"/><path class="cls-4" d="M735.2,1608.47v128.26a27,27,0,0,1-27,27h0A61.18,61.18,0,0,0,647,1824.9v5.9"/><circle class="cls-6" cx="701.62" cy="1836.58" r="48.87"/><circle class="cls-4" cx="712.21" cy="1826.95" r="48.87"/><path class="cls-4" d="M1414.16,1608.47v128.26a27,27,0,0,1-27,27h0A61.18,61.18,0,0,0,1326,1824.9v5.9"/><circle class="cls-6" cx="1380.57" cy="1836.58" r="48.87"/><circle class="cls-4" cx="1391.16" cy="1826.95" r="48.87"/><line class="cls-4" x1="1414.16" y1="1687.06" x2="735.2" y2="1687.06"/></g><g id="PATIENT"><g id="SHIRT"><path id="SHIRT-2" data-name="SHIRT" class="cls-8" d="M1228,1020.3c-35.92,13.18-98.22,39-122.17,71.64S1056,1230.85,1056,1230.85s40.22,46,171,40.27c0,0,68.53,124.6,235.28,124.6,0,0,63.72-127.67,192.86-156.77,0,0-33.07,13.22-81.66-4.6-32.59-11.94-42.21-48.52-42.21-48.52s37.66-28.35,47-58.44c0,0-74.75-92-110.21-101.58s-114.94-12.33-114.94-12.33Z"/><g id="PATTERN"><circle class="cls-6" cx="1250.53" cy="1050.73" r="6.18"/><circle class="cls-6" cx="1277.99" cy="1049.31" r="6.18"/><circle class="cls-6" cx="1305.44" cy="1047.88" r="6.18"/><circle class="cls-6" cx="1332.89" cy="1046.46" r="6.18"/><circle class="cls-6" cx="1360.34" cy="1045.03" r="6.18"/><circle class="cls-6" cx="1387.79" cy="1043.61" r="6.18"/><circle class="cls-6" cx="1415.24" cy="1042.18" r="6.18"/><circle class="cls-6" cx="1442.7" cy="1040.76" r="6.18"/><circle class="cls-6" cx="1470.15" cy="1039.33" r="6.18"/><circle class="cls-6" cx="1223.08" cy="1052.16" r="6.18"/><circle class="cls-6" cx="1195.63" cy="1053.58" r="6.18"/><circle class="cls-6" cx="1170.82" cy="1055.94" r="6.18"/><circle class="cls-6" cx="1263.57" cy="1034.46" r="6.18"/><circle class="cls-6" cx="1291.02" cy="1033.03" r="6.18"/><circle class="cls-6" cx="1318.47" cy="1031.61" r="6.18"/><circle class="cls-6" cx="1345.92" cy="1030.18" r="6.18"/><circle class="cls-6" cx="1373.38" cy="1028.76" r="6.18"/><circle class="cls-6" cx="1400.83" cy="1027.33" r="6.18"/><circle class="cls-6" cx="1428.28" cy="1025.91" r="6.18"/><path class="cls-6" d="M1461.9,1024.3a6.17,6.17,0,1,1-11.83-2.27C1454.26,1022.73,1458.24,1023.48,1461.9,1024.3Z"/><circle class="cls-6" cx="1236.12" cy="1035.88" r="6.18"/><circle class="cls-6" cx="1208.67" cy="1037.31" r="6.18"/><circle class="cls-6" cx="1256.42" cy="1089.46" r="6.18"/><circle class="cls-6" cx="1283.87" cy="1088.03" r="6.18"/><circle class="cls-6" cx="1311.32" cy="1086.61" r="6.18"/><circle class="cls-6" cx="1338.78" cy="1085.18" r="6.18"/><circle class="cls-6" cx="1366.23" cy="1083.76" r="6.18"/><circle class="cls-6" cx="1393.68" cy="1082.33" r="6.18"/><circle class="cls-6" cx="1421.13" cy="1080.91" r="6.18"/><circle class="cls-6" cx="1448.58" cy="1079.48" r="6.18"/><circle class="cls-6" cx="1476.04" cy="1078.06" r="6.18"/><circle class="cls-6" cx="1228.97" cy="1090.88" r="6.18"/><circle class="cls-6" cx="1201.52" cy="1092.31" r="6.18"/><circle class="cls-6" cx="1176.71" cy="1094.67" r="6.18"/><path class="cls-6" d="M1533.7,1077.26a6.17,6.17,0,1,1-8.31-8.43C1528.2,1071.62,1531,1074.44,1533.7,1077.26Z"/><circle class="cls-6" cx="1500.85" cy="1075.69" r="6.18"/><circle class="cls-6" cx="1121.12" cy="1097.05" r="6.18"/><circle class="cls-6" cx="1148.58" cy="1095.62" r="6.18"/><circle class="cls-6" cx="1269.46" cy="1070.3" r="6.18"/><circle class="cls-6" cx="1296.91" cy="1068.87" r="6.18"/><circle class="cls-6" cx="1324.36" cy="1067.45" r="6.18"/><circle class="cls-6" cx="1351.81" cy="1066.02" r="6.18"/><circle class="cls-6" cx="1379.26" cy="1064.6" r="6.18"/><circle class="cls-6" cx="1406.72" cy="1063.17" r="6.18"/><circle class="cls-6" cx="1434.17" cy="1061.75" r="6.18"/><circle class="cls-6" cx="1461.62" cy="1060.32" r="6.18"/><circle class="cls-6" cx="1489.07" cy="1058.9" r="6.18"/><circle class="cls-6" cx="1242" cy="1071.72" r="6.18"/><circle class="cls-6" cx="1214.55" cy="1073.15" r="6.18"/><circle class="cls-6" cx="1131.87" cy="1077.58" r="6.18"/><circle class="cls-6" cx="1159.32" cy="1076.16" r="6.18"/><circle class="cls-6" cx="1186.77" cy="1074.73" r="6.18"/><circle class="cls-6" cx="1316.11" cy="1125.09" r="6.18"/><circle class="cls-6" cx="1343.57" cy="1123.66" r="6.18"/><circle class="cls-6" cx="1371.02" cy="1122.24" r="6.18"/><circle class="cls-6" cx="1398.47" cy="1120.81" r="6.18"/><circle class="cls-6" cx="1425.92" cy="1119.39" r="6.18"/><circle class="cls-6" cx="1453.37" cy="1117.96" r="6.18"/><circle class="cls-6" cx="1480.83" cy="1116.54" r="6.18"/><circle class="cls-6" cx="1508.28" cy="1115.11" r="6.18"/><circle class="cls-6" cx="1535.73" cy="1113.69" r="6.18"/><circle class="cls-6" cx="1288.66" cy="1126.51" r="6.18"/><circle class="cls-6" cx="1261.21" cy="1127.94" r="6.18"/><circle class="cls-6" cx="1236.4" cy="1130.3" r="6.18"/><path class="cls-6" d="M1566.4,1113.23a6.13,6.13,0,0,1-4.33,4.08,6.18,6.18,0,1,1-3.06-12l.44-.09C1562,1108.12,1564.31,1110.79,1566.4,1113.23Z"/><circle class="cls-6" cx="1098.46" cy="1136.95" r="6.18"/><circle class="cls-6" cx="1125.91" cy="1135.53" r="6.18"/><circle class="cls-6" cx="1153.37" cy="1134.1" r="6.18"/><circle class="cls-6" cx="1180.82" cy="1132.68" r="6.18"/><circle class="cls-6" cx="1208.27" cy="1131.25" r="6.18"/><circle class="cls-6" cx="1329.15" cy="1105.93" r="6.18"/><circle class="cls-6" cx="1356.6" cy="1104.5" r="6.18"/><circle class="cls-6" cx="1384.05" cy="1103.08" r="6.18"/><circle class="cls-6" cx="1411.51" cy="1101.65" r="6.18"/><circle class="cls-6" cx="1438.96" cy="1100.23" r="6.18"/><circle class="cls-6" cx="1466.41" cy="1098.8" r="6.18"/><circle class="cls-6" cx="1493.86" cy="1097.38" r="6.18"/><circle class="cls-6" cx="1521.31" cy="1095.95" r="6.18"/><path class="cls-6" d="M1553.46,1098.52a6,6,0,0,1-3.16,2,6.18,6.18,0,0,1-5.08-11C1548.09,1092.57,1550.86,1095.6,1553.46,1098.52Z"/><circle class="cls-6" cx="1301.7" cy="1107.35" r="6.18"/><circle class="cls-6" cx="1274.25" cy="1108.78" r="6.18"/><circle class="cls-6" cx="1109.2" cy="1117.49" r="6.18"/><circle class="cls-6" cx="1136.66" cy="1116.06" r="6.18"/><circle class="cls-6" cx="1164.11" cy="1114.64" r="6.18"/><circle class="cls-6" cx="1191.56" cy="1113.21" r="6.18"/><circle class="cls-6" cx="1219.01" cy="1111.79" r="6.18"/><circle class="cls-6" cx="1246.46" cy="1110.36" r="6.18"/><circle class="cls-6" cx="1322.52" cy="1164.08" r="6.18"/><circle class="cls-6" cx="1349.97" cy="1162.65" r="6.18"/><circle class="cls-6" cx="1377.42" cy="1161.23" r="6.18"/><circle class="cls-6" cx="1404.87" cy="1159.8" r="6.18"/><circle class="cls-6" cx="1432.32" cy="1158.38" r="6.18"/><circle class="cls-6" cx="1459.78" cy="1156.95" r="6.18"/><circle class="cls-6" cx="1487.23" cy="1155.53" r="6.18"/><circle class="cls-6" cx="1514.68" cy="1154.1" r="6.18"/><circle class="cls-6" cx="1542.13" cy="1152.68" r="6.18"/><circle class="cls-6" cx="1295.06" cy="1165.5" r="6.18"/><circle class="cls-6" cx="1267.61" cy="1166.93" r="6.18"/><circle class="cls-6" cx="1242.8" cy="1169.29" r="6.18"/><path class="cls-6" d="M1569.94,1144.91a119.23,119.23,0,0,1-7.13,10,6.18,6.18,0,0,1,2.6-10.57A6.19,6.19,0,0,1,1569.94,1144.91Z"/><circle class="cls-6" cx="1077.41" cy="1177.37" r="6.18"/><circle class="cls-6" cx="1104.86" cy="1175.94" r="6.18"/><circle class="cls-6" cx="1132.32" cy="1174.52" r="6.18"/><circle class="cls-6" cx="1159.77" cy="1173.09" r="6.18"/><circle class="cls-6" cx="1187.22" cy="1171.67" r="6.18"/><circle class="cls-6" cx="1214.67" cy="1170.24" r="6.18"/><circle class="cls-6" cx="1335.55" cy="1144.92" r="6.18"/><circle class="cls-6" cx="1363" cy="1143.49" r="6.18"/><circle class="cls-6" cx="1390.46" cy="1142.07" r="6.18"/><circle class="cls-6" cx="1417.91" cy="1140.64" r="6.18"/><circle class="cls-6" cx="1445.36" cy="1139.22" r="6.18"/><circle class="cls-6" cx="1472.81" cy="1137.79" r="6.18"/><circle class="cls-6" cx="1500.26" cy="1136.37" r="6.18"/><circle class="cls-6" cx="1527.72" cy="1134.94" r="6.18"/><circle class="cls-6" cx="1555.17" cy="1133.52" r="6.18"/><circle class="cls-6" cx="1308.1" cy="1146.34" r="6.18"/><circle class="cls-6" cx="1280.65" cy="1147.77" r="6.18"/><circle class="cls-6" cx="1088.16" cy="1157.9" r="6.18"/><circle class="cls-6" cx="1115.61" cy="1156.48" r="6.18"/><circle class="cls-6" cx="1143.06" cy="1155.05" r="6.18"/><circle class="cls-6" cx="1170.51" cy="1153.63" r="6.18"/><circle class="cls-6" cx="1197.96" cy="1152.2" r="6.18"/><circle class="cls-6" cx="1225.41" cy="1150.78" r="6.18"/><circle class="cls-6" cx="1252.87" cy="1149.35" r="6.18"/><circle class="cls-6" cx="1297.54" cy="1204.12" r="6.18"/><circle class="cls-6" cx="1324.99" cy="1202.7" r="6.18"/><circle class="cls-6" cx="1352.44" cy="1201.27" r="6.18"/><circle class="cls-6" cx="1379.89" cy="1199.85" r="6.18"/><circle class="cls-6" cx="1407.34" cy="1198.42" r="6.18"/><circle class="cls-6" cx="1434.8" cy="1197" r="6.18"/><circle class="cls-6" cx="1462.25" cy="1195.57" r="6.18"/><circle class="cls-6" cx="1489.7" cy="1194.15" r="6.18"/><circle class="cls-6" cx="1517.15" cy="1192.72" r="6.18"/><circle class="cls-6" cx="1270.08" cy="1205.55" r="6.18"/><circle class="cls-6" cx="1242.63" cy="1206.97" r="6.18"/><circle class="cls-6" cx="1217.82" cy="1209.33" r="6.18"/><circle class="cls-6" cx="1079.88" cy="1215.98" r="6.18"/><circle class="cls-6" cx="1107.34" cy="1214.56" r="6.18"/><circle class="cls-6" cx="1134.79" cy="1213.13" r="6.18"/><circle class="cls-6" cx="1162.24" cy="1211.71" r="6.18"/><circle class="cls-6" cx="1189.69" cy="1210.28" r="6.18"/><circle class="cls-6" cx="1310.57" cy="1184.96" r="6.18"/><circle class="cls-6" cx="1338.02" cy="1183.53" r="6.18"/><circle class="cls-6" cx="1365.48" cy="1182.11" r="6.18"/><circle class="cls-6" cx="1392.93" cy="1180.68" r="6.18"/><circle class="cls-6" cx="1420.38" cy="1179.26" r="6.18"/><circle class="cls-6" cx="1447.83" cy="1177.83" r="6.18"/><circle class="cls-6" cx="1475.28" cy="1176.41" r="6.18"/><circle class="cls-6" cx="1502.74" cy="1174.98" r="6.18"/><circle class="cls-6" cx="1530.19" cy="1173.56" r="6.18"/><circle class="cls-6" cx="1283.12" cy="1186.38" r="6.18"/><circle class="cls-6" cx="1255.67" cy="1187.81" r="6.18"/><path class="cls-6" d="M1063.5,1204.11h-.44c1-3.59,2.08-7.44,3.25-11.48a6.17,6.17,0,0,1-2.81,11.48Z"/><circle class="cls-6" cx="1090.63" cy="1196.52" r="6.18"/><circle class="cls-6" cx="1118.08" cy="1195.1" r="6.18"/><circle class="cls-6" cx="1145.53" cy="1193.67" r="6.18"/><circle class="cls-6" cx="1172.98" cy="1192.25" r="6.18"/><circle class="cls-6" cx="1200.43" cy="1190.82" r="6.18"/><circle class="cls-6" cx="1227.89" cy="1189.4" r="6.18"/><circle class="cls-6" cx="1302.26" cy="1244.16" r="6.18"/><circle class="cls-6" cx="1329.72" cy="1242.74" r="6.18"/><circle class="cls-6" cx="1357.17" cy="1241.31" r="6.18"/><circle class="cls-6" cx="1384.62" cy="1239.89" r="6.18"/><circle class="cls-6" cx="1412.07" cy="1238.46" r="6.18"/><circle class="cls-6" cx="1439.52" cy="1237.04" r="6.18"/><circle class="cls-6" cx="1466.97" cy="1235.61" r="6.18"/><circle class="cls-6" cx="1494.43" cy="1234.19" r="6.18"/><circle class="cls-6" cx="1521.88" cy="1232.76" r="6.18"/><circle class="cls-6" cx="1274.81" cy="1245.59" r="6.18"/><circle class="cls-6" cx="1247.36" cy="1247.01" r="6.18"/><circle class="cls-6" cx="1222.55" cy="1249.38" r="6.18"/><circle class="cls-6" cx="1546.69" cy="1230.4" r="6.18"/><path class="cls-6" d="M1113.94,1260.47a5.33,5.33,0,0,1-1.56.3,6.12,6.12,0,0,1-5.12-2.3C1109.42,1259.16,1111.63,1259.83,1113.94,1260.47Z"/><path class="cls-6" d="M1118.23,1254.28a6.15,6.15,0,0,1-4.28,6.19h0c-2.31-.64-4.52-1.31-6.68-2h0a6,6,0,0,1-1.35-3.55,6.17,6.17,0,1,1,12.33-.64Z"/><circle class="cls-6" cx="1139.51" cy="1253.18" r="6.18"/><circle class="cls-6" cx="1166.97" cy="1251.75" r="6.18"/><circle class="cls-6" cx="1194.42" cy="1250.33" r="6.18"/><circle class="cls-6" cx="1315.3" cy="1225" r="6.18"/><circle class="cls-6" cx="1342.75" cy="1223.58" r="6.18"/><circle class="cls-6" cx="1370.2" cy="1222.15" r="6.18"/><circle class="cls-6" cx="1397.65" cy="1220.73" r="6.18"/><circle class="cls-6" cx="1425.11" cy="1219.3" r="6.18"/><circle class="cls-6" cx="1452.56" cy="1217.88" r="6.18"/><circle class="cls-6" cx="1480.01" cy="1216.45" r="6.18"/><circle class="cls-6" cx="1507.46" cy="1215.03" r="6.18"/><circle class="cls-6" cx="1534.91" cy="1213.6" r="6.18"/><circle class="cls-6" cx="1287.85" cy="1226.43" r="6.18"/><circle class="cls-6" cx="1260.4" cy="1227.85" r="6.18"/><path class="cls-6" d="M1074.07,1237.67a6.2,6.2,0,0,1-2.33,5.17,99.88,99.88,0,0,1-9.74-6.67,6.18,6.18,0,0,1,12.07,1.5Z"/><circle class="cls-6" cx="1095.35" cy="1236.56" r="6.18"/><circle class="cls-6" cx="1122.81" cy="1235.14" r="6.18"/><circle class="cls-6" cx="1150.26" cy="1233.71" r="6.18"/><circle class="cls-6" cx="1177.71" cy="1232.29" r="6.18"/><circle class="cls-6" cx="1205.16" cy="1230.86" r="6.18"/><circle class="cls-6" cx="1232.61" cy="1229.44" r="6.18"/><circle class="cls-6" cx="1360.23" cy="1280.36" r="6.18"/><circle class="cls-6" cx="1387.68" cy="1278.93" r="6.18"/><circle class="cls-6" cx="1415.13" cy="1277.51" r="6.18"/><circle class="cls-6" cx="1442.58" cy="1276.08" r="6.18"/><circle class="cls-6" cx="1470.03" cy="1274.66" r="6.18"/><circle class="cls-6" cx="1497.49" cy="1273.23" r="6.18"/><circle class="cls-6" cx="1524.94" cy="1271.81" r="6.18"/><circle class="cls-6" cx="1552.39" cy="1270.38" r="6.18"/><circle class="cls-6" cx="1332.77" cy="1281.78" r="6.18"/><circle class="cls-6" cx="1305.32" cy="1283.21" r="6.18"/><circle class="cls-6" cx="1280.51" cy="1285.57" r="6.18"/><circle class="cls-6" cx="1252.38" cy="1286.52" r="6.18"/><circle class="cls-6" cx="1373.26" cy="1261.19" r="6.18"/><circle class="cls-6" cx="1400.71" cy="1259.77" r="6.18"/><circle class="cls-6" cx="1428.17" cy="1258.34" r="6.18"/><circle class="cls-6" cx="1455.62" cy="1256.92" r="6.18"/><circle class="cls-6" cx="1483.07" cy="1255.49" r="6.18"/><circle class="cls-6" cx="1510.52" cy="1254.07" r="6.18"/><circle class="cls-6" cx="1537.97" cy="1252.64" r="6.18"/><circle class="cls-6" cx="1565.43" cy="1251.22" r="6.18"/><circle class="cls-6" cx="1345.81" cy="1262.62" r="6.18"/><circle class="cls-6" cx="1318.36" cy="1264.04" r="6.18"/><path class="cls-6" d="M1187,1271.27q-6.35-.27-12.31-.69a6.18,6.18,0,0,1,12.3.43A2.17,2.17,0,0,1,1187,1271.27Z"/><path class="cls-6" d="M1214.39,1269.58a6,6,0,0,1-.21,2q-6.09.1-11.89.08a5.69,5.69,0,0,1-.23-1.38,6.17,6.17,0,1,1,12.33-.65Z"/><circle class="cls-6" cx="1235.67" cy="1268.48" r="6.18"/><circle class="cls-6" cx="1263.12" cy="1267.05" r="6.18"/><circle class="cls-6" cx="1290.58" cy="1265.63" r="6.18"/><circle class="cls-6" cx="1367.43" cy="1321.25" r="6.18"/><circle class="cls-6" cx="1394.88" cy="1319.82" r="6.18"/><circle class="cls-6" cx="1422.33" cy="1318.4" r="6.18"/><circle class="cls-6" cx="1449.78" cy="1316.97" r="6.18"/><circle class="cls-6" cx="1477.23" cy="1315.55" r="6.18"/><circle class="cls-6" cx="1504.68" cy="1314.12" r="6.18"/><circle class="cls-6" cx="1339.97" cy="1322.67" r="6.18"/><circle class="cls-6" cx="1312.52" cy="1324.1" r="6.18"/><circle class="cls-6" cx="1287.71" cy="1326.46" r="6.18"/><circle class="cls-6" cx="1380.46" cy="1302.09" r="6.18"/><circle class="cls-6" cx="1407.91" cy="1300.66" r="6.18"/><circle class="cls-6" cx="1435.36" cy="1299.24" r="6.18"/><circle class="cls-6" cx="1462.82" cy="1297.81" r="6.18"/><circle class="cls-6" cx="1490.27" cy="1296.39" r="6.18"/><circle class="cls-6" cx="1517.72" cy="1294.96" r="6.18"/><circle class="cls-6" cx="1353.01" cy="1303.51" r="6.18"/><circle class="cls-6" cx="1325.56" cy="1304.94" r="6.18"/><circle class="cls-6" cx="1270.32" cy="1307.95" r="6.18"/><circle class="cls-6" cx="1297.78" cy="1306.52" r="6.18"/><circle class="cls-6" cx="1367.43" cy="1364.57" r="6.18"/><circle class="cls-6" cx="1394.88" cy="1363.15" r="6.18"/><circle class="cls-6" cx="1422.33" cy="1361.72" r="6.18"/><circle class="cls-6" cx="1449.78" cy="1360.3" r="6.18"/><circle class="cls-6" cx="1477.23" cy="1358.87" r="6.18"/><circle class="cls-6" cx="1339.97" cy="1364.07" r="6.18"/><circle class="cls-6" cx="1380.46" cy="1345.41" r="6.18"/><circle class="cls-6" cx="1407.91" cy="1343.99" r="6.18"/><circle class="cls-6" cx="1435.36" cy="1342.56" r="6.18"/><circle class="cls-6" cx="1462.82" cy="1341.14" r="6.18"/><circle class="cls-6" cx="1490.27" cy="1339.71" r="6.18"/><circle class="cls-6" cx="1353.01" cy="1346.84" r="6.18"/><circle class="cls-6" cx="1325.56" cy="1348.26" r="6.18"/></g></g><path id="BLANKET" class="cls-9" d="M1350.92,1506.89s61.85-261.59,288.35-291.79,893.22,5.92,1047.83,45.53,300,128.46,300.93,245.75l-814.54.51Z"/><g id="HEAD"><g id="NECK"><path id="NECK-2" data-name="NECK" class="cls-10" d="M1259,930.76s1.92,41.17-30.91,89.54c0,0,65.71,28.87,139.17,1,0,0-44-14.73-27.08-90.5Z"/><path id="SHADOW" class="cls-11" d="M1346.68,1003.46a7.47,7.47,0,0,1-2.73,2.17c-10.72,4.66-51.12,6.88-75.73-34-6.17-10.26-7.68-29.42-9.25-39.41,0-1,0-1.48,0-1.48h81.17C1331.87,967.74,1338.12,990.18,1346.68,1003.46Z"/></g><path id="HAIR" class="cls-12" d="M1366.1,885.47c-.16-5.54-3.35-21.78-12-13.2-9.6,9.48-42.17,8.94-57.5-1.37-13.22-8.89-21.8.07-22.59,17.53a33.54,33.54,0,0,1-12.15,24.51l-15.45-4.41s-25.31-70.76,24.43-88.23c45.63-16,85.7,15.34,90.46,29.71C1365.29,862.1,1366.1,885.47,1366.1,885.47Z"/><path id="HEAD-2" data-name="HEAD" class="cls-10" d="M1366.1,931.46c-6.82,50.63-18.69,47.89-26,51.07-10.72,4.65-45-.44-59.36-13.77-5.22-4.86-17.63-27.48-21.13-33.93l0,.23s-18.45-18.69-15.11-25.57c5.42-11.19,15.82.38,18,3a33.74,33.74,0,0,0,11.55-24c.79-17.46,9.37-26.42,22.59-17.53,15.33,10.31,47.9,10.85,57.5,1.37,6.05-6,10,1.16,11.79,7.85C1367.24,899.57,1366.86,925.82,1366.1,931.46Z"/></g><g id="HANDS"><g id="LEFT_HAND" data-name="LEFT HAND"><path id="HAND" class="cls-10" d="M1562.63,1303.93s-3,6.25-9.66,2.37c-4.43-2.57-13.17-9.85-18.82-12.61,8.27,9.63,16.5,19.76,16.5,19.76a31.13,31.13,0,0,1-19,8.53c-5.87.57-17.15-9.67-26.74-15.18s-20.21,5.83-34,10c-10.43,3.15-25.62-9.31-32.42-15.59-24.68,20.8-108.82,85.68-207.58,94.5-118.86,10.62-123.15-135.56-123.15-135.56,69,15.84,119.3,11,119.3,11l9.24,14.05c130.42-20.67,192.13-19.29,209.79-18.17,24.48,0,63.2,7.89,70.57,9.37,6.86.5,20.5,4.67,25.49,8.26C1547.37,1288.38,1562.63,1303.93,1562.63,1303.93Z"/><path class="cls-13" d="M1542.71,1315.88s-21.54-25.2-26.91-26.88c-9.46-3-21.82-6.89-21.82-6.89"/><path class="cls-13" d="M1535.32,1319.45s-19.82-21.14-25.19-22.82c-9.46-3-21.82-6.9-21.82-6.9"/><path id="SHADOW-2" data-name="SHADOW" class="cls-11" d="M1236.32,1285.17s-64.73-4-120.9,20.67a212,212,0,0,1-7.64-45.69c69,15.83,119.3,11,119.3,11Z"/><path class="cls-14" d="M1236.78,1281.56S1212,1239.87,1202,1196.8"/></g><g id="RIGHT_HAND" data-name="RIGHT HAND"><path id="HAND-2" data-name="HAND" class="cls-15" d="M1919.31,1218.25s-2.64,17.74-3.76,20.76-17.25,29-27.34,33.08-53.15-3.65-61.61-5.12c-.59-.1-1.17-.22-1.74-.35-35.52-.23-189.67,1.82-233.13-12.8-26.73-9-81.21-47.8-83.12-66.58,0,0,43.71-13.89,66.35-51.35,0,0,36.39,43.46,47,42.61,53.14-4.24,147,37,192.43,55.29l.17-.18c14-14.29,42.2-25.44,46.56-25.25s27.1,1.13,27.1,1.13c0,.18,0,8.58-5.72,12.35-3.76,2.49-18.3,1.24-19.61,7.23s5.74,9.82,9.51,10.29c9.06,1.12,26.68.49,32.32-14C1909.43,1213.2,1919.31,1218.25,1919.31,1218.25Z"/><path id="SHADOW-3" data-name="SHADOW" class="cls-11" d="M1505.65,1188.24s49-16.7,69.31-52.35l10.84,12.35s-43.82,31.63-46.57,73.91C1539.23,1222.15,1511.82,1202.7,1505.65,1188.24Z"/><g id="DRIP"><path class="cls-16" d="M1641.84,752.91v438.7c0,17.13-9.22,21.64-15.86,21.64h-1.47c-10.73,0-18.72-9.59-18.72-16.22"/><polygon class="cls-8" points="1593.01 1211.26 1619.84 1191.13 1603.57 1179.32 1577.69 1198.48 1593.01 1211.26"/></g><path class="cls-14" d="M1479.16,1150.63s21.49,51.45,73.9,86.3"/></g></g></g><g id="FRONT_BEDSIDE" data-name="FRONT BEDSIDE"><path class="cls-6" d="M2282.53,1395.72h595.53a109,109,0,0,1,109,109v2.12a0,0,0,0,1,0,0H2173.49a0,0,0,0,1,0,0v-2.12A109,109,0,0,1,2282.53,1395.72Z"/><path class="cls-4" d="M2877.15,1142.94H2283.46a110,110,0,0,0-110,110v254h813.63v-254A110,110,0,0,0,2877.15,1142.94Z"/><line class="cls-4" x1="2169.95" y1="1299.89" x2="2987.12" y2="1299.89"/><rect class="cls-5" x="2206.71" y="1506.89" width="809.84" height="101.58"/><rect class="cls-5" x="645.87" y="1506.89" width="1560.84" height="101.58"/></g><circle class="cls-12" cx="1354.09" cy="907.78" r="5.2"/><circle class="cls-12" cx="1311.06" cy="907.78" r="5.2"/><polyline class="cls-17" points="1334.23 903.11 1341.46 936.44 1329.43 936.44"/><path class="cls-17" d="M1307.73,944.83s9.14,9.15,26.77,6.82"/></g><g id="LIFE_SUPPORT" data-name="LIFE SUPPORT"><polygon class="cls-7" points="123.19 1123.48 123.19 1079.87 435.9 1079.87 435.9 1085.27 123.19 1123.48"/><path class="cls-16" d="M79.77,1789.66v11.73a14.42,14.42,0,0,1-14.42,14.42h0a32.7,32.7,0,0,0-32.69,32.69v3.16"/><circle class="cls-2" cx="68.45" cy="1850.56" r="26.12"/><path class="cls-16" d="M224.19,1789.66v11.73a14.43,14.43,0,0,1-14.42,14.42h0a32.69,32.69,0,0,0-32.69,32.69v3.16"/><circle class="cls-2" cx="212.86" cy="1850.56" r="26.12"/><path class="cls-16" d="M487.44,1789.66v11.73a14.42,14.42,0,0,0,14.42,14.42h0a32.7,32.7,0,0,1,32.69,32.69v3.16"/><circle class="cls-2" cx="498.76" cy="1850.56" r="26.12"/><rect class="cls-5" x="2.5" y="1123.49" width="396.95" height="665.26" rx="38.6"/><rect class="cls-5" x="159.67" y="1123.49" width="396.95" height="665.26" rx="38.6"/><rect class="cls-5" x="174.65" y="1149.14" width="368.13" height="189.49" rx="17.24"/><rect class="cls-6" x="285.37" y="1242.62" width="128.65" height="14.91" rx="6.97"/><rect class="cls-2" x="294.31" y="1236.22" width="128.65" height="13.85" rx="6.93"/><rect class="cls-5" x="174.65" y="1359.91" width="368.13" height="189.49" rx="17.24"/><rect class="cls-6" x="285.37" y="1453.38" width="128.65" height="14.91" rx="6.97"/><rect class="cls-2" x="294.31" y="1446.98" width="128.65" height="13.85" rx="6.93"/><rect class="cls-5" x="174.65" y="1570.67" width="368.13" height="189.49" rx="17.24"/><rect class="cls-6" x="285.37" y="1664.18" width="128.65" height="14.91" rx="6.97"/><rect class="cls-2" x="294.31" y="1657.75" width="128.65" height="13.85" rx="6.93"/><path class="cls-2" d="M469.76,937h36.47a127,127,0,0,1,127,127v296.8a91.62,91.62,0,0,0,91.62,91.62h442.66c.79,0,1.58,0,2.36,0,62.52-1.58,101.08-69.19,71.9-124.5l-28.3-52.7"/><rect class="cls-16" x="123.19" y="1079.87" width="312.71" height="43.61"/><path class="cls-5" d="M55.49,803.78H182.6a0,0,0,0,1,0,0v276.1a0,0,0,0,1,0,0H55.49A14.49,14.49,0,0,1,41,1065.38V818.27A14.49,14.49,0,0,1,55.49,803.78Z"/><path class="cls-5" d="M498.8,1079.87H179.54a23.13,23.13,0,0,1-22-16l-79-243.67A12.55,12.55,0,0,1,90.5,803.78H409.76a23.14,23.14,0,0,1,22,16l79,243.67A12.54,12.54,0,0,1,498.8,1079.87Z"/><path class="cls-18" d="M377.7,999.06H176A14.62,14.62,0,0,1,162,989l-49.9-154a7.93,7.93,0,0,1,7.54-10.37H321.43a14.61,14.61,0,0,1,13.91,10.11l49.9,154A7.93,7.93,0,0,1,377.7,999.06Z"/><polyline class="cls-19" points="319.49 999.74 303.87 951.54 374.34 951.54"/><path class="cls-7" d="M429,1000h-1.45c-10.33,0-20.65-6.65-25.57-16.48h0c-7.14-14.27.92-28.9,15.92-28.9h1.44c10.34,0,20.66,6.65,25.58,16.48h0C452.09,985.39,444,1000,429,1000Z"/><path class="cls-20" d="M436.31,997.41h-1.44c-10.34,0-20.66-6.65-25.58-16.48h0c-7.14-14.27.92-28.9,15.92-28.9h1.45c10.33,0,20.65,6.66,25.57,16.48h0C459.37,982.78,451.31,997.41,436.31,997.41Z"/><path class="cls-7" d="M379.91,844.65h-23.2a1.69,1.69,0,0,1-1.6-1.17l-5.73-17.7a.91.91,0,0,1,.86-1.19h23.2a1.67,1.67,0,0,1,1.6,1.16l5.74,17.7A.92.92,0,0,1,379.91,844.65Z"/><path class="cls-7" d="M416.49,844.65H393.3a1.67,1.67,0,0,1-1.6-1.17L386,825.78a.91.91,0,0,1,.87-1.19H410a1.66,1.66,0,0,1,1.59,1.16l5.74,17.7A.92.92,0,0,1,416.49,844.65Z"/><path class="cls-7" d="M389.17,874.89H366a1.68,1.68,0,0,1-1.6-1.17L358.64,856a.9.9,0,0,1,.86-1.19h23.2a1.69,1.69,0,0,1,1.6,1.16l5.74,17.7A.92.92,0,0,1,389.17,874.89Z"/><path class="cls-7" d="M425.75,874.89H402.56a1.67,1.67,0,0,1-1.6-1.17L395.22,856a.91.91,0,0,1,.87-1.19h23.19a1.68,1.68,0,0,1,1.6,1.16l5.74,17.7A.92.92,0,0,1,425.75,874.89Z"/><path class="cls-7" d="M400.24,907.68H377.05a1.68,1.68,0,0,1-1.6-1.16l-5.74-17.71a.91.91,0,0,1,.87-1.19h23.19a1.68,1.68,0,0,1,1.6,1.16l5.74,17.71A.91.91,0,0,1,400.24,907.68Z"/><path class="cls-7" d="M436.83,907.68h-23.2a1.69,1.69,0,0,1-1.6-1.16l-5.73-17.71a.9.9,0,0,1,.86-1.19h23.2a1.69,1.69,0,0,1,1.6,1.16l5.74,17.71A.91.91,0,0,1,436.83,907.68Z"/><path class="cls-7" d="M411.4,941.83H388.2a1.69,1.69,0,0,1-1.6-1.17L380.87,923a.91.91,0,0,1,.86-1.19h23.2a1.67,1.67,0,0,1,1.6,1.16l5.74,17.7A.92.92,0,0,1,411.4,941.83Z"/><path class="cls-7" d="M448,941.83H424.79a1.67,1.67,0,0,1-1.6-1.17L417.45,923a.91.91,0,0,1,.87-1.19h23.2a1.66,1.66,0,0,1,1.59,1.16l5.74,17.7A.92.92,0,0,1,448,941.83Z"/><polyline class="cls-19" points="121.1 866.47 141.1 866.47 146.21 848.5 157.39 882.8 157.7 865.65 182.5 865.5 187.61 848.5 198.79 882.8 199.1 865.65 223.9 865.5 229.01 848.5 240.19 882.8 240.5 865.65 265.3 865.5 270.41 848.5 281.59 882.8 281.89 865.65 305.73 865.5 310.84 848.5 322.02 882.8 322.33 865.65 345.21 865.5"/><polyline class="cls-21" points="359.38 904.99 351.68 917.39 346.94 910.36 346.94 925.25 336.88 904.99 333.99 925.25 324.22 904.99 316.52 917.39 311.79 910.36 311.79 925.25 301.72 904.99 292.13 925.25 282.36 904.99 274.66 917.39 269.92 910.36 269.92 925.25 259.86 904.99 256.97 925.25 247.2 904.99 239.5 917.39 234.77 910.36 234.77 925.25 224.7 904.99 224.7 917.39 217.97 909.95 214.14 925.25 204.37 904.99 196.67 917.39 191.94 910.36 191.94 925.25 181.87 904.99 178.99 925.25 169.22 904.99 161.52 917.39 156.78 910.36 156.78 925.25 146.72 904.99 135.96 914.41"/><path class="cls-22" d="M322.35,961.66h12.3a2.16,2.16,0,0,1,2,1.61l2.47,10.7"/><line class="cls-22" x1="339.85" y1="977.19" x2="342.64" y2="989.28"/><path class="cls-22" d="M358.55,961.66H346.24a1.24,1.24,0,0,0-1.24,1.61l2.47,10.7"/><path class="cls-22" d="M363.45,989.49H352.67a2.16,2.16,0,0,1-2-1.61l-2.47-10.69a1.24,1.24,0,0,1,1.24-1.61h10.79a2,2,0,0,1,1.87,1.51L364.62,988A1.17,1.17,0,0,1,363.45,989.49Z"/><path class="cls-22" d="M256.73,960.81h-12.3a1.24,1.24,0,0,0-1.24,1.61l2.47,10.69"/><path class="cls-22" d="M247.64,974.72h10.79a2,2,0,0,1,1.87,1.52l2.51,10.88a1.17,1.17,0,0,1-1.17,1.52H248.93"/><line class="cls-22" x1="212.19" y1="961.66" x2="215.09" y2="973.97"/><line class="cls-22" x1="215.84" y1="977.19" x2="218.63" y2="989.28"/><path class="cls-22" d="M223.46,974,221,963.27a1.24,1.24,0,0,1,1.24-1.61h11.34"/><path class="cls-22" d="M237.42,973.05l-2-9.78c-.13-1.61-1.32-1.61-2.21-1.61H221.91"/><path class="cls-22" d="M238.1,977.09,240.61,988a1.17,1.17,0,0,1-1.17,1.51H228.66a2.16,2.16,0,0,1-2-1.61l-2.47-10.69"/><line class="cls-19" x1="303.87" y1="951.54" x2="149.12" y2="951.54"/></g></svg>