<svg id="Layer_1" data-name="Layer 1" xmlns="http://www.w3.org/2000/svg" viewBox="0 0 1308.86 1859.12"><defs><style>.cls-1{fill:#efaf00;}.cls-10,.cls-13,.cls-15,.cls-17,.cls-2,.cls-7,.cls-9{fill:none;}.cls-2,.cls-8,.cls-9{stroke:#efaf00;}.cls-10,.cls-13,.cls-17,.cls-18,.cls-2,.cls-7,.cls-8,.cls-9{stroke-miterlimit:10;}.cls-15,.cls-2{stroke-width:4px;}.cls-3{fill:#e18c32;}.cls-4{fill:#88bed7;}.cls-5{fill:#cbe1fd;}.cls-6{fill:#d97802;}.cls-17,.cls-7{stroke:#6562ce;}.cls-7{stroke-width:6px;}.cls-12,.cls-18,.cls-8{fill:#fff;}.cls-17,.cls-18,.cls-8,.cls-9{stroke-width:5px;}.cls-10{stroke:#d97802;stroke-width:2px;}.cls-11{fill:#e4effd;}.cls-13{stroke:#db7800;stroke-width:3px;}.cls-13,.cls-15,.cls-17{stroke-linecap:round;}.cls-14{fill:#40465c;}.cls-15{stroke:#40465c;stroke-linejoin:round;}.cls-16{fill:#f2bf33;}.cls-18{stroke:#88bed7;}</style></defs><g id="NURSE"><g id="HAIR"><path class="cls-1" d="M670.77,343.81s-49.75-9.15-62.52,31.31,23.17,59.63,20.61,86.46-24.07,16.95-24.07,16.95,9.35,32.89,67.8,15.5S729,632.28,876,592.29c0,0,20.62-69.66-24.2-95.19-39.18-22.31-82.63-7.41-80.92-23.59s57.74-83.4-2.24-132.57C720.88,301.79,670.77,343.81,670.77,343.81Z"/><path class="cls-2" d="M615.1,365.69c-20.05,37.39,8.16,62.86,6.17,89.74-1.68,22.88-19.55,12.6-19.55,12.6"/><path class="cls-2" d="M890.45,586.52s20.61-69.67-24.21-95.19c-39.18-22.32-99-1.64-97.29-17.82"/></g><g id="LEGS"><g id="LEFT_LEG" data-name="LEFT LEG"><path id="FOOT" class="cls-3" d="M556.53,1655c-8,15.6-37.57,58.32-37.76,78.91-.16,16.73,13.94,29.65,6.68,41.23-9.5,15.15-127,4.84-130.11,4.14s54-28.27,69.44-56.52a252.48,252.48,0,0,0,25.54-70.13Z"/><g id="SHOES"><rect class="cls-4" x="385.37" y="1780.89" width="147.44" height="10.93" rx="5.47" transform="translate(918.17 3572.71) rotate(-180)"/><path class="cls-5" d="M469.16,1780.89l-29.89-36.58s-48.56,17.5-48.56,36.52Z"/><path class="cls-5" d="M474.93,1780.89s10.72-41.08,43.84-44.61c0,0,20.24,23.16,6.84,44.61Z"/></g><path id="SHADOW" class="cls-6" d="M488.38,1661.54c11.88,5.44,34.25,14.73,54.13,17.53,5.85-9.93,11.25-18.64,14-24.07l-66.21-2.37S489.75,1655.92,488.38,1661.54Z"/><path id="PANT" class="cls-5" d="M586.56,956.57c-8.13,62.51-25.48,145.52-60.78,420.67-16.45,128.2-45.86,272.59-45.86,272.59s58.18,17.35,86.6,7.77c0,0,21.76-3.78,18.68-22.48-2.44-14.82,23-23.36,21.13-46.8-2.15-27.31,18.59-62.88,35.74-122.57,26-90.55,65.17-197.9,94.09-287.33,14.34-44.35,57.72-199,14.46-211.12Z"/></g><g id="RIGHT_LEG" data-name="RIGHT LEG"><path id="FOOT-2" data-name="FOOT" class="cls-3" d="M858.11,1655c-3.5,13.13-16.2,58-11.64,74.16s17.33,28,13.81,44.39c-3.75,17.5-106.38,6.43-109.53,5.73s54.49-32.71,55.19-56.52S799,1655,799,1655Z"/><g id="SHOES-2" data-name="SHOES"><rect class="cls-4" x="728.9" y="1780.89" width="137.76" height="10.93" rx="5.47" transform="translate(1595.56 3572.71) rotate(-180)"/><path class="cls-5" d="M825.2,1781.59s-13.34-16.25-32.11-21c-20.59-5.24-30.57-2.45-41.68,3.16-10.75,5.44-16.76,17.16-16.76,17.16Z"/><path class="cls-5" d="M825.65,1781.34s-1.14-38.08,24-43c0,0,24.2,21.58,10.81,43Z"/></g><path id="SHADOW-2" data-name="SHADOW" class="cls-6" d="M858.11,1655H799s1.46,8.45,3,19.94c21.51,2,43.61-5.11,53-8.67C856.33,1661.56,857.4,1657.64,858.11,1655Z"/><path id="PANT-2" data-name="PANT" class="cls-5" d="M663.12,960.52c13.65,31.66,32.27,149,34.23,161.47,17.21,109.41,47.48,256.07,53.07,284,11.49,57.46,21.23,147,31.79,201.59,5.5,28.43,8.31,47.39,8.31,47.39,29.15,7.08,67.59,0,67.59,0s29.34,1.55,20.39-28.07c-5.34-17.69,11.15-25.89,10.63-50.62-.33-15.39-4-20.31-3.18-56.84,1.5-67.71-16.8-161.33-19.17-186.44-2.06-21.72,20.33-125.57,27.5-260.83,3.72-70-31.74-109.09-31.4-120.18C862.88,952,776.13,973.44,663.12,960.52Z"/></g></g><g id="LEFT_HAND" data-name="LEFT HAND"><g id="HAND"><path class="cls-3" d="M582.81,736.3C576.86,750,532.1,837.18,493.93,837.16c-49.65,0-193.58-86.15-205.5-91.34-14.2-6.18,5.19-28.47,5.19-28.47s179.43,38.77,188.8,41.32l29.14-65.9Z"/><path class="cls-6" d="M582.81,736.3c-1.55,3.54-5.79,10.83-11.9,23.86l-64-56.89,4.64-10.5Z"/></g><path id="ARM" class="cls-3" d="M258,688.72c1.29,4.19,6.91,10.16,2.3,10.78-2.39.32-20,0-21.17,6.65a13.94,13.94,0,0,0,1.77,9.06c-2.95,6.17.59,10.35.59,10.35-1.76,3.84-1.71,8.46.16,10.23,0,0-2.66,9.75,1.45,11.34,12.75,4.92,34.75,2.44,42.14.33,6.41-1.83,11.61-8.05,11.61-21.93,0-5.69-3.8-18.49-8.91-23.94-2.09-2.23-13.7-12.16-16.23-14.56-5.87-5.54-9-16.48-9-16.48S254.41,677,258,688.72Z"/><g id="DRIP"><line class="cls-7" x1="254.81" y1="436.88" x2="254.81" y2="1708.47"/><path class="cls-7" d="M348.73,1743v-12c0-12.41-14.27-22.47-31.86-22.47H192.75c-17.59,0-31.85,10.06-31.85,22.47v12"/><circle class="cls-8" cx="161.53" cy="1767.39" r="24.44"/><circle class="cls-8" cx="348.31" cy="1767.39" r="24.44"/><path class="cls-7" d="M369.81,483.09a16,16,0,0,1-16,16h0a16,16,0,0,1-16-16V471H172.58v12.14a16,16,0,0,1-16,16h0a16,16,0,0,1-16-16"/><path class="cls-9" d="M157.51,492h0a10,10,0,0,1,10,10v8.11a0,0,0,0,1,0,0H147.48a0,0,0,0,1,0,0V502A10,10,0,0,1,157.51,492Z"/><rect class="cls-9" x="106.27" y="510.12" width="105.42" height="143.94" rx="13.69"/><path class="cls-5" d="M202.55,596.37v34.88a13.18,13.18,0,0,1-13.18,13.18H128.58a13.18,13.18,0,0,1-13.18-13.18V596.37Z"/><path class="cls-8" d="M150.37,654.06h23a0,0,0,0,1,0,0v8.56a3.82,3.82,0,0,1-3.82,3.82H154.18a3.82,3.82,0,0,1-3.82-3.82v-8.56A0,0,0,0,1,150.37,654.06Z"/></g><g id="FINGERS"><path class="cls-3" d="M268.31,738.79c-.66,7-2.41,8.17-18.65,7.55,0,0-6,.14-7-15.61-1.41-23.17.85-26.15.85-26.15,9,0,17.65,1,20.81,1.24C270.91,706.23,268.74,734.29,268.31,738.79Z"/><path class="cls-10" d="M243.5,704.58c0,2.94,17.65,1,20.81,1.24,4.46.31,5.23,9.62-.5,9.53a118.24,118.24,0,0,1-23.1,0"/><path class="cls-10" d="M241.64,725.57c19.12,1.06,24,0,24,0,2.79.14,4.9-9.94-1.85-10.22"/><path class="cls-10" d="M242.57,735.78c18,1.32,24,0,24,0,2.64-.06,4.45-10.35-.93-10.21"/><path class="cls-10" d="M261.68,736.37s6.17-1.49,6.63,2.42c.83,6.94-2.41,8.17-18.65,7.55"/></g></g><g id="SHIRT"><path class="cls-11" d="M773.61,520.72c7.14,5.1,65,29.76,84.16,47.34,24.78,22.73,65.8,120.11,65.8,120.11s-58.76,46-99.65,50.48L806,715s-17.56,58.14-14.36,88.16c1.73,16.34,68.66,145.67,71.22,148.86s-120.11,57-277.28,10.31c0,0,31-153.74,5.09-174.13-17.89-14.06-23.66-47-21.23-57.89,0,0-68.83-40.23-76.5-54.92,0,0,51.83-86.45,76.72-102.31,23.92-15.25,102.7-40.82,102.7-40.82Z"/><path class="cls-5" d="M809.54,538.88S686.12,672.42,678.36,672.42c-6.72,0-34.88-130.59-34.88-130.59l24.09-7.64S684,617.47,687,617.9s94.9-92.68,94.9-92.68Z"/></g><g id="PACK"><path class="cls-9" d="M669.06,878.23h0a10,10,0,0,1,10,10v8.11a0,0,0,0,1,0,0H659a0,0,0,0,1,0,0v-8.11a10,10,0,0,1,10-10Z" transform="translate(149.95 -95.28) rotate(9.17)"/><rect class="cls-12" x="604.88" y="895.58" width="105.42" height="143.94" rx="13.69" transform="translate(162.59 -92.43) rotate(9.17)"/><rect class="cls-9" x="604.88" y="895.58" width="105.42" height="143.94" rx="13.69" transform="translate(162.59 -92.43) rotate(9.17)"/><rect class="cls-1" x="625.35" y="947.13" width="62.42" height="35.04" rx="5.51" transform="translate(162.11 -92.3) rotate(9.17)"/><path class="cls-8" d="M636.49,1039h23a0,0,0,0,1,0,0v8.56a3.82,3.82,0,0,1-3.82,3.82H640.3a3.82,3.82,0,0,1-3.82-3.82V1039A0,0,0,0,1,636.49,1039Z" transform="translate(174.83 -89.9) rotate(9.17)"/></g><g id="RIGHT_HAND" data-name="RIGHT HAND"><path class="cls-3" d="M921,787.2C862.4,837,744,880.3,721.85,877.75c-.65,1.26-11.18,21.38-21.64,21.38-10.8,0-20.88-5.85-26.57.19s-11.57,15.83-15.9,16.69a23.38,23.38,0,0,1-15.47-2s3.71-9,7.55-17.76c-3.46,3.21-8.15,10.33-10.77,13.13-3.94,4.22-7.44.39-7.44.39s7.58-14.47,10.5-18.29,11.7-9.61,16.51-11.46c5.57-3,37.19-20,54.17-23.45,27.92-20.56,99.15-72.33,133.57-91.09L834,736.83s34.08-8.62,70.7-35.12C904.69,701.71,932.72,777.26,921,787.2Z"/><path class="cls-6" d="M904.69,701.71s-30.88,23.72-70.7,35.12l4.46,10.34s33.34-15.49,77.59-10.73C916,736.44,906,703.75,904.69,701.71Z"/><path class="cls-13" d="M648.49,914s10-22.75,13.49-25.13c6.14-4.18,14.16-9.68,14.16-9.68"/><path class="cls-13" d="M654.57,915s9.64-19.47,13.13-21.84c6.14-4.18,14.16-9.68,14.16-9.68"/></g><g id="HEAD"><g id="NECK"><path class="cls-3" d="M737.67,440.87c.71,13.5-4.46,63.47,45.63,84.56L687,617.9l-19.4-83.71s12.44-19.85,6.35-87.58Z"/></g><path id="SHADOW-3" data-name="SHADOW" class="cls-6" d="M737.38,445.88S726.51,518.23,672.59,522c-.27,0-.55,0-.82,0,2.93-12.46,5.72-35.7,2.15-75.37Z"/><path id="HEAD-2" data-name="HEAD" class="cls-3" d="M672.59,494c31.73-2.86,64.79-48.15,64.79-48.15,9.12-6.31,10.12-20.29,2.79-22.86-8.51-3-15.34,11.9-18.54,12.14-5.56,3.9-19.58-2.91-19.43-33,.06-13.73-4.42-22.58-11-27.82h0a36.3,36.3,0,0,0-5.63-3.42h0A29.13,29.13,0,0,0,670,368.06c-39.41,3.54-37.68,37.59-36.68,50.89C634.74,438.2,647,496.33,672.59,494Z"/></g><circle class="cls-14" cx="683.26" cy="423.64" r="3.96"/><circle class="cls-14" cx="645.22" cy="423.64" r="3.96"/><line class="cls-15" x1="656.55" y1="426.24" x2="652.56" y2="446.63"/><path class="cls-15" d="M656.55,460.4a19.17,19.17,0,0,0,19.94-5.1"/></g><g id="PLANT"><g id="PLANT-2" data-name="PLANT"><path class="cls-16" d="M1126.92,1295.3c-42.33,64.09-122.1,99.1-157.34,79.28-34.07-19.16-37-113.57,5.29-177.66s113.1-94,154.23-66.86S1169.25,1231.2,1126.92,1295.3Z"/><path class="cls-17" d="M974.28,1590.5s-42.63-345.87,154.5-458.88"/><line class="cls-17" x1="1156.71" y1="1208.81" x2="1038.65" y2="1220.86"/><line class="cls-17" x1="1155.1" y1="1221.27" x2="1031.19" y2="1233.92"/><line class="cls-17" x1="976.26" y1="1197.61" x2="1006.27" y2="1286.27"/><path class="cls-16" d="M1283.4,1472c-13.09,33.76-70.44,43-128.1,20.67s-79.91-66.76-77.38-81.51c3.18-18.6,71.23-50.35,124.78-40.78C1263.57,1381.24,1296.49,1438.2,1283.4,1472Z"/><path class="cls-17" d="M939,1590.5s-5.17-151.93,155.28-183.12c87.84-17.07,155.81,27.08,187,64.51"/><line class="cls-17" x1="1181.99" y1="1409.76" x2="1236.77" y2="1384.66"/><line class="cls-17" x1="1195.66" y1="1414.12" x2="1246.68" y2="1390.25"/><line class="cls-17" x1="1159.32" y1="1405.36" x2="1180.67" y2="1498.4"/><path class="cls-16" d="M906.87,1364.77c26,39.3,22,95,.79,107.9-12.84,7.85-66.83-6.35-92.86-45.65s-25.95-86.45-.73-103.16S880.84,1325.47,906.87,1364.77Z"/><path class="cls-17" d="M919.84,1590.5s14.59-196.49-105-264.58"/><line class="cls-17" x1="798.18" y1="1383.27" x2="873.66" y2="1383.27"/><line class="cls-17" x1="801.98" y1="1396.32" x2="881.12" y2="1396.32"/><line class="cls-17" x1="908.66" y1="1370.19" x2="895.1" y2="1424.31"/></g><g id="VASE"><path class="cls-18" d="M1055.94,1624.05v136.63a33.51,33.51,0,0,1-33.55,33.55H885.76a33.52,33.52,0,0,1-33.56-33.55V1624.05a33.56,33.56,0,0,1,33.56-33.55h136.63a33.54,33.54,0,0,1,33.55,33.55Z"/></g><circle class="cls-5" cx="919.16" cy="1626.15" r="10.27"/><circle class="cls-5" cx="964.87" cy="1626.1" r="10.27"/><circle class="cls-5" cx="1010.57" cy="1626.04" r="10.27"/><path class="cls-5" d="M1053.56,1624v12.22h-.12a10.27,10.27,0,0,1-1-20.5A31.08,31.08,0,0,1,1053.56,1624Z"/><circle class="cls-5" cx="873.45" cy="1626.21" r="10.27"/><path class="cls-5" d="M952.69,1595.42a10.27,10.27,0,1,1-20.22-2.54h19.91A10.58,10.58,0,0,1,952.69,1595.42Z"/><path class="cls-5" d="M998.4,1595.36a10.27,10.27,0,1,1-20.24-2.48h19.93A10.09,10.09,0,0,1,998.4,1595.36Z"/><path class="cls-5" d="M1042.74,1600.44a10.28,10.28,0,0,1-19.18-5.11,10.07,10.07,0,0,1,.29-2.41A31.07,31.07,0,0,1,1042.74,1600.44Z"/><path class="cls-5" d="M898.75,1605.55a10.27,10.27,0,0,1-12-12.67h19.87c.05.18.1.37.14.56A10.28,10.28,0,0,1,898.75,1605.55Z"/><circle class="cls-5" cx="1015.29" cy="1690.35" r="10.27"/><path class="cls-5" d="M1053.56,1680.68v19.23a10.28,10.28,0,0,1,0-19.23Z"/><circle class="cls-5" cx="969.58" cy="1690.4" r="10.27"/><circle class="cls-5" cx="923.87" cy="1690.46" r="10.27"/><circle class="cls-5" cx="882.47" cy="1692.29" r="10.27"/><circle class="cls-5" cx="1038.55" cy="1659.62" r="10.27"/><circle class="cls-5" cx="992.84" cy="1659.68" r="10.27"/><circle class="cls-5" cx="947.13" cy="1659.73" r="10.27"/><path class="cls-5" d="M857.2,1670.15a10.13,10.13,0,0,1-2.62.19v-20.51a10.27,10.27,0,0,1,2.62,20.32Z"/><circle class="cls-5" cx="900.86" cy="1660.03" r="10.27"/><circle class="cls-5" cx="1022.64" cy="1755.64" r="10.27"/><circle class="cls-5" cx="976.93" cy="1755.69" r="10.27"/><circle class="cls-5" cx="931.22" cy="1755.75" r="10.27"/><circle class="cls-5" cx="889.82" cy="1757.58" r="10.27"/><path class="cls-5" d="M1053.56,1718.07v13.67a10.27,10.27,0,1,1,0-13.67Z"/><circle class="cls-5" cx="1000.19" cy="1724.97" r="10.27"/><circle class="cls-5" cx="954.48" cy="1725.02" r="10.27"/><path class="cls-5" d="M864.54,1735.43a10.26,10.26,0,0,1-10-3.52v-13.08a10.27,10.27,0,1,1,10,16.6Z"/><circle class="cls-5" cx="908.21" cy="1725.32" r="10.27"/><path class="cls-5" d="M1011.31,1789.3a10.3,10.3,0,0,1-.32,2.55h-19.9a10.58,10.58,0,0,1-.32-2.54,10.27,10.27,0,0,1,20.54,0Z"/><path class="cls-5" d="M1047.6,1779a31.19,31.19,0,0,1-11.08,9.43,10.27,10.27,0,0,1,10.22-9.47A8.25,8.25,0,0,1,1047.6,1779Z"/><path class="cls-5" d="M965.3,1791.85H945.37c0-.14-.07-.3-.1-.45a10.26,10.26,0,1,1,20.12-4.08A10.15,10.15,0,0,1,965.3,1791.85Z"/><path class="cls-5" d="M919.61,1791.85h-20c0-.12-.07-.26-.1-.39a10.27,10.27,0,1,1,20.05.39Z"/><path class="cls-5" d="M873.62,1789.37a31.28,31.28,0,0,1-12.56-9.67l.26-.06a10.27,10.27,0,0,1,12.1,8A8.86,8.86,0,0,1,873.62,1789.37Z"/></g></svg>