<svg id="Layer_1" data-name="Layer 1" xmlns="http://www.w3.org/2000/svg" viewBox="0 0 1200 1200"><defs><style>.cls-1{fill:#fff;}.cls-1,.cls-3{stroke:#efaf00;stroke-miterlimit:10;stroke-width:6.72px;}.cls-2{fill:#e4effd;}.cls-3{fill:none;}</style></defs><path class="cls-1" d="M705.06,1159H346.21a53.26,53.26,0,0,1-52.45-62.51l166.63-945A64.63,64.63,0,0,1,524,98.06H882.89a53.26,53.26,0,0,1,52.45,62.51l-166.64,945A64.62,64.62,0,0,1,705.06,1159Z"/><path class="cls-1" d="M541.58,1042.38h0c-5.54,0-9.24-4.49-8.27-10L675.72,224.72a12.49,12.49,0,0,1,11.8-10h0c5.54,0,9.24,4.49,8.27,10L553.38,1032.35A12.49,12.49,0,0,1,541.58,1042.38Z"/><ellipse class="cls-2" cx="812.25" cy="280.9" rx="58.55" ry="49.09" transform="translate(23.51 622.28) rotate(-42.48)"/><ellipse class="cls-2" cx="571.61" cy="280.9" rx="58.55" ry="49.09" transform="translate(-39.66 459.77) rotate(-42.48)"/><ellipse class="cls-3" cx="798.39" cy="268.3" rx="58.55" ry="49.09" transform="translate(28.38 609.61) rotate(-42.48)"/><ellipse class="cls-3" cx="557.75" cy="268.3" rx="58.55" ry="49.09" transform="translate(-34.79 447.1) rotate(-42.48)"/><ellipse class="cls-2" cx="767.38" cy="521.05" rx="58.55" ry="49.09" transform="translate(-150.46 655.02) rotate(-42.48)"/><ellipse class="cls-2" cx="526.74" cy="521.05" rx="58.55" ry="49.09" transform="translate(-213.62 492.51) rotate(-42.48)"/><ellipse class="cls-3" cx="756.04" cy="508.45" rx="58.55" ry="49.09" transform="translate(-144.92 644.06) rotate(-42.48)"/><ellipse class="cls-3" cx="515.4" cy="508.45" rx="58.55" ry="49.09" transform="translate(-208.09 481.54) rotate(-42.48)"/><ellipse class="cls-2" cx="727.56" cy="761.21" rx="58.55" ry="49.09" transform="translate(-323.1 691.16) rotate(-42.48)"/><ellipse class="cls-2" cx="486.92" cy="761.21" rx="58.55" ry="49.09" transform="translate(-386.26 528.65) rotate(-42.48)"/><ellipse class="cls-3" cx="713.7" cy="748.61" rx="58.55" ry="49.09" transform="translate(-318.23 678.5) rotate(-42.48)"/><ellipse class="cls-3" cx="473.06" cy="748.61" rx="58.55" ry="49.09" transform="translate(-381.39 515.98) rotate(-42.48)"/><ellipse class="cls-2" cx="680.17" cy="1001.37" rx="58.55" ry="49.09" transform="translate(-497.72 722.2) rotate(-42.48)"/><ellipse class="cls-2" cx="439.53" cy="1001.37" rx="58.55" ry="49.09" transform="translate(-560.89 559.69) rotate(-42.48)"/><ellipse class="cls-3" cx="671.35" cy="988.77" rx="58.55" ry="49.09" transform="translate(-491.53 712.94) rotate(-42.48)"/><ellipse class="cls-3" cx="430.71" cy="988.77" rx="58.55" ry="49.09" transform="translate(-554.7 550.43) rotate(-42.48)"/><line class="cls-3" x1="533.16" y1="225.4" x2="579.59" y2="312.92"/><line class="cls-3" x1="776.32" y1="225.4" x2="822.75" y2="312.92"/><line class="cls-3" x1="492.84" y1="464.78" x2="539.28" y2="552.3"/><line class="cls-3" x1="733.48" y1="464.78" x2="779.91" y2="552.3"/><line class="cls-3" x1="450" y1="705.42" x2="496.44" y2="792.94"/><line class="cls-3" x1="690.64" y1="705.42" x2="737.08" y2="792.94"/><line class="cls-3" x1="407.17" y1="944.79" x2="453.6" y2="1032.32"/><line class="cls-3" x1="647.81" y1="944.79" x2="694.24" y2="1032.32"/></svg>