<svg id="Layer_1" data-name="Layer 1" xmlns="http://www.w3.org/2000/svg" viewBox="0 0 2121 1916"><defs><style>.cls-1,.cls-11,.cls-12,.cls-15,.cls-16,.cls-4,.cls-9{fill:none;}.cls-1,.cls-4{stroke:#6464c8;}.cls-1,.cls-10,.cls-11,.cls-12,.cls-4,.cls-9{stroke-miterlimit:10;}.cls-1{stroke-width:7.06px;}.cls-2{fill:#e7f0fd;}.cls-3{fill:#d1e2fb;}.cls-4{stroke-width:8.47px;}.cls-5{fill:#d49046;}.cls-6{fill:#e5b21a;}.cls-7{fill:#41465a;}.cls-8{fill:#32323c;}.cls-9{stroke:#cb7c2d;stroke-width:2.87px;}.cls-15,.cls-16,.cls-9{stroke-linecap:round;}.cls-10{fill:#fff;}.cls-10,.cls-11{stroke:#e5b21a;stroke-width:7.18px;}.cls-12{stroke:#41465a;}.cls-12,.cls-15{stroke-width:5.75px;}.cls-13{fill:#cb7c2d;}.cls-14{fill:#40465c;}.cls-15,.cls-16{stroke:#40465c;stroke-linejoin:round;}.cls-16{stroke-width:4.31px;}</style></defs><g id="CHAIRS"><path class="cls-1" d="M2018.79,1357.22H203.24a86.22,86.22,0,0,1-84.78-70.56L70.92,1029.25A84.52,84.52,0,0,1,154,929.38h1437.6a95.69,95.69,0,0,1,94.19,78.86l49.75,278.42a86.21,86.21,0,0,0,84.78,70.56"/><path class="cls-2" d="M785.9,1345.52v7.37H225.79v-7.37a67,67,0,0,1,67-67H718.9A67,67,0,0,1,785.9,1345.52Z"/><path class="cls-2" d="M911.66,1278.52H1326.6a72.59,72.59,0,0,1,72.59,72.59v1.79a0,0,0,0,1,0,0H839.07a0,0,0,0,1,0,0v-1.79A72.59,72.59,0,0,1,911.66,1278.52Z"/><path class="cls-2" d="M1524.95,1278.52h414.94a72.59,72.59,0,0,1,72.59,72.59v1.79a0,0,0,0,1,0,0H1452.36a0,0,0,0,1,0,0v-1.79A72.59,72.59,0,0,1,1524.95,1278.52Z"/><path class="cls-3" d="M409.27,1345.52v7.37H225.79v-7.37a67,67,0,0,1,67-67h49.48A67,67,0,0,1,409.27,1345.52Z"/><path class="cls-3" d="M1022.55,1345.52v7.37H839.07v-7.37a67,67,0,0,1,67-67h49.49A67,67,0,0,1,1022.55,1345.52Z"/><path class="cls-3" d="M1635.84,1345.52v7.37H1452.36v-7.37a67,67,0,0,1,67-67h49.48A67,67,0,0,1,1635.84,1345.52Z"/><path class="cls-3" d="M504.69,1172.16H178.9A71.1,71.1,0,0,1,109,1114L69.77,901.68a69.7,69.7,0,0,1,68.55-82.36H464.11A71.1,71.1,0,0,1,534,877.51l39.2,212.29A69.69,69.69,0,0,1,504.69,1172.16Z"/><path class="cls-3" d="M1099,1172.16H773.17a71.1,71.1,0,0,1-69.93-58.2L664,901.68a69.69,69.69,0,0,1,68.54-82.36h325.79a71.1,71.1,0,0,1,69.92,58.19l39.2,212.29A69.69,69.69,0,0,1,1099,1172.16Z"/><path class="cls-2" d="M504.69,1172.16H206.27a71.1,71.1,0,0,1-69.93-58.2L97.14,901.68a69.7,69.7,0,0,1,68.55-82.36H464.11A71.1,71.1,0,0,1,534,877.51l39.2,212.29A69.69,69.69,0,0,1,504.69,1172.16Z"/><path class="cls-2" d="M1099,1172.16H800.53A71.1,71.1,0,0,1,730.6,1114L691.4,901.68A69.71,69.71,0,0,1,760,819.32h298.42a71.1,71.1,0,0,1,69.92,58.19l39.2,212.29A69.69,69.69,0,0,1,1099,1172.16Z"/><path class="cls-1" d="M80.08,1075.3H234.81c86.57,0,162.33,67.25,184.67,163.93l27.27,118"/><path class="cls-4" d="M1758.87,1075.3h44c86.56,0,162.32,67.25,184.67,163.93l27.27,118"/><path class="cls-3" d="M1693.22,1172.16H1367.43a71.1,71.1,0,0,1-69.93-58.2l-39.2-212.28a69.7,69.7,0,0,1,68.55-82.36h325.79a71.1,71.1,0,0,1,69.92,58.19l39.2,212.29A69.69,69.69,0,0,1,1693.22,1172.16Z"/><path class="cls-2" d="M1693.22,1172.16H1394.8a71.1,71.1,0,0,1-69.93-58.2l-39.2-212.28a69.7,69.7,0,0,1,68.55-82.36h298.42a71.1,71.1,0,0,1,69.92,58.19l39.2,212.29A69.69,69.69,0,0,1,1693.22,1172.16Z"/><polyline class="cls-1" points="168.71 1734.28 275.02 1358.1 417.63 1358.1 523.94 1734.28"/><polyline class="cls-1" points="1657.25 1734.28 1763.56 1358.1 1906.16 1358.1 2012.47 1734.28"/></g><g id="MOTHER_CHILD" data-name="MOTHER &amp; CHILD"><g id="RIGHT_HAND" data-name="RIGHT HAND"><path id="HAND" class="cls-5" d="M1609.15,979.46c6.43,13.65-228.48,32.45-292.24,11.13-53.49-17.89-134.29-274.74-124.32-298.25,9.74-23,51.25-34.59,72.19,4,15.7,29,65.43,159.32,86.83,228.43C1351.61,924.82,1598.18,956.16,1609.15,979.46Z"/><path id="ARM" class="cls-5" d="M1580.8,973.16c3.27-9.53,38.54-4.55,52.75-3.53,14.36,1,36.45,7.75,40.27,9.93,8.9,5.08,14.45,20,14.45,20s-1.52,2.2-13.1-3.7c-10.88-5.54-33.86-3.52-38.61-.36-10.67,7.1,13.83,8.19,16.78,12.46s1.65,7,1.65,7-25.4-.85-29.35-1.13-17.29-5.83-25.11-12.19S1577,984.23,1580.8,973.16Z"/></g><path id="DRESS" class="cls-6" d="M1388.3,1304.94c-82.64,1.57-102.46,2.08-153.58,2.18q-11.68,0-22.32-.8c-43.1.52-80.1.75-111.6.8-147.93.25-171.23-95.1-169.86-142.43-1-58.34,54.31-146.58,69.36-197,7.14-23.93-15.66-116.69-33-192.23-17.64-76.62,10.09-104.14,57.64-116,53.06-13.23,121.65-9.75,137.87-7.6,51.23,6.78,60,12,83.61,24.69,11.72,6.29,14.71,129.15,18.14,161.29s-13.56,51.6-33.6,64.86c-5.71,3.79-22.1,24.07-17.45,71.2,2.32,23.31,16.78,59.31,29,91.19,80.81,19,166.22,63.28,203.62,80C1526.48,1181.08,1498.35,1302.86,1388.3,1304.94Z"/><g id="LEGS"><g id="RIGHT_LEG" data-name="RIGHT LEG"><path id="LEG" class="cls-5" d="M1522.29,1677.1c7.36,52.51,30.68,58.54,28.77,59.44-54.26,25.57-64.59-37.9-70.52-48.79-24.43-44.88-72.2-162.12-101.18-270.7-23.58-88.33-4.54-148.84,10.84-195.55,17.92-54.44,89.5-102.48,101.91-15.28C1498.39,1250.29,1479.81,1374.17,1522.29,1677.1Z"/><path id="SHOE" class="cls-7" d="M1462.4,1762.11s-21.85-75.6,7.36-87.13c9.34-3.69,20.66,5.61,23.69,37.45,2.65,27.81,43.29,32.12,47.12,14.15,0,0,49.82,10.12,49.82,35.53Z"/></g><g id="LEFT_LEG" data-name="LEFT LEG"><path id="LEG-2" data-name="LEG" class="cls-5" d="M1367.25,1230.42c-12,60.37-22.34,77.32-51.61,174.38-10.62,35.2-57.08,188.31-77.92,282-5.28,23.74,67.13,64.07-31.71,53.27-5.4-.59,6.4-38.42,1.8-69.89-10.14-69.25-19.45-195.77-15.53-293.51,3.73-93.07,60.14-150.52,93.07-188.28C1319.67,1149.05,1386.3,1134.79,1367.25,1230.42Z"/><path id="SHOE-2" data-name="SHOE" class="cls-7" d="M1208.86,1686.51c-7.75,0-21.46,14-20.22,36.46a130.73,130.73,0,0,0,8.23,39.14H1284c-1.52-24.17-27.27-35.53-27.27-35.53-22.57-3.6-51.64,17.74-48.53-15.56Z"/></g></g><g id="CHILD"><g id="RIGHT_HAND-2" data-name="RIGHT HAND"><path id="ARM-2" data-name="ARM" class="cls-5" d="M1242,949.39c3.26,1.09,15.7,3.79,21.79,9.93,3,3.06,5.33,14.73,5.29,15.85s-1,6.71-1,6.71-4.75.25-4.65-4.32c.11-5.41-5.28-9-8.71-10.35-1.42-.55-2.88-2-3.3,0s3.46,4.31,4.44,5.75a5.09,5.09,0,0,1,.23,4.78s-8.31-2.29-9.91-3-10.07-9.23-13-16.11S1234.47,946.87,1242,949.39Z"/><path id="HAND-2" data-name="HAND" class="cls-5" d="M1178.87,835.23c-17,5.11-16.3,49.68,2.14,88.83s65.48,41.82,65.48,37c0-8.29-18-41.25-21-49.61C1212.69,876,1207,826.78,1178.87,835.23Z"/></g><g id="RIGHT_LEG-2" data-name="RIGHT LEG"><path class="cls-3" d="M1125.93,989c6.11-11.12,14.74-19.4,87.38-16.79,84,3,129.76,78.41,115.4,108.73-4.56,9.63-21.75,2.35-109.93-8.71C1166.9,1065.76,1098.72,1038.51,1125.93,989Z"/><path class="cls-8" d="M1316.13,1070.31c2.65,15.85,9.31,28.55,16.62,28.06,7.63-.5,14.94-14.42,17.34-30.32,2.12-14-.83-29.47-26.18-33.55C1313,1032.74,1313.29,1053.32,1316.13,1070.31Z"/></g><path id="BODY" class="cls-2" d="M1189.7,831.78c9.44,10.45,29.18,62.57,23.59,166.07-4.44,82.23-38.78,89-49.41,89.73-61.3,4-91.29-35.36-95.91-67.2-12.32-84.77-.92-160.2,50.5-196.26C1136.08,811.76,1178.25,819.1,1189.7,831.78Z"/><g id="HEAD"><path id="HAIR" class="cls-7" d="M1117.33,781.63s65,9.22,77.47-19.83c9.72-22.72-63.62-55.41-91.4-.28,0,0-23,4.78-21.08,33.35s29.92,30.75,29.92,30.75l-1.59-15S1122.71,807.81,1117.33,781.63Z"/><path id="HEAD-2" data-name="HEAD" class="cls-5" d="M1190.84,832.18c-28.72,34.16-71.22-.2-77.74-5.81-1.44-.11-16.64-1.51-15.29-9.34,1.25-7.24,11-6.75,13.22-6.52,2-.75,11.1-5.52,6.31-28.87,0,0,49.41,7,70.32-10.43C1200.14,790.48,1204.19,816.3,1190.84,832.18Z"/></g><g id="LEFT_HAND" data-name="LEFT HAND"><path id="ARM-3" data-name="ARM" class="cls-5" d="M1166.17,960.08c2.58,2.67,19,18.94,23.44,20.46s15.33-.92,16.4-1.48,6.09-4.08,6.09-4.08-2-4.74-6.37-2.53c-5.23,2.61-11.28-1-14.14-3.69-1.18-1.14-2.5-4.11-.69-5.47s6.53,2.88,8.39,3.17a5.52,5.52,0,0,0,4.77-2s-7.6-6.33-9-7.55-13.67-5.54-21.74-5.21S1160.21,953.88,1166.17,960.08Z"/><path id="HAND-3" data-name="HAND" class="cls-5" d="M1110.54,842.9c-17.76,0-39.18,62.08-20.74,101.23s99.34,23.08,99.34,18.3c0-8.3-56.09-29.7-56.32-38.58S1141.51,842.81,1110.54,842.9Z"/></g><g id="LEFT_LEG-2" data-name="LEFT LEG"><path class="cls-2" d="M1078.06,1004.48c6.11-11.11,3.27-20.88,104.37-16.79,84,3.4,112.77,78.41,98.41,108.74-4.56,9.62-20.46-23.27-111.47-8.72C1117.74,1096,1050.86,1054,1078.06,1004.48Z"/><path class="cls-8" d="M1300.24,1074.6c-6.15,16-15.81,27.84-23.34,25.77-7.85-2.15-12.52-18.25-11.64-35.36.77-15.1,7.14-30.61,34.49-29.47C1311.5,1036,1306.84,1057.46,1300.24,1074.6Z"/></g></g><g id="LEFT_HAND-2" data-name="LEFT HAND"><path id="HAND-4" data-name="HAND" class="cls-5" d="M1175.51,1000.11c0,11.26-222.86,23.41-285.25-8-7.17-3.61-11.58-8.36-13.63-13.65l0-.1c-4.78-10.6-5.34-27.47,1.73-52.11C939.21,713.81,961.09,699.88,983,679.52c18.3-17,61.46,6.74,52.48,49.76-6.46,31-51.59,139.47-81,201.91C1012.05,940.46,1175.51,982.87,1175.51,1000.11Z"/><g id="ARM-4" data-name="ARM"><path class="cls-5" d="M1268.87,1016.84a7.44,7.44,0,0,1-9.13,1.24c-3.66-1.94-10.6-7.33-15.31-9.38,6.09,6.91,12.12,14.16,12.12,14.16A38.56,38.56,0,0,1,1238,1028c-5.42.16-14.09-7.26-22-11.38s-19.25,3.19-32.41,5.5-28.25-15.71-28.25-15.71l2.93-17.73c21.47-1.23,59.42,4,73.38,7.7a.12.12,0,0,1,.08,0c6.24.72,17.56,4,21.46,6.56C1257.4,1005.67,1268.87,1016.84,1268.87,1016.84Z"/><path class="cls-9" d="M1250.29,1023.42s-17-17.19-21.64-18.55c-8.14-2.38-18.76-5.53-18.76-5.53"/><path class="cls-9" d="M1241.71,1026.36s-14.76-15.16-19.38-16.51c-8.13-2.39-18.75-5.54-18.75-5.54"/></g></g><g id="BAG"><path class="cls-10" d="M1746.3,1301.38H1613.17c-53.78,0-93.57-50.05-81.45-102.44l26.84-94.93a18.24,18.24,0,0,1,17.78-14.14h206.79a18.26,18.26,0,0,1,17.78,14.14l26.84,94.93C1839.87,1251.33,1800.08,1301.38,1746.3,1301.38Z"/><path class="cls-11" d="M1760.33,1076.18a73,73,0,0,1-1.29,13.7H1600.42a73.81,73.81,0,0,1-1.28-13.7c0-42.31,36.08-76.6,80.59-76.6S1760.33,1033.87,1760.33,1076.18Z"/><path class="cls-10" d="M1796.44,1095.63c-2.7,61.94-55,111.37-116.71,111.37-60,0-114-49.41-116.71-111.35a18.19,18.19,0,0,1,13.31-5.77h206.79A18.29,18.29,0,0,1,1796.44,1095.63Z"/><rect class="cls-10" x="1671.69" y="1188.83" width="16.09" height="37.87"/></g><g id="HEAD-3" data-name="HEAD"><g id="HAIR-2" data-name="HAIR"><path class="cls-7" d="M1168.55,422c-12,1.45-47.46-31.84-95.07,5s-66.2,99.24-70.74,110c-1.14,2.7,21.81,83.32,131.79,95.61,99.71,11.14,130.43-14.22,130.43-14.22s-25.74-50.3-20.14-100.89C1250,471,1241.28,413.2,1168.55,422Z"/><path class="cls-12" d="M1276.9,611.74s-29.46-43.8-22.79-94.26c6.88-52.05-15.79-106.56-89.54-91.5"/></g><g id="NECK"><path id="NECK-2" data-name="NECK" class="cls-5" d="M1085.78,532.89s17.68,88-38.86,122.5c0,0,82.8,63.19,154.26,5.08,0,0-53.62-17.91-46.67-127.58Z"/><path id="SHADOW" class="cls-13" d="M1085.79,532.89s.59,3,1.21,8c.4,1.67.65,2.68.65,2.68,0,10.73,23.42,75.13,77,74.83.08,0-5.17-17.26-5.1-17.27-4.47-17.11-6.84-39.35-5-68.21Z"/></g><path id="HEAD-4" data-name="HEAD" class="cls-5" d="M1203.4,534.28c-2.18,15.05-20.13,60.63-35.33,60.4-33.79-.51-80.45-38.6-80.3-49.33-10.24-2.5-30-26.17-21.31-33.08,10.6-8.42,16.89-.3,17.78,1a.8.8,0,0,1,.27,0c45.34-1.42,36.3-67.6,74.12-67.6,35.14,0,44.69,25.28,45.51,37.77C1204.64,491.08,1206.59,512.34,1203.4,534.28Z"/></g><circle class="cls-14" cx="1148.7" cy="502.54" r="5.69"/><circle class="cls-14" cx="1193.06" cy="504.51" r="5.69"/><line class="cls-15" x1="1174.76" y1="505.63" x2="1179.44" y2="529.54"/><circle class="cls-14" cx="1152.49" cy="795.86" r="4.07"/><circle class="cls-14" cx="1186.73" cy="788.06" r="4.07"/><path class="cls-15" d="M1148.7,543.34s9.36,8.92,28.4,6"/><path class="cls-16" d="M1174.33,796.66s8.27-1.75,6.6,8.28"/><path class="cls-15" d="M1161.44,812.42s5.54,5.73,16.22,3"/></g></svg>