<svg id="Layer_1" data-name="Layer 1" xmlns="http://www.w3.org/2000/svg" viewBox="0 0 1200 1200"><defs><style>.cls-1{fill:#ffbf00;}.cls-2,.cls-6{fill:#fff;}.cls-2,.cls-4{stroke:#6562ce;stroke-width:5.23px;}.cls-2,.cls-4,.cls-6,.cls-7{stroke-miterlimit:10;}.cls-3{fill:#d9d9f4;}.cls-4,.cls-7{fill:none;}.cls-5{fill:#efaf00;}.cls-6,.cls-7{stroke:#efaf00;stroke-width:6.28px;}</style></defs><g id="OINTMENT"><path class="cls-1" d="M522.37,960.24H677.63a0,0,0,0,1,0,0v81.21a29.85,29.85,0,0,1-29.85,29.85H552.22a29.85,29.85,0,0,1-29.85-29.85V960.24A0,0,0,0,1,522.37,960.24Z"/><path class="cls-2" d="M631.66,971.48H568.34c-55.8,0-102.41-43.69-107.54-100.81l-61.16-680.6H800.36L739.2,870.67C734.07,927.79,687.46,971.48,631.66,971.48Z"/><polygon class="cls-3" points="762.9 579.6 437.36 579.6 421.67 397.46 779.64 397.46 762.9 579.6"/><polygon class="cls-4" points="767.09 557.63 433.18 557.63 417.49 375.5 783.82 375.5 767.09 557.63"/><polygon class="cls-5" points="794.06 234.5 600.24 286.8 406.23 234.5 402.05 190.9 798.25 190.9 794.06 234.5"/><rect class="cls-6" x="399.64" y="129.09" width="400.73" height="60.98"/><line class="cls-7" x1="426.41" y1="130.11" x2="426.41" y2="187.7"/><line class="cls-7" x1="455.36" y1="130.11" x2="455.36" y2="187.7"/><line class="cls-7" x1="484.32" y1="130.11" x2="484.32" y2="187.7"/><line class="cls-7" x1="513.28" y1="130.11" x2="513.28" y2="187.7"/><line class="cls-7" x1="542.23" y1="130.11" x2="542.23" y2="187.7"/><line class="cls-7" x1="571.19" y1="130.11" x2="571.19" y2="187.7"/><line class="cls-7" x1="600.15" y1="130.11" x2="600.15" y2="187.7"/><line class="cls-7" x1="629.1" y1="130.11" x2="629.1" y2="187.7"/><line class="cls-7" x1="658.06" y1="130.11" x2="658.06" y2="187.7"/><line class="cls-7" x1="687.02" y1="130.11" x2="687.02" y2="187.7"/><line class="cls-7" x1="715.97" y1="130.11" x2="715.97" y2="187.7"/><line class="cls-7" x1="744.93" y1="130.11" x2="744.93" y2="187.7"/><line class="cls-7" x1="773.89" y1="130.11" x2="773.89" y2="187.7"/><polygon class="cls-5" points="791.54 253.51 599.81 305.81 408.07 253.51 407.03 244.49 599.81 296.79 792.59 244.49 791.54 253.51"/></g></svg>