<svg id="Layer_1" data-name="Layer 1" xmlns="http://www.w3.org/2000/svg" viewBox="0 0 1250.3 2134.21"><defs><style>.cls-1{fill:#41465a;}.cls-2{fill:#6464c8;}.cls-12,.cls-14,.cls-15,.cls-3,.cls-6{fill:none;}.cls-3{stroke:#6464c8;stroke-width:6.6px;}.cls-12,.cls-3,.cls-6{stroke-miterlimit:10;}.cls-4{fill:#96bed5;}.cls-5{fill:#e7f0fd;}.cls-15,.cls-6{stroke:#fff;}.cls-6{stroke-width:7.92px;}.cls-7{fill:#d1e2fb;}.cls-8{fill:#d49046;}.cls-9{fill:#fff;}.cls-10{fill:#96c3d2;}.cls-11{fill:#cb7c2d;}.cls-12{stroke:#41465a;stroke-width:3.96px;}.cls-13{fill:#40465c;}.cls-14{stroke:#40465c;stroke-width:6.35px;}.cls-14,.cls-15{stroke-linecap:round;stroke-linejoin:round;}.cls-15{stroke-width:4.01px;}</style></defs><g id="DOCTOR"><g id="SHOES"><path class="cls-1" d="M1097.09,1996.19s22.8,47.42,7.15,64.56H903.07s1.12-33.19,49.56-38.43c43.48-4.7,70-26.13,70-26.13Z"/><rect class="cls-2" x="898.04" y="2060.75" width="212.02" height="11.92" rx="3.44" transform="translate(2008.11 4133.43) rotate(-180)"/><path class="cls-3" d="M998.17,2025.39l-6.55-15.63a6.27,6.27,0,0,0-8.57-3.07h0a6.28,6.28,0,0,0-3.1,7.68l.56,2.17"/><path class="cls-3" d="M969.5,2034.19l-4.3-15.8a6.27,6.27,0,0,0-8.1-4.16h0c-3,1-4.93,3.91-4.47,8.09"/><path class="cls-1" d="M802.38,1996.19s22.79,47.42,7.15,64.56H608.35s1.13-33.19,49.56-38.43c43.49-4.7,70-26.13,70-26.13Z"/><rect class="cls-2" x="603.33" y="2060.75" width="212.02" height="11.92" rx="3.44" transform="translate(1418.68 4133.43) rotate(-180)"/><path class="cls-3" d="M703.46,2025.39l-6.55-15.63a6.27,6.27,0,0,0-8.57-3.07h0a6.27,6.27,0,0,0-3.1,7.68l.56,2.17"/><path class="cls-3" d="M674.79,2034.19l-4.3-15.8a6.28,6.28,0,0,0-8.1-4.16h0c-3,1-4.93,3.91-4.48,8.09"/></g><path id="LEGS" class="cls-4" d="M1047.72,960.52c1.8,58.83,9.26,514.1,61.75,642,53.2,129.58-1.2,393.18-1.2,393.18-72.91,11.5-102.52-1.3-102.52-1.3s-99.92-558.34-155-854.89l-15.3-7.94s-7.3,364.5,12.6,501.32c19.93,137.23-23.46,363.26-23.46,363.26-62.94,9.77-123.13,0-123.13,0S688,1739,667.05,1530.24c-11.52-114.8-26.14-539.19-25.19-567.28Z"/><path id="TORSO" class="cls-4" d="M914.71,391.36c16.39,0,171.9,31,171.76,98.7-.16,74.16-79,318.42-72.45,363.2s48.68,104,29.25,112.5c-52.35,23-227.12,41.17-401.81-3.38,0,0,18.23-41.14-13.18-219.85-17.13-97.51-21.13-284-6.52-303.5s102.58-39.52,134.82-45.5S914.71,391.36,914.71,391.36Z"/><g id="LAB_COAT" data-name="LAB COAT"><path class="cls-5" d="M909.55,390.81c-3.89,22.45-46.86,531.54,8.61,784.85,0,0,90,12.3,182.07-22.29,0,0-52.27-318.41-55.53-371.44s37.42-326.11,12.8-341.16C975.73,390.81,909.55,390.81,909.55,390.81Z"/><path class="cls-5" d="M750.68,394.3S763,877.87,765.76,1173.19c0,0-88.79,22.23-165.38-12.37,0,0,30.09-357.47,30.53-403s-23.18-314.92,2.68-328.63C689.27,399.67,750.68,394.3,750.68,394.3Z"/></g><g id="HANDS"><g id="LEFT_HAND" data-name="LEFT HAND"><path id="HAND" class="cls-5" d="M554.19,882.37C654.31,829,717.43,400.19,649.53,423c-11.65,3.9-45.85,17.91-69.3,37.64-54.51,45.9-108.77,231.55-124.41,288.54-89.62,4.6-240.36,39.41-263.44,45.58-24.13,6.44-20,98.56,5.49,99C209.48,894,495.57,907.68,554.19,882.37Z"/><path id="LINE" class="cls-6" d="M624.31,784.21c5.38-33.58-5.26-88.54-7.45-168.32"/><ellipse id="SHADOW" class="cls-7" cx="197.61" cy="845.45" rx="20.39" ry="44.25"/><path id="ARM" class="cls-8" d="M190.43,869.3c-10.62,3.57-56.16,11-70,8s-42.82-29.38-44.9-32.93S59.6,821.09,59.6,821.09s18.14-8.36,26.81,6c10.27,17,33.56,17,45,13.63,4.76-1.38,14.75-10.57,11.81-17.82s-23.56-2.64-28.93-5c-8.21-3.57-9.94-14.3-9.94-14.3s29.09-6,34.67-7.15,43.42,1.1,61.58,19.52C211.73,827.25,209.76,862.81,190.43,869.3Z"/></g><g id="RIGHT_HAND" data-name="RIGHT HAND"><rect id="TABLET" class="cls-2" x="722.46" y="705.86" width="224.16" height="321.18" rx="16.95" transform="translate(-202.94 257.5) rotate(-15.66)"/><path id="HAND-2" data-name="HAND" class="cls-5" d="M1163.45,846.59c75.41-70.06-11.06-398.07-124.82-412.22-11.66-1.45-36.19,7.38-37.84,80.63-1.56,69.42,31.76,210.47,41.17,248.8-71.47,35.49-183.65,132.72-204.25,144.14s10.38,73.42,32.45,63.53C881.9,966.22,1100,895.07,1163.45,846.59Z"/><path id="LINE-2" data-name="LINE" class="cls-6" d="M831.53,919.21S923,828,1041.7,763.66c0,0-24.15-88.95-32.23-156.82"/><path id="ARM-2" data-name="ARM" class="cls-8" d="M846.29,972.09c-10.35,4-57.66,17.55-71.55,15.74S736.22,969.28,734,966.19s-10.22-29.32-10.22-29.32,9.72-7.57,19,4.9c10.94,14.76,31.42,11.8,42.62,8,4.66-1.59,14.16-8,10.93-14.44s-22.18-.76-27.61-2.52c-8.3-2.68-10.49-12.36-10.49-12.36S785.48,913,791,911.51s39.37-.19,60.93,12S870.28,962.71,846.29,972.09Z"/></g></g><g id="NAME_TAG" data-name="NAME TAG"><rect class="cls-9" x="633.05" y="555.6" width="103.66" height="61.61" rx="5.31"/><rect class="cls-10" x="678.68" y="533.4" width="12.4" height="28.58"/><rect class="cls-7" x="645.64" y="567.65" width="22.47" height="26.96"/><rect class="cls-7" x="675.24" y="567.65" width="48.18" height="6.24"/><rect class="cls-7" x="675.24" y="578.01" width="48.18" height="6.24"/><rect class="cls-7" x="675.24" y="588.37" width="48.18" height="6.24"/><rect class="cls-7" x="645.64" y="598.92" width="77.78" height="6.24"/></g><g id="HEAD"><g id="NECK"><path id="NECK-2" data-name="NECK" class="cls-8" d="M881.87,284.54s-11.27,52.85,27.68,106.27c0,0-67.31,34.44-158.87,3.49,0,0,53.94-18.58,30.88-107.56Z"/><path id="SHADOW-2" data-name="SHADOW" class="cls-11" d="M879.69,284.59c.06,3.51.06,6.43,0,8.56,0,0-4,40.08-24.62,59.82-16,15.34-65.76,31-81.9,23.2a131.19,131.19,0,0,0,8.39-89.43Z"/></g><path id="FACE" class="cls-8" d="M880.86,292S859.54,328.1,850,331.71c-23.8,9-61.84,16.79-74.55,10.24-8.67-4.47-9.17-4.74-19.35-48.92-7.28-31.59-.08-96.29,4.73-99s106.14-9.66,111.27.88S881.26,275.43,880.86,292Z"/><g id="HAIR"><path class="cls-1" d="M880.21,267.93s-18.89,1.26-13.6-31c4.7-28.67-3-34.56-41.38-23.73C794,222,748,220.33,731,194.57c-9.64-14.62-4.18-18.37,11.4-28,19.47-12,58-34.15,106.26-24,38.54,8.15,40.51,40.52,40.51,40.52s23.1-5.18,28.29,19C924,232.56,881,292.51,881,292.51Z"/><path class="cls-12" d="M836.58,207.56c-22.24,13.92-79.76,23.11-98,5"/><path class="cls-12" d="M888,184.33s12.2-10.66,24.85-2.82"/><path class="cls-1" d="M866.37,247.88c-3.92,21.34-16.74,66.72-39.2,50.18-19.66-14.48-48.2-21.76-71.38-6.25,0,0,3.46,26.19,0,47.3-4.37,26.68,94.39,14.87,110-10.75s12.3-46.43,14.52-60.41S866.37,247.88,866.37,247.88Z"/></g><path id="EAR" class="cls-8" d="M879.09,268s10.11-11.79,19.49-3.65c7,6.08-17.7,28.82-17.7,28.82Z"/><circle class="cls-13" cx="764.68" cy="252.77" r="6.86"/><circle class="cls-13" cx="821.46" cy="252.77" r="6.86"/><polyline class="cls-14" points="790.89 246.61 781.35 279.39 797.22 279.39"/><path class="cls-15" d="M791.07,308.6s14.44,3.48,20.85-10.56"/></g></g></svg>