<svg xmlns="http://www.w3.org/2000/svg" viewBox="0 0 2850 3110"><defs><style>.cls-1{isolation:isolate;}.cls-10,.cls-11,.cls-2{fill:#fff;}.cls-3{fill:#d9d9f4;}.cls-20,.cls-21,.cls-23,.cls-24,.cls-4,.cls-8{fill:none;}.cls-4{stroke:#6562ce;}.cls-10,.cls-20,.cls-21,.cls-24,.cls-4,.cls-8{stroke-miterlimit:10;}.cls-10,.cls-4,.cls-8{stroke-width:7.09px;}.cls-5{fill:#6562ce;}.cls-6{fill:#8281d8;}.cls-7{fill:#b4b3e8;}.cls-10,.cls-24,.cls-8{stroke:#efaf00;}.cls-9{opacity:0.7;}.cls-11{opacity:0.5;}.cls-12{fill:#f5cf66;}.cls-13{fill:#e8e8f8;}.cls-13,.cls-18{mix-blend-mode:multiply;}.cls-14,.cls-18{fill:#e4effd;}.cls-15{fill:#e18c32;}.cls-16{fill:#efaf00;}.cls-17{fill:#88bed7;}.cls-19{fill:#d97802;}.cls-20{stroke:#000;stroke-width:7.17px;}.cls-21{stroke:#fff;stroke-width:10.42px;}.cls-22{fill:#40465c;}.cls-23{stroke:#40465c;stroke-linecap:round;stroke-linejoin:round;stroke-width:5.65px;}.cls-24{stroke-width:5.74px;}</style></defs><g class="cls-1"><g id="Layer_1" data-name="Layer 1"><g id="BIG_PILL" data-name="BIG PILL"><rect class="cls-2" x="73.12" y="1535.43" width="2083.1" height="1363.26" rx="373.51"/><rect class="cls-3" x="95.72" y="1564.68" width="2083.1" height="1363.26" rx="373.51"/><rect class="cls-4" x="67.8" y="1536.76" width="2083.1" height="1363.26" rx="373.51"/><path class="cls-5" d="M2279.47,2209.08c0,214.75-45.53,388.81-101.7,388.81a30.34,30.34,0,0,1-15.2-4.32c-49-28-86.5-189.49-86.5-384.49s37.54-356.44,86.5-384.48a30.34,30.34,0,0,1,15.2-4.32C2233.94,1820.28,2279.47,1994.36,2279.47,2209.08Z"/><ellipse class="cls-6" cx="2177.77" cy="2209.08" rx="101.7" ry="388.8"/><ellipse class="cls-5" cx="2177.77" cy="2209.08" rx="101.7" ry="388.8"/><ellipse class="cls-7" cx="2094.92" cy="2414.28" rx="138.82" ry="71.39" transform="translate(-1093.2 2183.28) rotate(-44.91)"/><ellipse class="cls-8" cx="2092.56" cy="2418.12" rx="138.82" ry="71.39" transform="translate(-1096.6 2182.73) rotate(-44.91)"/><g class="cls-9"><path class="cls-2" d="M1370.94,1756.43a44.73,44.73,0,0,1-44.75,44.75h-56.65a44.76,44.76,0,1,1,0-89.51h56.65A44.75,44.75,0,0,1,1370.94,1756.43Z"/><path class="cls-2" d="M1146.78,1756.43a44.73,44.73,0,0,1-44.74,44.75H359.65a44.76,44.76,0,1,1,0-89.51H1102A44.74,44.74,0,0,1,1146.78,1756.43Z"/></g><path class="cls-5" d="M2076.07,2209.08c0,195,37.54,356.46,86.5,384.49v82.84H2011c-77.25,0-139.88-209.22-139.88-467.33s62.63-467.33,139.88-467.33h151.55v82.85C2113.61,1852.64,2076.07,2014.1,2076.07,2209.08Z"/><path class="cls-6" d="M2162.57,1741.75c-77.25,0-139.88,209.24-139.88,467.33s62.63,467.33,139.88,467.33,139.88-209.22,139.88-467.33S2239.83,1741.75,2162.57,1741.75Zm15.2,856.14a30.34,30.34,0,0,1-15.2-4.32c-49-28-86.5-189.49-86.5-384.49s37.54-356.44,86.5-384.48a30.34,30.34,0,0,1,15.2-4.32c56.17,0,101.7,174.08,101.7,388.8S2233.94,2597.89,2177.77,2597.89Z"/><ellipse class="cls-10" cx="2289.86" cy="2759.44" rx="65.24" ry="126.86" transform="translate(-572.14 4919.74) rotate(-87.36)"/><ellipse class="cls-11" cx="1596.86" cy="2746.32" rx="132.56" ry="68.17"/><ellipse class="cls-8" cx="1596.86" cy="2746.32" rx="132.56" ry="68.17"/><ellipse class="cls-11" cx="1625.64" cy="2493.11" rx="132.56" ry="68.17" transform="translate(-1349.44 2408.05) rotate(-55.26)"/><ellipse class="cls-8" cx="1625.64" cy="2493.11" rx="132.56" ry="68.17" transform="translate(-1349.44 2408.05) rotate(-55.26)"/><ellipse class="cls-11" cx="1101.75" cy="2652.76" rx="68.17" ry="132.56" transform="translate(-1626.98 1755.53) rotate(-49.24)"/><ellipse class="cls-8" cx="1101.75" cy="2652.76" rx="68.17" ry="132.56" transform="translate(-1626.98 1755.53) rotate(-49.24)"/><ellipse class="cls-11" cx="505.59" cy="2379.16" rx="68.17" ry="132.56" transform="translate(-1917.68 2169.92) rotate(-73.07)"/><ellipse class="cls-8" cx="505.59" cy="2379.16" rx="68.17" ry="132.56" transform="translate(-1917.68 2169.92) rotate(-73.07)"/><ellipse class="cls-12" cx="637.75" cy="2720.93" rx="132.56" ry="68.17" transform="translate(-1652.03 1118.72) rotate(-41.83)"/><ellipse class="cls-8" cx="637.75" cy="2720.93" rx="132.56" ry="68.17" transform="translate(-1652.03 1118.72) rotate(-41.83)"/><ellipse class="cls-11" cx="328.53" cy="2736.04" rx="68.17" ry="132.56" transform="translate(-1958.5 1198.72) rotate(-49.24)"/><ellipse class="cls-8" cx="328.53" cy="2736.04" rx="68.17" ry="132.56" transform="translate(-1958.5 1198.72) rotate(-49.24)"/><ellipse class="cls-13" cx="889.59" cy="2749.81" rx="68.17" ry="132.56" transform="translate(-1951.94 3277.57) rotate(-82.59)"/><ellipse class="cls-8" cx="889.59" cy="2749.81" rx="68.17" ry="132.56" transform="translate(-1951.94 3277.57) rotate(-82.59)"/><ellipse class="cls-13" cx="289.82" cy="2514.83" rx="132.56" ry="68.17" transform="matrix(0.98, -0.19, 0.19, 0.98, -484.63, 104.73)"/><ellipse class="cls-8" cx="289.82" cy="2514.83" rx="132.56" ry="68.17" transform="matrix(0.98, -0.19, 0.19, 0.98, -484.63, 104.73)"/><ellipse class="cls-11" cx="563.05" cy="2570.41" rx="132.56" ry="68.17" transform="translate(-1492.77 927.96) rotate(-39.02)"/><ellipse class="cls-8" cx="563.05" cy="2570.41" rx="132.56" ry="68.17" transform="translate(-1492.77 927.96) rotate(-39.02)"/><ellipse class="cls-13" cx="1357.01" cy="2690.85" rx="132.56" ry="68.17" transform="translate(-1612.07 2174.45) rotate(-53.37)"/><ellipse class="cls-8" cx="1357.01" cy="2690.85" rx="132.56" ry="68.17" transform="translate(-1612.07 2174.45) rotate(-53.37)"/><ellipse class="cls-12" cx="2650.03" cy="2778.58" rx="126.86" ry="65.24" transform="translate(-986.7 1546.77) rotate(-27.64)"/><ellipse class="cls-8" cx="2648.82" cy="2778.58" rx="126.86" ry="65.24" transform="translate(-986.84 1546.21) rotate(-27.64)"/><ellipse class="cls-12" cx="897.54" cy="2489" rx="132.56" ry="68.17" transform="translate(-1052.4 700.58) rotate(-27.64)"/><ellipse class="cls-8" cx="896.27" cy="2489" rx="132.56" ry="68.17" transform="translate(-1052.55 699.99) rotate(-27.64)"/><ellipse class="cls-12" cx="1793.72" cy="2653.36" rx="68.17" ry="132.56" transform="translate(-1365.78 2128.62) rotate(-46.51)"/><ellipse class="cls-8" cx="1793.31" cy="2652.16" rx="68.17" ry="132.56" transform="translate(-1365.03 2127.95) rotate(-46.51)"/><ellipse class="cls-3" cx="2179.49" cy="2949.67" rx="126.86" ry="65.24" transform="translate(-62.28 47.05) rotate(-1.22)"/><ellipse class="cls-8" cx="2175.51" cy="2950.72" rx="126.86" ry="65.24" transform="translate(-62.31 46.97) rotate(-1.22)"/><ellipse class="cls-12" cx="2250.49" cy="2576.83" rx="65.24" ry="126.86" transform="translate(-1153.59 2918.85) rotate(-54.6)"/><ellipse class="cls-8" cx="2250.49" cy="2576.83" rx="65.24" ry="126.86" transform="translate(-1153.59 2918.85) rotate(-54.6)"/></g><g id="WOMAN"><g id="RIGHT_HAND" data-name="RIGHT HAND"><path id="HAND" class="cls-14" d="M1264.75,1058c-5.5,3-12.08,3.26-19.74-.2a25.72,25.72,0,0,1-15-10.59,146.72,146.72,0,0,1-18.57-21.8c-143.09-200-149.82-316.58-153.05-346.61-5.85-54.46,61.84-50,98.4-5,33.29,40.95,101.67,236.11,121.77,286.63l.48-.05c65.6-8,285.78-30.13,291.86-4.7C1581.43,999.82,1374.14,1049,1264.75,1058Z"/><path id="ARM" class="cls-15" d="M1587.53,954.7s.45,24.23-6.5,27-.11,10.29-10.27,16.45c-6,3.61-9.58,4.09-15.79,1.44-12.83-5.48-40.51-20.79-44.5-34.45-3.37-11.55,5.1-15.45,9.71-20.27,5.16-5.4,19.92-14,45.63-15.88S1601,920.9,1601,920.9s4.28,14.8-9.53,19.08S1580.52,952.08,1587.53,954.7Z"/></g><path id="HAIR" class="cls-16" d="M1141,424s-72-105.09-170.49-5.37c-35.2,35.63,9.41,138.44,9.41,138.44S878.86,534.14,861.1,596c-32.61,113.56,150.76,102.57,177.74,40.52s39.53-77,39.53-77,82.59-11.79,107.87-66.65C1194.68,474.53,1197,424,1141,424Z"/><g id="DRESS"><path id="DRESS-2" data-name="DRESS" class="cls-17" d="M1406,1553.38c-116.21,5.18-229.6,6.8-434.89,3.2-139.76-2.44-171.1-103.29-173.26-165.25v0c0-144.25,95.33-315.24,97.29-330.66,3.93-30.93-11.08-201.41-34.68-295.27-21.88-87.05,40.18-102.09,74.08-117.7s84-13.83,104.27-11.14c64,8.46,62.8,11,81,17.63,15.61,5.68,83.15,184.36,87.42,224.5s-2,61.1-27,77.65c-7.15,4.74-32.57,83-26.76,141.86,3,30,22.06,74,37.63,114.67,84-6.53,207.76-4,236.37-4,0,0-42.08,33.47-41.62,173.89C1386.19,1491.78,1406,1553.38,1406,1553.38Z"/><path id="SHADOW" class="cls-18" d="M989.66,1148.28C957.47,1259.41,1058,1521.61,1258.75,1562l-273.36,77.61-15.19-81.81c-41.71-204-32.91-321.09-3.39-423q2.1-7.2,4.1-14.53c71.46-7.07,143.85-19.6,182-37.54.2.71.37,1.35.52,2C1158.64,1104.81,989.66,1148.28,989.66,1148.28Z"/></g><g id="LEGS"><g id="LOWER_LEG" data-name="LOWER LEG"><path id="LEG" class="cls-19" d="M1377.13,2084.28c-20-85.34-46.59-275.18-32.79-382.31,10-77.58,40.56-123.1,40.36-213.24-.07-31.33-13.14-78.62,60.87-90.91s85.44,77.58,80,104.59c-3.36,16.69-25.38,146.44-35.43,191.53-8.61,38.68-62.54,284.85-65.31,318.87-4.92,60.42,1.23,112.69,28.11,143.84,27.06,31.38,10.74,41.5,10.74,41.5s-60-36.34-94.21-57.54a24.56,24.56,0,0,1-7.25-34.88Z"/><path id="SHOE" class="cls-5" d="M1375.8,2084s-59.34,40.47-23.34,62.87c15.41,9.59,133.16,81.92,133.16,81.92s22.41-25.77-13.88-55.61c-5-4.15-16.51-13.73-16.51-13.73s3.72,26.45-26.94,3.54C1377,2124.61,1396.65,2088.93,1375.8,2084Z"/></g><g id="UPPER_LEG" data-name="UPPER LEG"><path id="LEG-2" data-name="LEG" class="cls-15" d="M1338.24,1294.33c-11.47,89.42-54.35,129.71-74.31,205.35-26.86,101.73-20.82,274.53-10.66,364.25,2.11,18.65-35.14,13.89-21.18,56.26,37.6,114.1,53.2,74.38,53.32,72.71,10.7-153.42,122.3-437,136.16-481.07s50.46-174.94,55.94-191c8.89-26.09,7.84-111.31-67.13-108.71S1342.23,1263.27,1338.24,1294.33Z"/><path id="SHOE-2" data-name="SHOE" class="cls-5" d="M1252.16,1869.36s-70.48,6.63-49.79,43.64c8.85,15.85,81.29,146.49,81.29,146.49s32.07-11.74,14.72-55.39c-2.41-6.07-11.44-27.83-11.44-27.83s-10.29,24.39-24.64-11.09C1240.55,1911.42,1266.39,1898.26,1252.16,1869.36Z"/></g></g><path id="LAB_COAT" data-name="LAB COAT" class="cls-14" d="M945.59,642.46C982,659,1040.44,828,1026,910.74c-3.58,20.45-27,113-59.15,224.1s-36.55,264,18.58,504.81H785.18s-58.65-243,68.55-495.41c70.76-140.41-12.59-281.72-28.85-401.24C812.83,654.52,945.59,642.46,945.59,642.46Z"/><g id="LEFT_HAND" data-name="LEFT HAND"><line id="PEN" class="cls-20" x1="1261.81" y1="1100.08" x2="1204.02" y2="980.26"/><path id="HAND-2" data-name="HAND" class="cls-14" d="M805,1126c98.81,14.53,393.56-18.56,374.76-76.14-7.1-21.74-207.22-26-299.84-15.51,12.08-60.69,29.7-268.81,26.54-320-3.55-57.85-60.3-48.13-77.92-4.74C809.35,756.7,719.61,1113.41,805,1126Z"/><path id="SHADOW-2" data-name="SHADOW" class="cls-21" d="M907.76,780.17c3.16,51.19-14.45,188.15-26.55,248.84,86.47-4.46,292.75-2.3,299.84,19.45"/><path id="ARM-2" data-name="ARM" class="cls-15" d="M1154.82,1043.48c10.33-6.23,69.78-8.52,74.85-3.75s48.84,23.11,48.84,23.11-3.2,10.73-20.92,5c-20.59-6.62-26-3.13-26-3.13s.49,12.12-7,15.13-.12,11-11,17.64c-6.38,3.87-7.9,10-15.14,9.86s-45.21-30.6-49.48-45.24C1145.42,1049.75,1148.7,1047.17,1154.82,1043.48Z"/></g><g id="TABLET"><g id="TABLET-2" data-name="TABLET"><path class="cls-5" d="M1431.78,1211.11H1210.67a10.46,10.46,0,0,1-9-15.77l174.75-297a19,19,0,0,1,16.36-9.35h221.11a10.47,10.47,0,0,1,9,15.77l-174.75,297A19,19,0,0,1,1431.78,1211.11Z"/><path class="cls-6" d="M1463.56,1037.4,1449,1062.64a6.73,6.73,0,0,1-5.11,3.24H1423.7a6.71,6.71,0,0,0-5.11,3.24l-11.65,20.17a6.76,6.76,0,0,1-5.12,3.25h-25.23c-1.79,0-2.41-1.46-1.37-3.25l11.65-20.17c1-1.79.42-3.24-1.37-3.24h-20.18c-1.79,0-2.4-1.45-1.37-3.24l14.57-25.24a6.71,6.71,0,0,1,5.11-3.24h20.18a6.71,6.71,0,0,0,5.11-3.24l11.65-20.18a6.74,6.74,0,0,1,5.12-3.24h25.23c1.79,0,2.4,1.45,1.37,3.24l-11.65,20.18c-1,1.79-.42,3.24,1.37,3.24h20.18C1464,1034.16,1464.59,1035.61,1463.56,1037.4Z"/></g><path id="FINGERS" class="cls-15" d="M1592,979.82c.92,8.55-4,12.81-6.8,14.5,1.87,17-11,8.89-11,8.89-9.89-6.76-14.42-13.25-10.46-18.37,1.59-2.07,6.17-1.58,10.67.13-4-7-5.71-14.84-3.38-17.58,1.75-2.06,6.5-.63,11,2.07-3.12-6.46-3.76-13.3-1.53-15.94,3.65-4.32,15.27,2.5,17.84,7.78,3.17,6.51-3.82,14.83-6.54,17.72A3.4,3.4,0,0,1,1592,979.82Z"/></g><g id="HEAD"><g id="NECK"><path id="NECK-2" data-name="NECK" class="cls-15" d="M1018.76,526.71s-4.84,95.41-72.26,116.23c0,0,68.16,46.51,157.16,5.29,0,0-50-4.2-14-103.49Z"/><path id="SHADOW-3" data-name="SHADOW" class="cls-19" d="M1018.76,526.71s-.16,3.2-.84,8.55c0,1.83,0,2.93,0,2.93-2.82,11.08,21,74.61,58.86,78.25l.22,0c-.13-18.83,3.26-42.41,12.72-71.72Z"/></g><path id="HEAD-2" data-name="HEAD" class="cls-15" d="M1147.6,489.39A310.73,310.73,0,0,1,1133,541.66c-5.81,15.1-36.64,57.67-51,54-31.88-8.1-66.6-58-63.79-69.11,0,0,4.16-23.17,6.14-34.29,12,3.15,28.67-1.4,43.94-35.54,5.22-11.68,12.12-18.15,19.31-21.44,8.19-2.64,16.31-3.53,23.82-1.62C1149.27,443.29,1149.93,476.28,1147.6,489.39Z"/><circle class="cls-22" cx="1131.71" cy="511.71" r="6.11" transform="translate(443.07 1545.34) rotate(-80.66)"/><circle class="cls-22" cx="1084.48" cy="493.74" r="6.11" transform="translate(421.24 1483.68) rotate(-80.66)"/><polyline class="cls-23" points="1111.86 498.29 1107.29 534.17 1094.09 529.15"/><path id="HAIR-2" data-name="HAIR" class="cls-24" d="M1132.9,440.4s-32.24-21-50.28,19.37c-17.86,40-43,32.09-58.78,26.74"/><path id="MASK" class="cls-2" d="M1000.11,506.81c-.69-1.43-1.52-3.14-.09-3.83a2.89,2.89,0,0,1,3.83,1.36c5.84,12.24,17.88,27.74,24.18,35.47l10.4-31.41a2.74,2.74,0,0,1-.46-.59c-.08-.12-8.32-13.91-18.48-17.7a2.86,2.86,0,0,1-1.68-3.69c.55-1.49,2.37-2.57,3.69-1.69,11.15,7.4,21,19.58,21,19.58,8.39,7.58,41.33,34.37,90.46,37.35,0,0-18.91,60.55-51,54S1027.22,548,1027.22,548Z"/><path id="EAR" class="cls-15" d="M1024.6,494s-6.06-12.61-19.17-5.77c-10,5.2,3,26,12.81,38.32Z"/></g></g></g></g></svg>