<?xml version="1.0" encoding="utf-8"?>
<!-- Generator: Adobe Illustrator 25.2.3, SVG Export Plug-In . SVG Version: 6.00 Build 0)  -->
<svg version="1.1" id="Слой_1" xmlns="http://www.w3.org/2000/svg" xmlns:xlink="http://www.w3.org/1999/xlink" x="0px" y="0px"
	 viewBox="0 0 5000 3000" style="enable-background:new 0 0 5000 3000;" xml:space="preserve">
<style type="text/css">
	.st0{fill:#CBE1FD;}
	.st1{opacity:0.35;fill:#FFFFFF;}
	.st2{fill:none;stroke:#CBE1FD;stroke-width:6;stroke-miterlimit:10;}
	.st3{fill:#FFFFFF;stroke:#CBE1FD;stroke-width:6;stroke-miterlimit:10;}
	.st4{fill:#F2BF33;}
	.st5{fill:none;stroke:#6562CE;stroke-width:5;stroke-linecap:round;stroke-miterlimit:10;}
	.st6{fill:#FFFFFF;stroke:#88BED7;stroke-width:5;stroke-miterlimit:10;}
	.st7{fill:none;stroke:#EFAF00;stroke-width:5;stroke-miterlimit:10;}
	.st8{fill:#EFAF00;}
	.st9{fill:#E4EFFD;}
	.st10{fill:#FFFFFF;}
	.st11{fill:none;stroke:#88BED7;stroke-width:5;stroke-miterlimit:10;}
	.st12{fill:#88BED7;}
	.st13{fill:#FFFFFF;stroke:#6562CE;stroke-width:5;stroke-miterlimit:10;}
	.st14{fill:#6562CE;}
	.st15{opacity:0.5;}
	.st16{fill:#40465C;}
	.st17{fill:none;stroke:#E4EFFD;stroke-width:5;stroke-miterlimit:10;}
	.st18{fill:none;stroke:#000000;stroke-width:5;stroke-miterlimit:10;}
	.st19{fill:#E18C32;}
	.st20{fill:#8281D8;}
	.st21{fill:none;stroke:#D97802;stroke-width:2;stroke-linecap:round;stroke-miterlimit:10;}
	.st22{fill:#85C3D3;}
	.st23{fill:none;stroke:#6562CE;stroke-width:5;stroke-miterlimit:10;}
	.st24{fill:none;stroke:#EFAF00;stroke-width:4;stroke-miterlimit:10;}
	.st25{fill:#D97802;}
	.st26{fill:none;stroke:#40465C;stroke-width:4;stroke-miterlimit:10;}
	.st27{fill:none;stroke:#6562CE;stroke-width:6;stroke-miterlimit:10;}
	.st28{fill:#FFFFFF;stroke:#EFAF00;stroke-width:5;stroke-miterlimit:10;}
	.st29{fill:none;stroke:#D97802;stroke-width:2;stroke-miterlimit:10;}
	.st30{fill:none;stroke:#DB7800;stroke-width:3;stroke-linecap:round;stroke-miterlimit:10;}
	.st31{fill:none;stroke:#C4D7F6;stroke-width:6;stroke-linecap:round;stroke-miterlimit:10;}
	.st32{fill:#E38E32;}
	.st33{fill:none;stroke:#FFFFFF;stroke-width:2;stroke-miterlimit:10;}
	.st34{fill:none;stroke:#FFFFFF;stroke-width:2;stroke-linejoin:round;stroke-miterlimit:10;}
	.st35{fill:none;stroke:#FFFFFF;stroke-width:2;stroke-linecap:round;stroke-miterlimit:10;}
	.st36{fill:none;stroke:#40465C;stroke-width:4.8109;stroke-linecap:round;stroke-linejoin:round;stroke-miterlimit:10;}
	.st37{fill:none;stroke:#40465C;stroke-width:4;stroke-linecap:round;stroke-linejoin:round;stroke-miterlimit:10;}
</style>
<g id="WINDOW">
	
		<rect x="3312.2" y="521.9" transform="matrix(-1 -4.489621e-11 4.489621e-11 -1 7694.5034 2485.6257)" class="st0" width="1070.1" height="1441.8"/>
	<polygon class="st1" points="3319.3,1402.4 3319.3,1265.3 4367.3,529.6 4375.2,529.6 4375.2,661.1 	"/>
	<polygon class="st1" points="3319.3,1204.9 3319.3,529.6 4281.2,529.6 	"/>
	<rect x="3288.8" y="498.7" class="st2" width="1116.9" height="1488.2"/>
	<rect x="3248" y="521.9" class="st3" width="1191.9" height="28.1"/>
	<rect x="3248" y="568.8" class="st3" width="1191.9" height="28.1"/>
	<rect x="3248" y="615.6" class="st3" width="1191.9" height="28.1"/>
	<rect x="3248" y="662.5" class="st3" width="1191.9" height="28.1"/>
	<rect x="3248" y="709.4" class="st3" width="1191.9" height="28.1"/>
</g>
<g id="PLANT">
	<g id="PLANT_1_">
		<g>
			<path class="st4" d="M4531.7,1855.9c-42.3,64.1-122.1,99.1-157.3,79.3c-34.1-19.2-37-113.6,5.3-177.7
				c42.3-64.1,113.1-94,154.2-66.9C4575,1717.9,4574,1791.8,4531.7,1855.9z"/>
			<path class="st5" d="M4379,2151.1c0,0-42.6-345.9,154.5-458.9"/>
			<line class="st5" x1="4561.5" y1="1769.4" x2="4443.4" y2="1781.5"/>
			<line class="st5" x1="4559.8" y1="1781.9" x2="4435.9" y2="1794.5"/>
			<line class="st5" x1="4381" y1="1758.2" x2="4411" y2="1846.9"/>
		</g>
		<g>
			<path class="st4" d="M4688.2,2032.6c-13.1,33.8-70.4,43-128.1,20.7c-57.7-22.4-79.9-66.8-77.4-81.5
				c3.2-18.6,71.2-50.4,124.8-40.8C4668.3,1941.9,4701.2,1998.8,4688.2,2032.6z"/>
			<path class="st5" d="M4343.8,2151.1c0,0-5.2-151.9,155.3-183.1c87.8-17.1,155.8,27.1,187,64.5"/>
			<line class="st5" x1="4586.7" y1="1970.4" x2="4641.5" y2="1945.3"/>
			<line class="st5" x1="4600.4" y1="1974.7" x2="4651.4" y2="1950.9"/>
			<line class="st5" x1="4564.1" y1="1966" x2="4585.4" y2="2059"/>
		</g>
		<g>
			<path class="st4" d="M4311.6,1925.4c26,39.3,22,95,0.8,107.9c-12.8,7.9-66.8-6.3-92.9-45.6s-25.9-86.5-0.7-103.2
				S4285.6,1886.1,4311.6,1925.4z"/>
			<path class="st5" d="M4324.6,2151.1c0,0,14.6-196.5-105-264.6"/>
			<line class="st5" x1="4202.9" y1="1943.9" x2="4278.4" y2="1943.9"/>
			<line class="st5" x1="4206.7" y1="1956.9" x2="4285.9" y2="1956.9"/>
			<line class="st5" x1="4313.4" y1="1930.8" x2="4299.9" y2="1984.9"/>
		</g>
	</g>
	<g id="VASE">
		<path class="st6" d="M4460.7,2184.7v136.6c0,3.9-0.7,7.7-1.9,11.2c-4.6,13-17,22.3-31.6,22.3h-136.6c-14.5,0-26.9-9.3-31.6-22.2
			c-1.3-3.5-2-7.4-2-11.3v-136.6c0-8.1,2.9-15.5,7.7-21.3c6.1-7.5,15.5-12.2,25.9-12.2h136.6c10.2,0,19.4,4.6,25.6,11.8
			C4457.7,2168.8,4460.7,2176.4,4460.7,2184.7z"/>
	</g>
	<g>
		<g>
			<g>
				<circle class="st0" cx="4323.9" cy="2186.8" r="10.3"/>
				<circle class="st0" cx="4369.6" cy="2186.7" r="10.3"/>
				<circle class="st0" cx="4415.3" cy="2186.7" r="10.3"/>
				<path class="st0" d="M4458.3,2184.7v12.2h-0.1c-5.7,0-10.3-4.6-10.3-10.3c0-5.3,4.1-9.7,9.3-10.2
					C4457.9,2179.1,4458.3,2181.8,4458.3,2184.7z"/>
				<circle class="st0" cx="4278.2" cy="2186.8" r="10.3"/>
			</g>
			<g>
				<path class="st0" d="M4357.4,2156c0,5.7-4.6,10.3-10.3,10.3c-5.7,0-10.3-4.6-10.3-10.3c0-0.9,0.1-1.7,0.3-2.6h19.9
					C4357.3,2154.3,4357.4,2155.2,4357.4,2156z"/>
				<path class="st0" d="M4403.1,2156c0,5.7-4.6,10.3-10.3,10.3c-5.7,0-10.3-4.6-10.3-10.3c0-0.9,0.1-1.7,0.3-2.5h19.9
					C4403,2154.3,4403.1,2155.1,4403.1,2156z"/>
				<path class="st0" d="M4447.5,2161.1c-1.8,3.1-5.1,5.1-8.9,5.1c-5.7,0-10.3-4.6-10.3-10.3c0-0.8,0.1-1.6,0.3-2.4
					C4435.6,2153.9,4442.2,2156.5,4447.5,2161.1z"/>
				<path class="st0" d="M4303.5,2166.2c-5.6,1.1-11-2.5-12.1-8c-0.3-1.6-0.3-3.2,0.1-4.6h19.9c0,0.2,0.1,0.4,0.1,0.6
					C4312.7,2159.6,4309.1,2165,4303.5,2166.2z"/>
			</g>
			<g>
				<circle class="st0" cx="4420" cy="2251" r="10.3"/>
				<path class="st0" d="M4458.3,2241.3v19.2c-3.9-1.5-6.6-5.2-6.7-9.6C4451.7,2246.5,4454.4,2242.8,4458.3,2241.3z"/>
				<circle class="st0" cx="4374.3" cy="2251" r="10.3"/>
				<circle class="st0" cx="4328.6" cy="2251.1" r="10.3"/>
				<circle class="st0" cx="4287.2" cy="2252.9" r="10.3"/>
			</g>
			<g>
				<circle class="st0" cx="4443.3" cy="2220.2" r="10.3"/>
				<circle class="st0" cx="4397.6" cy="2220.3" r="10.3"/>
				<circle class="st0" cx="4351.9" cy="2220.4" r="10.3"/>
				<path class="st0" d="M4261.9,2230.8c-0.9,0.2-1.8,0.2-2.6,0.2v-20.5c5-0.3,9.6,3.2,10.6,8.2
					C4271.1,2224.2,4267.5,2229.6,4261.9,2230.8z"/>
				<circle class="st0" cx="4305.6" cy="2220.7" r="10.3"/>
			</g>
			<g>
				<circle class="st0" cx="4427.4" cy="2316.3" r="10.3"/>
				<circle class="st0" cx="4381.7" cy="2316.3" r="10.3"/>
				<circle class="st0" cx="4336" cy="2316.4" r="10.3"/>
				<circle class="st0" cx="4294.6" cy="2318.2" r="10.3"/>
			</g>
			<g>
				<path class="st0" d="M4458.3,2278.7v13.7c-1.9,2.1-4.6,3.4-7.7,3.4c-5.7,0-10.3-4.6-10.3-10.3c0-5.7,4.6-10.3,10.3-10.3
					C4453.7,2275.3,4456.4,2276.6,4458.3,2278.7z"/>
				<circle class="st0" cx="4404.9" cy="2285.6" r="10.3"/>
				<circle class="st0" cx="4359.2" cy="2285.6" r="10.3"/>
				<path class="st0" d="M4269.3,2296.1c-3.8,0.8-7.6-0.7-10-3.5v-13.1c1.4-1.8,3.5-3,5.9-3.5c5.6-1.1,11,2.5,12.1,8
					C4278.4,2289.5,4274.9,2294.9,4269.3,2296.1z"/>
				<circle class="st0" cx="4313" cy="2285.9" r="10.3"/>
			</g>
			<g>
				<path class="st0" d="M4416.1,2349.9c0,0.9-0.1,1.7-0.3,2.6h-19.9c-0.2-0.8-0.3-1.7-0.3-2.5c0-5.7,4.6-10.3,10.3-10.3
					C4411.5,2339.7,4416.1,2344.3,4416.1,2349.9z"/>
				<path class="st0" d="M4452.3,2339.6c-2.9,4-6.7,7.2-11.1,9.4c0.4-5.3,4.8-9.5,10.2-9.5
					C4451.8,2339.6,4452.1,2339.6,4452.3,2339.6z"/>
				<path class="st0" d="M4370.1,2352.5h-19.9c0-0.1-0.1-0.3-0.1-0.4c-1.1-5.6,2.5-11,8-12.1c5.6-1.1,11,2.5,12.1,8
					C4370.5,2349.5,4370.4,2351,4370.1,2352.5z"/>
				<path class="st0" d="M4324.4,2352.5h-19.9c0-0.1-0.1-0.3-0.1-0.4c-1.1-5.6,2.5-11,8-12.1c5.6-1.1,11,2.5,12.1,8
					C4324.7,2349.5,4324.7,2351.1,4324.4,2352.5z"/>
				<path class="st0" d="M4278.4,2350c-4.9-2.1-9.3-5.4-12.6-9.7c0.1,0,0.2,0,0.3-0.1c5.6-1.1,11,2.5,12.1,8
					C4278.3,2348.9,4278.4,2349.4,4278.4,2350z"/>
			</g>
		</g>
	</g>
</g>
<g id="CURTAIN">
	<path class="st3" d="M1811.9,550.7v1449.5c0,12.7-61.7,23-137.8,23s-137.8-10.3-137.8-23V550.7c0,12.7,61.7,23,137.8,23
		S1811.9,563.5,1811.9,550.7z"/>
	<path class="st3" d="M1536.8,550.7v1449.5c0,12.7-61.7,23-137.8,23c-76.1,0-137.8-10.3-137.8-23V550.7c0,12.7,61.7,23,137.8,23
		C1475.1,573.8,1536.8,563.5,1536.8,550.7z"/>
	<path class="st3" d="M2087.5,550.7v1449.5c0,12.7-61.7,23-137.8,23c-76.1,0-137.8-10.3-137.8-23V550.7c0,12.7,61.7,23,137.8,23
		C2025.8,573.8,2087.5,563.5,2087.5,550.7z"/>
	<path class="st3" d="M2363,550.7v1449.5c0,12.7-61.7,23-137.8,23c-76.1,0-137.8-10.3-137.8-23V550.7c0,12.7,61.7,23,137.8,23
		C2301.3,573.8,2363,563.5,2363,550.7z"/>
	<path class="st3" d="M2638.6,550.7v1449.5c0,12.7-61.7,23-137.8,23s-137.8-10.3-137.8-23V550.7c0,12.7,61.7,23,137.8,23
		S2638.6,563.5,2638.6,550.7z"/>
	<path class="st7" d="M2782.1,523.7H1166.2c-6.6,0-12-5.4-12-12v0c0-6.6,5.4-12,12-12h1615.9c6.6,0,12,5.4,12,12v0
		C2794.1,518.3,2788.7,523.7,2782.1,523.7z"/>
	<g>
		<path class="st8" d="M1558,518.9c0,23.5-9.5,41.9-21.7,41.9c-10.7,0-19.5-14.2-21.3-34.2h4.8c1.6,16.7,8.6,29.4,16.5,29.4
			c9.1,0,16.8-17,16.8-37.1c0-20.1-7.7-37.1-16.8-37.1c-5.1,0-10.1,5.7-13.3,14.7h-5.1c3.9-12.3,10.7-19.5,18.4-19.5
			C1548.5,477,1558,495.4,1558,518.9z"/>
	</g>
	<g>
		<path class="st8" d="M1284.6,518.9c0,23.5-9.5,41.9-21.7,41.9c-10.7,0-19.5-14.2-21.3-34.2h4.8c1.6,16.7,8.6,29.4,16.5,29.4
			c9.1,0,16.8-17,16.8-37.1c0-20.1-7.7-37.1-16.8-37.1c-5.1,0-10.1,5.7-13.3,14.7h-5.1c3.9-12.3,10.7-19.5,18.4-19.5
			C1275,477,1284.6,495.4,1284.6,518.9z"/>
	</g>
	<g>
		<path class="st8" d="M1811.9,477c-7.9,0-14.7,7.8-18.5,19.7h5.1c3.1-9,8-14.8,13.4-14.8c9.1,0,16.8,17,16.8,37.1
			c0,20.1-7.7,37.1-16.8,37.1c-8,0-14.8-12.9-16.5-29.5h-4.8c1.8,19.7,10.5,34.3,21.3,34.3c12.1,0,21.7-18.4,21.7-41.9
			C1833.6,495.4,1824,477,1811.9,477z"/>
	</g>
	<g>
		<path class="st8" d="M2087.5,477c-7.9,0-14.7,7.8-18.5,19.8h5.1c3.1-9,8-15,13.4-15c9.1,0,16.8,17,16.8,37.1
			c0,20.1-7.7,37.1-16.8,37.1c-7.9,0-14.8-12.8-16.5-29.4h-4.8c1.8,19.7,10.5,34.2,21.3,34.2c12.2,0,21.7-18.4,21.7-41.9
			C2109.1,495.4,2099.6,477,2087.5,477z"/>
	</g>
	<g>
		<path class="st8" d="M2363,477c-7.9,0-14.7,7.8-18.5,19.7h5.1c3.1-9,8-14.8,13.4-14.8c9.1,0,16.8,17,16.8,37.1
			c0,20.1-7.7,37.1-16.8,37.1c-8,0-14.8-12.9-16.5-29.5h-4.8c1.8,19.8,10.5,34.3,21.3,34.3c12.2,0,21.7-18.4,21.7-41.9
			C2384.7,495.4,2375.2,477,2363,477z"/>
	</g>
	<g>
		<path class="st8" d="M2638.6,477c-7.9,0-14.7,7.8-18.5,19.7h5.1c3.1-9,8-14.8,13.4-14.8c9.1,0,16.8,17,16.8,37.1
			c0,20.1-7.7,37.1-16.8,37.1c-7.9,0-14.8-12.8-16.5-29.4h-4.8c1.8,19.7,10.5,34.2,21.3,34.2c12.2,0,21.7-18.4,21.7-41.9
			C2660.3,495.4,2650.8,477,2638.6,477z"/>
	</g>
</g>
<g id="FLOOR">
	<g>
		<polygon class="st9" points="3831.6,2398.1 4153.5,2398.1 4003.4,2356.8 3681.4,2356.8 		"/>
		<polygon class="st9" points="3190.1,2398.1 3512.1,2398.1 3362,2356.8 3040,2356.8 		"/>
		<polygon class="st9" points="2548.7,2398.1 2870.7,2398.1 2720.5,2356.8 2398.6,2356.8 		"/>
		<polygon class="st9" points="1907.3,2398.1 2229.3,2398.1 2079.1,2356.8 1757.1,2356.8 		"/>
		<polygon class="st9" points="1265.9,2398.1 1587.8,2398.1 1437.7,2356.8 1115.7,2356.8 		"/>
	</g>
	<g>
		<polygon class="st9" points="3661,2439.4 3983,2439.4 3832.8,2398.1 3510.8,2398.1 		"/>
		<polygon class="st9" points="4300.5,2439.4 4622.4,2439.4 4472.3,2398.1 4150.3,2398.1 		"/>
		<polygon class="st9" points="3019.6,2439.4 3341.5,2439.4 3191.4,2398.1 2869.4,2398.1 		"/>
		<polygon class="st9" points="2378.1,2439.4 2700.1,2439.4 2550,2398.1 2228,2398.1 		"/>
		<polygon class="st9" points="1736.7,2439.4 2058.7,2439.4 1908.6,2398.1 1586.6,2398.1 		"/>
		<polygon class="st9" points="1095.3,2439.4 1417.3,2439.4 1267.1,2398.1 945.1,2398.1 		"/>
	</g>
	<g>
		<polygon class="st9" points="3961.6,2523 4283.6,2523 4133.4,2481.7 3811.4,2481.7 		"/>
		<polygon class="st9" points="3320.1,2523 3642.1,2523 3492,2481.7 3170,2481.7 		"/>
		<polygon class="st9" points="2678.7,2523 3000.7,2523 2850.6,2481.7 2528.6,2481.7 		"/>
		<polygon class="st9" points="2037.3,2523 2359.3,2523 2209.1,2481.7 1887.2,2481.7 		"/>
		<polygon class="st9" points="1395.9,2523 1717.9,2523 1567.7,2481.7 1245.7,2481.7 		"/>
	</g>
	<g>
		<polygon class="st9" points="4131.8,2480.7 4453.8,2480.7 4303.7,2439.4 3981.7,2439.4 		"/>
		<polygon class="st9" points="3490.4,2480.7 3812.4,2480.7 3662.3,2439.4 3340.3,2439.4 		"/>
		<polygon class="st9" points="2849,2480.7 3171,2480.7 3020.8,2439.4 2698.8,2439.4 		"/>
		<polygon class="st9" points="2207.6,2480.7 2529.5,2480.7 2379.4,2439.4 2057.4,2439.4 		"/>
		<polygon class="st9" points="1566.1,2480.7 1888.1,2480.7 1738,2439.4 1416,2439.4 		"/>
		<polygon class="st9" points="629.7,2398.1 951.7,2398.1 801.6,2356.8 479.6,2356.8 		"/>
		<polygon class="st9" points="459.1,2439.4 781.1,2439.4 631,2398.1 309,2398.1 		"/>
		<polygon class="st9" points="759.7,2523 1081.7,2523 931.6,2481.7 609.6,2481.7 		"/>
		<polygon class="st9" points="930,2480.7 1252,2480.7 1101.8,2439.4 779.9,2439.4 		"/>
	</g>
</g>
<g id="SHELF">
	<polygon id="SHADOW_5_" class="st9" points="1062.8,1115.6 960.7,1169.5 404,1169.5 404,895.1 461.5,818.7 461.5,1114.2 
		1060,1114.2 	"/>
	<g id="SHELF_1_">
		<rect x="567" y="843.8" class="st0" width="469.1" height="245.2"/>
		<path class="st6" d="M541.9,818.7v295.5h519.3V818.7H541.9z M1036.1,1089H567V843.8h469.1V1089z"/>
		<rect x="461.5" y="818.7" class="st6" width="80.3" height="295.5"/>
	</g>
	<g id="MEDICAL_KIT">
		<path class="st10" d="M725.3,898.7v170.1c0,5.7,4.5,10.3,10,10.3h256c5.5,0,10-4.6,10-10.3V898.7c0-5.7-4.5-10.4-10-10.4h-256
			C729.8,888.3,725.3,893,725.3,898.7z"/>
		<path class="st11" d="M725.3,898.4v170.1c0,5.7,4.5,10.3,10,10.3h256c5.5,0,10-4.6,10-10.3V898.4c0-5.7-4.5-10.4-10-10.4h-256
			C729.8,888.1,725.3,892.7,725.3,898.4z"/>
		<path class="st11" d="M725.3,898.4v170.1c0,5.7,4.5,10.3,10,10.3h22.5c5.5,0,10-4.6,10-10.3V898.4c0-5.7-4.5-10.4-10-10.4h-22.5
			C729.8,888.1,725.3,892.7,725.3,898.4z"/>
		<g>
			<path class="st12" d="M843.6,969.9v20.6c0,1.5,1.2,2.6,2.6,2.6h16.5c1.5,0,2.6,1.2,2.6,2.6v16.5c0,1.5,1.2,2.6,2.6,2.6h20.6
				c1.5,0,2.6-1.2,2.6-2.6v-16.5c0-1.5,1.2-2.6,2.6-2.6h16.5c1.5,0,2.6-1.2,2.6-2.6v-20.6c0-1.5-1.2-2.6-2.6-2.6h-16.5
				c-1.5,0-2.6-1.2-2.6-2.6v-16.5c0-1.5-1.2-2.6-2.6-2.6H868c-1.5,0-2.6,1.2-2.6,2.6v16.5c0,1.5-1.2,2.6-2.6,2.6h-16.5
				C844.8,967.2,843.6,968.4,843.6,969.9z"/>
		</g>
		<line class="st11" x1="745.9" y1="888.3" x2="745.9" y2="1078.9"/>
		<path class="st11" d="M893.7,864H846c-7.7,0-14,6.2-14,14v10.2h75.6v-10.2C907.7,870.2,901.5,864,893.7,864z"/>
	</g>
	<g id="PILL">
		<g>
			<path class="st13" d="M687.7,1079.3H669c-7.1,0-12.9-5.8-12.9-12.9v-40h44.5v40C700.6,1073.5,694.8,1079.3,687.7,1079.3z"/>
			<g>
				<path class="st14" d="M700.2,1012.1h-43.5c-2.4,0-4.3,1.9-4.3,4.3v5.7c0,2.4,1.9,4.3,4.3,4.3h43.5c2.4,0,4.3-1.9,4.3-4.3v-5.7
					C704.5,1014.1,702.5,1012.1,700.2,1012.1z"/>
				<g>
					<path class="st10" d="M658.6,1022.6L658.6,1022.6c-0.4,0-0.7-0.3-0.7-0.7v-5.5c0-0.4,0.3-0.7,0.7-0.7l0,0
						c0.4,0,0.7,0.3,0.7,0.7v5.5C659.3,1022.3,659,1022.6,658.6,1022.6z"/>
					<path class="st10" d="M665.2,1022.6L665.2,1022.6c-0.4,0-0.7-0.3-0.7-0.7v-5.5c0-0.4,0.3-0.7,0.7-0.7l0,0
						c0.4,0,0.7,0.3,0.7,0.7v5.5C665.9,1022.3,665.6,1022.6,665.2,1022.6z"/>
					<path class="st10" d="M671.8,1022.6L671.8,1022.6c-0.4,0-0.7-0.3-0.7-0.7v-5.5c0-0.4,0.3-0.7,0.7-0.7l0,0
						c0.4,0,0.7,0.3,0.7,0.7v5.5C672.5,1022.3,672.2,1022.6,671.8,1022.6z"/>
					<path class="st10" d="M678.4,1022.6L678.4,1022.6c-0.4,0-0.7-0.3-0.7-0.7v-5.5c0-0.4,0.3-0.7,0.7-0.7l0,0
						c0.4,0,0.7,0.3,0.7,0.7v5.5C679.2,1022.3,678.8,1022.6,678.4,1022.6z"/>
					<path class="st10" d="M685,1022.6L685,1022.6c-0.4,0-0.7-0.3-0.7-0.7v-5.5c0-0.4,0.3-0.7,0.7-0.7l0,0c0.4,0,0.7,0.3,0.7,0.7
						v5.5C685.8,1022.3,685.4,1022.6,685,1022.6z"/>
					<path class="st10" d="M691.7,1022.6L691.7,1022.6c-0.4,0-0.7-0.3-0.7-0.7v-5.5c0-0.4,0.3-0.7,0.7-0.7l0,0
						c0.4,0,0.7,0.3,0.7,0.7v5.5C692.4,1022.3,692.1,1022.6,691.7,1022.6z"/>
					<path class="st10" d="M698.3,1022.6L698.3,1022.6c-0.4,0-0.7-0.3-0.7-0.7v-5.5c0-0.4,0.3-0.7,0.7-0.7l0,0
						c0.4,0,0.7,0.3,0.7,0.7v5.5C699,1022.3,698.7,1022.6,698.3,1022.6z"/>
				</g>
			</g>
		</g>
		<g>
			<path class="st6" d="M623.2,1079.3h-18.7c-7.1,0-12.9-5.8-12.9-12.9v-40h44.5v40C636.1,1073.5,630.3,1079.3,623.2,1079.3z"/>
			<g>
				<path class="st12" d="M635.7,1012.1h-43.5c-2.4,0-4.3,1.9-4.3,4.3v5.7c0,2.4,1.9,4.3,4.3,4.3h43.5c2.4,0,4.3-1.9,4.3-4.3v-5.7
					C639.9,1014.1,638,1012.1,635.7,1012.1z"/>
				<g>
					<path class="st10" d="M594.1,1022.6L594.1,1022.6c-0.4,0-0.7-0.3-0.7-0.7v-5.5c0-0.4,0.3-0.7,0.7-0.7l0,0
						c0.4,0,0.7,0.3,0.7,0.7v5.5C594.8,1022.3,594.5,1022.6,594.1,1022.6z"/>
					<path class="st10" d="M600.7,1022.6L600.7,1022.6c-0.4,0-0.7-0.3-0.7-0.7v-5.5c0-0.4,0.3-0.7,0.7-0.7l0,0
						c0.4,0,0.7,0.3,0.7,0.7v5.5C601.4,1022.3,601.1,1022.6,600.7,1022.6z"/>
					<path class="st10" d="M607.3,1022.6L607.3,1022.6c-0.4,0-0.7-0.3-0.7-0.7v-5.5c0-0.4,0.3-0.7,0.7-0.7l0,0
						c0.4,0,0.7,0.3,0.7,0.7v5.5C608,1022.3,607.7,1022.6,607.3,1022.6z"/>
					<path class="st10" d="M613.9,1022.6L613.9,1022.6c-0.4,0-0.7-0.3-0.7-0.7v-5.5c0-0.4,0.3-0.7,0.7-0.7l0,0
						c0.4,0,0.7,0.3,0.7,0.7v5.5C614.6,1022.3,614.3,1022.6,613.9,1022.6z"/>
					<path class="st10" d="M620.5,1022.6L620.5,1022.6c-0.4,0-0.7-0.3-0.7-0.7v-5.5c0-0.4,0.3-0.7,0.7-0.7l0,0
						c0.4,0,0.7,0.3,0.7,0.7v5.5C621.3,1022.3,620.9,1022.6,620.5,1022.6z"/>
					<path class="st10" d="M627.2,1022.6L627.2,1022.6c-0.4,0-0.7-0.3-0.7-0.7v-5.5c0-0.4,0.3-0.7,0.7-0.7l0,0
						c0.4,0,0.7,0.3,0.7,0.7v5.5C627.9,1022.3,627.5,1022.6,627.2,1022.6z"/>
					<path class="st10" d="M633.8,1022.6L633.8,1022.6c-0.4,0-0.7-0.3-0.7-0.7v-5.5c0-0.4,0.3-0.7,0.7-0.7l0,0
						c0.4,0,0.7,0.3,0.7,0.7v5.5C634.5,1022.3,634.2,1022.6,633.8,1022.6z"/>
				</g>
			</g>
		</g>
		<g>
			<path class="st13" d="M641.7,1007.6H623c-7.1,0-12.9-5.8-12.9-12.9v-40h44.5v40C654.6,1001.8,648.8,1007.6,641.7,1007.6z"/>
			<g>
				<path class="st14" d="M654.2,940.4h-43.5c-2.4,0-4.3,1.9-4.3,4.3v5.7c0,2.4,1.9,4.3,4.3,4.3h43.5c2.4,0,4.3-1.9,4.3-4.3v-5.7
					C658.5,942.3,656.6,940.4,654.2,940.4z"/>
				<g>
					<path class="st10" d="M612.6,950.9L612.6,950.9c-0.4,0-0.7-0.3-0.7-0.7v-5.5c0-0.4,0.3-0.7,0.7-0.7l0,0c0.4,0,0.7,0.3,0.7,0.7
						v5.5C613.3,950.6,613,950.9,612.6,950.9z"/>
					<path class="st10" d="M619.2,950.9L619.2,950.9c-0.4,0-0.7-0.3-0.7-0.7v-5.5c0-0.4,0.3-0.7,0.7-0.7l0,0c0.4,0,0.7,0.3,0.7,0.7
						v5.5C620,950.6,619.6,950.9,619.2,950.9z"/>
					<path class="st10" d="M625.9,950.9L625.9,950.9c-0.4,0-0.7-0.3-0.7-0.7v-5.5c0-0.4,0.3-0.7,0.7-0.7l0,0c0.4,0,0.7,0.3,0.7,0.7
						v5.5C626.6,950.6,626.2,950.9,625.9,950.9z"/>
					<path class="st10" d="M632.5,950.9L632.5,950.9c-0.4,0-0.7-0.3-0.7-0.7v-5.5c0-0.4,0.3-0.7,0.7-0.7l0,0c0.4,0,0.7,0.3,0.7,0.7
						v5.5C633.2,950.6,632.9,950.9,632.5,950.9z"/>
					<path class="st10" d="M639.1,950.9L639.1,950.9c-0.4,0-0.7-0.3-0.7-0.7v-5.5c0-0.4,0.3-0.7,0.7-0.7l0,0c0.4,0,0.7,0.3,0.7,0.7
						v5.5C639.8,950.6,639.5,950.9,639.1,950.9z"/>
					<path class="st10" d="M645.7,950.9L645.7,950.9c-0.4,0-0.7-0.3-0.7-0.7v-5.5c0-0.4,0.3-0.7,0.7-0.7l0,0c0.4,0,0.7,0.3,0.7,0.7
						v5.5C646.4,950.6,646.1,950.9,645.7,950.9z"/>
					<path class="st10" d="M652.3,950.9L652.3,950.9c-0.4,0-0.7-0.3-0.7-0.7v-5.5c0-0.4,0.3-0.7,0.7-0.7l0,0c0.4,0,0.7,0.3,0.7,0.7
						v5.5C653,950.6,652.7,950.9,652.3,950.9z"/>
				</g>
			</g>
		</g>
	</g>
	<g id="GLASS" class="st15">
		<polygon class="st10" points="993.9,850 743.6,1082.9 694.5,1082.9 944.8,850 		"/>
		<polygon class="st10" points="643.5,1082.9 573.9,1082.9 573.9,850 893.8,850 		"/>
	</g>
</g>
<g id="DOCTOR">
	<g id="SHOES_2_">
		<g>
			<path class="st12" d="M3963.1,2354.9h160c1.4,0,2.6-1.2,2.6-2.6v-4.2c0-1.4-1.2-2.6-2.6-2.6h-160c-1.4,0-2.6,1.2-2.6,2.6v4.2
				C3960.5,2353.7,3961.7,2354.9,3963.1,2354.9z"/>
			<path class="st16" d="M4104.8,2293.6h-57.6c0,0-6.9,14.8-44.6,18.7c-42.1,4.3-39.1,33.2-39.1,33.2h157.7
				C4121.2,2345.5,4128.7,2323.6,4104.8,2293.6z"/>
		</g>
		<g>
			<path class="st16" d="M3849.7,2293.6H3792c0,0-6.9,15.8-44.6,19.6c-41.9,4.3-39.1,32.2-39.1,32.2H3866
				C3866,2345.5,3873.6,2323.6,3849.7,2293.6z"/>
			<path class="st12" d="M3707,2354.9h162c1.4,0,2.6-1.2,2.6-2.6v-4.2c0-1.4-1.2-2.6-2.6-2.6h-162c-1.4,0-2.6,1.2-2.6,2.6v4.2
				C3704.4,2353.7,3705.6,2354.9,3707,2354.9z"/>
		</g>
	</g>
	<path id="LEGS_1_" class="st12" d="M4054.8,1477.9c1.4,46.4,7.3,405.4,48.7,506.2c42,102.2,17.9,310,17.9,310
		c-57.5,9.1-80.8-1-80.8-1s-82.8-344.8-141.1-586.2c-5.9,93.7-12,233.1-2.1,301.1c15.7,108.2-18.5,286.4-18.5,286.4
		c-49.6,7.7-106.5,0-106.5,0s-11.2-171.6-17.7-367.4c-3-90.9-20.6-425.1-19.9-447.3L4054.8,1477.9z"/>
	<path id="TORSO" class="st12" d="M3949.9,1029.1c12.9,0,135.6,24.4,135.4,77.8c-0.1,58.5-62.3,251.1-57.1,286.4s38.4,82,23.1,88.7
		c-41.3,18.1-179.1,32.5-316.8-2.7c0,0,14.4-32.4-10.4-173.4c-13.5-76.9-16.7-223.9-5.1-239.3s80.9-31.2,106.3-35.9
		S3949.9,1029.1,3949.9,1029.1z"/>
	<g id="LAB_COAT">
		<path class="st10" d="M3945.9,1028.7c-3.1,17.7-36.9,419.1,6.8,618.9c0,0,70.9,9.7,143.6-17.6c0,0-41.2-251.1-43.8-292.9
			s29.5-257.1,10.1-269C3998.1,1028.7,3945.9,1028.7,3945.9,1028.7z"/>
		<path class="st10" d="M3820.6,1031.4c0,0,9.7,381.3,11.9,614.2c0,0-70,17.5-130.4-9.8c0,0,23.7-281.9,24.1-317.8
			c0.3-35.9-18.3-248.3,2.1-259.1C3772.2,1035.7,3820.6,1031.4,3820.6,1031.4z"/>
	</g>
	<g id="HANDS_1_">
		<g id="RIGHT_HAND_2_">
			<path id="HAND_3_" class="st10" d="M4142.9,1386.1c51.5-65.8-8.3-312.3-95.3-323.1c-9.2-1.1-28.5,5.8-29.8,63.6
				c-1.1,48.1,19.1,139.8,29,181.9c-73.1,8.3-183.7,36.6-200.2,38.1c-18.6,1.7-7.3,62.4,11.6,64.7
				C3888.6,1415,4081.8,1431.1,4142.9,1386.1z"/>
			<path id="SHADOW_7_" class="st17" d="M3839,1355.2c-1.8-12.6,131.8-33.9,205-45.1c-10.4-44.8-20.4-120.1-20.4-120.1"/>
			<line id="PEN" class="st18" x1="3738.3" y1="1396.5" x2="3816.3" y2="1288.7"/>
			<path id="ARM_1_" class="st19" d="M3849.8,1359.7c-9.1-8-63.4-20.7-69.2-16.9c-5.8,3.8-52.2,14.1-52.2,14.1s1.3,11.1,19.7,8.7
				c21.4-2.9,26.1,1.5,26.1,1.5s-2.6,11.9,4.2,16.1c6.8,4.3-1.8,10.9,7.7,19.3c5.6,4.9,6,11.2,13.2,12.4c7.1,1.1,46.1-18.4,52.9-32
				C3858,1371.3,3855.2,1364.4,3849.8,1359.7z"/>
		</g>
		<g id="LEFT_HAND_2_">
			<path id="HAND_4_" class="st10" d="M3551.2,1347.1c-15.1-13.3-43.1-86.7,4.1-86.7c10.5,0,36.4,3.7,65.7,10.5
				c10.3-61.8,31.3-158.6,65.1-187.1c18.5-15.6,45.4-26.6,54.6-29.7c58.1-19.5,42.4,381.9-47.9,366.2
				C3662.7,1414.9,3579.1,1371.7,3551.2,1347.1z"/>
			<path id="SHADOW_8_" class="st17" d="M3719,1328.9c4.2-26.5-4.1-69.8-5.9-132.7"/>
			<g id="TABLET">
				<path class="st14" d="M3656.9,1477.7H3826c6.2,0,10-6.7,6.9-12.1l-133.6-227.1c-2.6-4.4-7.4-7.2-12.5-7.2h-169.1
					c-6.2,0-10,6.7-6.9,12.1l133.6,227.1C3647,1474.9,3651.8,1477.7,3656.9,1477.7z"/>
				<g>
					<path class="st20" d="M3632.6,1344.8l11.1,19.3c0.8,1.4,2.5,2.5,3.9,2.5h15.4c1.4,0,3.1,1.1,3.9,2.5l8.9,15.4
						c0.8,1.4,2.5,2.5,3.9,2.5h19.3c1.4,0,1.8-1.1,1-2.5l-8.9-15.4c-0.8-1.4-0.3-2.5,1-2.5h15.4c1.4,0,1.8-1.1,1-2.5l-11.1-19.3
						c-0.8-1.4-2.5-2.5-3.9-2.5h-15.4c-1.4,0-3.1-1.1-3.9-2.5l-8.9-15.4c-0.8-1.4-2.5-2.5-3.9-2.5h-19.3c-1.4,0-1.8,1.1-1,2.5
						l8.9,15.4c0.8,1.4,0.3,2.5-1,2.5h-15.4C3632.3,1342.3,3631.8,1343.5,3632.6,1344.8z"/>
				</g>
			</g>
			<g id="FINGERS_1_">
				<g>
					<path class="st19" d="M3565.5,1317.6c-1.5,6.5-2.1,9.4-7.4,11.3l0,0c-5.7,4.2-16,5.2-29,5.5c-10.1,0.3-8-17.8-8-17.8
						c-3.4-2.5-4.5-10-2.5-16.6c0,0-6.7-6.1-3.3-16.8c0,0-5.4-6.7-3.3-14.6c1.2-4.5,14.7-5,24.5-5.2c6.7-0.4,12.2-0.6,15-0.7
						c3-0.1,6.7,6.1,6.2,14.8c0,0,2.9,3,3.3,7.7c0.6,7.5,4.1,19,2.8,26.6C3563.3,1314.5,3565.8,1316.4,3565.5,1317.6z"/>
				</g>
				<g>
					<path class="st21" d="M3517.9,1266.5c6.6-0.8,28.3-3.5,33.5-3.8c7.4-0.5,10.7,14.6,1.3,15.7c0,0-15.5,4.2-36.1,4.9"/>
					<path class="st21" d="M3520.3,1299.8c31.5-2.5,37.7-5.1,37.7-5.1c4.6-0.4,5.8-17.3-5.3-16.3"/>
					<path class="st21" d="M3522.5,1316.5c29.7-1.8,39.2-5.3,39.2-5.3c4.3-0.7,5-17.9-3.8-16.5"/>
					<path class="st21" d="M3553.9,1313.2c0,0,9.7-3.8,11.4,2.5c2.9,11.1-10,14.9-36.7,17.5"/>
				</g>
			</g>
		</g>
	</g>
	<g id="NAME_TAG">
		<path class="st9" d="M3806.5,1251.6h-73.7c-2.2,0-4-1.8-4-4V1207c0-2.2,1.8-4,4-4h73.7c2.2,0,4,1.8,4,4v40.5
			C3810.5,1249.8,3808.7,1251.6,3806.5,1251.6z"/>
		<rect x="3764.8" y="1185.5" class="st22" width="9.8" height="22.5"/>
		<g>
			<rect x="3738.7" y="1212.5" class="st10" width="17.7" height="21.3"/>
			<rect x="3762.1" y="1212.5" class="st10" width="38" height="4.9"/>
			<rect x="3762.1" y="1220.6" class="st10" width="38" height="4.9"/>
			<rect x="3762.1" y="1228.8" class="st10" width="38" height="4.9"/>
			<rect x="3738.7" y="1237.1" class="st10" width="61.3" height="4.9"/>
		</g>
	</g>
	<g id="STETHOSCOPE">
		<g>
			<path class="st23" d="M3904.7,1209.4c-8.6-3-13.7-11.9-11.8-20.5l12.1-55.4c6.2-27.4,35.5-43,62.7-33.4l0,0
				c27.2,9.6,40.3,40.1,27.9,65.3l-25.2,50.8c-4,8-13.4,11.7-22,8.6"/>
			<path class="st23" d="M3909.5,1215.8l-3.6-1.3c-2.3-0.8-3.5-3.4-2.7-5.7l0,0c0.8-2.3,3.4-3.5,5.7-2.7l3.6,1.3
				c2.3,0.8,3.5,3.4,2.7,5.7h0C3914.4,1215.4,3911.9,1216.6,3909.5,1215.8z"/>
			<path class="st23" d="M3944.3,1228l-3.6-1.3c-2.3-0.8-3.5-3.4-2.7-5.7l0,0c0.8-2.3,3.4-3.5,5.7-2.7l3.6,1.3
				c2.3,0.8,3.5,3.4,2.7,5.7l0,0C3949.1,1227.6,3946.6,1228.9,3944.3,1228z"/>
			<path class="st23" d="M3903.6,1140.2c0,0,22.3-30.8,56.6-18.7c33.8,11.9,32.4,50,32.4,50"/>
		</g>
		<path class="st5" d="M3791.9,1124.2c0,0-22.2-102.6,46.5-114.2"/>
		<g>
			<circle class="st10" cx="3799.5" cy="1145" r="21.6"/>
			<circle class="st24" cx="3799.3" cy="1145.1" r="21.6"/>
			<circle class="st8" cx="3799.2" cy="1145" r="14.4"/>
		</g>
		<path class="st5" d="M3968.7,1099.6c0,0,36-88.4-33.6-95.4"/>
	</g>
	<g id="HEAD_4_">
		<g id="NECK_3_">
			<path class="st19" d="M3924,944.9c0,0-8.9,41.7,21.8,83.8c0,0-53.1,27.2-125.3,2.8c0,0,42.5-14.7,24.4-84.8L3924,944.9z"/>
			<path class="st25" d="M3922.3,944.9c0,2.8,0,5.1,0,6.8c0,0-3.1,31.6-19.4,47.2c-12.7,12.1-51.9,24.4-64.6,18.3
				c8.4-17.3,13.8-42.6,6.6-70.5L3922.3,944.9z"/>
		</g>
		<g id="HAIR_2_">
			<path class="st16" d="M3923.4,951.2l-0.1-3.5l-0.5-15.8c0,0-16.7,0.6-10.7-24.4c6.5-27.4-4.4-40.2-32.6-29.3
				c-20.4,7.8-39.9,14.1-53.4,3.1c-2.3-1.9-4.5-4.2-6.4-7.2c-7.6-11.5-4.2-12.6,8-20.1c15.3-9.5,32.3-28.8,70.3-20.8
				c30.4,6.4,31.9,31.9,31.9,31.9s18.2-4.1,22.3,14.9C3957.3,903.9,3923.4,951.2,3923.4,951.2z"/>
			<path class="st26" d="M3928.9,865.9c0,0,9.6-9.4,19.6-3.2"/>
		</g>
		<path id="HEAD_5_" class="st19" d="M3921.8,953.1L3921.8,953.1c-4.2,6.9-16.7,26.6-23,29c-18.8,7.1-48.8,13.2-58.8,8.1
			c-6.8-3.5-7.2-3.7-15.2-38.6c-4.5-19.5-2-54.8,1.1-70.4c13.6,11,33,4.8,53.4-3.1c28.2-10.9,39.1,1.9,32.6,29.3
			c-5.1,21.6,6.6,24.1,9.9,24.4h0c0.6-0.7,8.2-9,15.3-2.8C3942.2,933.3,3925.2,949.9,3921.8,953.1z"/>
	</g>
</g>
<g id="NURSE_1_">
	<g id="HAIR_1_">
		<path class="st8" d="M2677.8,907.8c0,0-49.7-9.1-62.5,31.3c-12.8,40.5,23.2,59.6,20.6,86.5c-2.6,26.8-24.1,16.9-24.1,16.9
			s9.4,32.9,67.8,15.5c58.5-17.4,56.4,138.3,203.4,98.3c0,0,20.6-69.7-24.2-95.2c-39.2-22.3-82.6-7.4-80.9-23.6
			c1.7-16.2,57.7-83.4-2.2-132.6C2727.9,865.8,2677.8,907.8,2677.8,907.8z"/>
		<path class="st24" d="M2622.1,929.7c-20,37.4,8.2,62.9,6.2,89.7c-1.7,22.9-19.6,12.6-19.6,12.6"/>
		<path class="st24" d="M2897.4,1150.5c0,0,20.6-69.7-24.2-95.2c-39.2-22.3-99-1.6-97.3-17.8"/>
	</g>
	<g id="LEGS">
		<g id="LEFT_LEG">
			<path id="FOOT" class="st19" d="M2563.5,2219c-8,15.6-37.6,58.3-37.8,78.9c-0.2,16.7,13.9,29.7,6.7,41.2
				c-9.5,15.2-127,4.8-130.1,4.1c-3.2-0.7,54-28.3,69.4-56.5c19.7-36.1,25.5-70.1,25.5-70.1L2563.5,2219z"/>
			<g id="SHOES_1_">
				<path class="st12" d="M2397.8,2355.8h136.5c3,0,5.5-2.4,5.5-5.5l0,0c0-3-2.4-5.5-5.5-5.5h-136.5c-3,0-5.5,2.4-5.5,5.5l0,0
					C2392.4,2353.4,2394.8,2355.8,2397.8,2355.8z"/>
				<path class="st0" d="M2476.2,2344.9l-29.9-36.6c0,0-48.6,17.5-48.6,36.5L2476.2,2344.9z"/>
				<path class="st0" d="M2481.9,2344.9c0,0,10.7-41.1,43.8-44.6c0,0,20.2,23.2,6.8,44.6H2481.9z"/>
			</g>
			<path id="SHADOW_2_" class="st25" d="M2495.4,2225.5c11.9,5.4,34.3,14.7,54.1,17.5c5.9-9.9,11.3-18.6,14-24.1l-66.2-2.4
				C2497.3,2216.6,2496.8,2219.9,2495.4,2225.5z"/>
			<path id="PANT" class="st0" d="M2593.6,1520.6c-8.1,62.5-25.5,145.5-60.8,420.7c-16.4,128.2-45.9,272.6-45.9,272.6
				s58.2,17.4,86.6,7.8c0,0,21.8-3.8,18.7-22.5c-2.4-14.8,23-23.4,21.1-46.8c-2.1-27.3,18.6-62.9,35.7-122.6
				c26-90.6,65.2-197.9,94.1-287.3c14.3-44.4,57.7-199,14.5-211.1L2593.6,1520.6z"/>
		</g>
		<g id="RIGHT_LEG_1_">
			<path id="FOOT_1_" class="st19" d="M2865.1,2219c-3.5,13.1-16.2,58-11.6,74.2c4.6,16.1,17.3,28,13.8,44.4
				c-3.7,17.5-106.4,6.4-109.5,5.7c-3.2-0.7,54.5-32.7,55.2-56.5c0.7-23.8-6.9-67.8-6.9-67.8H2865.1z"/>
			<g id="SHOES">
				<path class="st12" d="M2741.4,2355.8h126.8c3,0,5.5-2.4,5.5-5.5l0,0c0-3-2.4-5.5-5.5-5.5h-126.8c-3,0-5.5,2.4-5.5,5.5l0,0
					C2735.9,2353.4,2738.3,2355.8,2741.4,2355.8z"/>
				<path class="st0" d="M2832.2,2345.6c0,0-13.3-16.2-32.1-21c-20.6-5.2-30.6-2.4-41.7,3.2c-10.8,5.4-16.8,17.2-16.8,17.2
					L2832.2,2345.6z"/>
				<path class="st0" d="M2832.7,2345.3c0,0-1.1-38.1,24-43c0,0,24.2,21.6,10.8,43H2832.7z"/>
			</g>
			<path id="SHADOW_3_" class="st25" d="M2865.1,2219H2806c0,0,1.5,8.4,3,19.9c21.5,2,43.6-5.1,53-8.7
				C2863.3,2225.6,2864.4,2221.6,2865.1,2219z"/>
			<path id="PANT_1_" class="st0" d="M2670.1,1524.5c13.6,31.7,32.3,149,34.2,161.5c17.2,109.4,47.5,256.1,53.1,284
				c11.5,57.5,21.2,147,31.8,201.6c5.5,28.4,8.3,47.4,8.3,47.4c29.2,7.1,67.6,0,67.6,0s29.3,1.6,20.4-28.1
				c-5.3-17.7,11.2-25.9,10.6-50.6c-0.3-15.4-4-20.3-3.2-56.8c1.5-67.7-16.8-161.3-19.2-186.4c-2.1-21.7,20.3-125.6,27.5-260.8
				c3.7-70-31.7-109.1-31.4-120.2C2869.9,1516,2783.1,1537.4,2670.1,1524.5z"/>
		</g>
	</g>
	<g id="LEFT_HAND_1_">
		<g id="HAND_2_">
			<path class="st19" d="M2589.8,1300.3c-6,13.7-50.7,100.9-88.9,100.9c-49.7,0-193.6-86.2-205.5-91.3c-14.2-6.2,5.2-28.5,5.2-28.5
				s179.4,38.8,188.8,41.3l29.1-65.9L2589.8,1300.3z"/>
			<path class="st25" d="M2589.8,1300.3c-1.6,3.5-5.8,10.8-11.9,23.9l-64-56.9l4.6-10.5L2589.8,1300.3z"/>
		</g>
		<path id="ARM" class="st19" d="M2265,1252.7c1.3,4.2,6.9,10.2,2.3,10.8c-2.4,0.3-20,0-21.2,6.7c-0.9,4.9,1.8,9.1,1.8,9.1
			c-3,6.2,0.6,10.3,0.6,10.3c-1.8,3.8-1.7,8.5,0.2,10.2c0,0-2.7,9.8,1.5,11.3c12.7,4.9,34.7,2.4,42.1,0.3c6.4-1.8,11.6-8,11.6-21.9
			c0-5.7-3.8-18.5-8.9-23.9c-2.1-2.2-13.7-12.2-16.2-14.6c-5.9-5.5-9-16.5-9-16.5S2261.4,1241,2265,1252.7z"/>
		<g id="DRIP_1_">
			<line class="st27" x1="2261.8" y1="1000.9" x2="2261.8" y2="2272.5"/>
			<path class="st27" d="M2355.7,2306.9v-12c0-12.4-14.3-22.5-31.9-22.5h-124.1c-17.6,0-31.9,10.1-31.9,22.5v12"/>
			<circle class="st28" cx="2168.5" cy="2331.4" r="24.4"/>
			<circle class="st28" cx="2355.3" cy="2331.4" r="24.4"/>
			<path class="st27" d="M2376.8,1047.1c0,8.8-7.2,16-16,16l0,0c-8.8,0-16-7.2-16-16V1035h-165.3v12.1c0,8.8-7.2,16-16,16h0
				c-8.8,0-16-7.2-16-16"/>
			<path class="st7" d="M2164.5,1056L2164.5,1056c-5.5,0-10,4.5-10,10v8.1h20.1v-8.1C2174.6,1060.5,2170.1,1056,2164.5,1056z"/>
			<path class="st7" d="M2205,1218.1h-78c-7.6,0-13.7-6.1-13.7-13.7v-116.6c0-7.6,6.1-13.7,13.7-13.7h78c7.6,0,13.7,6.1,13.7,13.7
				v116.6C2218.7,1211.9,2212.6,1218.1,2205,1218.1z"/>
			<path class="st0" d="M2209.6,1160.4v34.9c0,7.3-5.9,13.2-13.2,13.2h-60.8c-7.3,0-13.2-5.9-13.2-13.2v-34.9H2209.6z"/>
			<path class="st28" d="M2176.5,1230.4h-15.3c-2.1,0-3.8-1.7-3.8-3.8v-8.6h23v8.6C2180.3,1228.7,2178.6,1230.4,2176.5,1230.4z"/>
		</g>
		<g id="FINGERS">
			<g>
				<path class="st19" d="M2275.3,1302.8c-0.7,7-2.4,8.2-18.6,7.5c0,0-6.1,0.1-7-15.6c-1.4-23.2,0.8-26.1,0.8-26.1
					c9,0,17.6,1,20.8,1.2C2277.9,1270.2,2275.7,1298.3,2275.3,1302.8z"/>
			</g>
			<g>
				<path class="st29" d="M2250.5,1268.6c0,2.9,17.6,1,20.8,1.2c4.5,0.3,5.2,9.6-0.5,9.5c0,0-10.6,1.3-23.1,0"/>
				<path class="st29" d="M2248.6,1289.6c19.1,1.1,24,0,24,0c2.8,0.1,4.9-9.9-1.9-10.2"/>
				<path class="st29" d="M2249.6,1299.8c18,1.3,24,0,24,0c2.6-0.1,4.4-10.4-0.9-10.2"/>
				<path class="st29" d="M2268.7,1300.4c0,0,6.2-1.5,6.6,2.4c0.8,6.9-2.4,8.2-18.6,7.5"/>
			</g>
		</g>
	</g>
	<g id="SHIRT_2_">
		<path class="st9" d="M2780.6,1084.7c7.1,5.1,65,29.8,84.2,47.3c24.8,22.7,65.8,120.1,65.8,120.1s-58.8,46-99.6,50.5L2813,1279
			c0,0-17.6,58.1-14.4,88.2c1.7,16.3,68.7,145.7,71.2,148.9c2.6,3.2-120.1,56.9-277.3,10.3c0,0,31-153.7,5.1-174.1
			c-17.9-14.1-23.7-47-21.2-57.9c0,0-68.8-40.2-76.5-54.9c0,0,51.8-86.4,76.7-102.3c23.9-15.2,102.7-40.8,102.7-40.8L2780.6,1084.7z
			"/>
		<path class="st0" d="M2816.5,1102.9c0,0-123.4,133.5-131.2,133.5c-6.7,0-34.9-130.6-34.9-130.6l24.1-7.6c0,0,16.4,83.3,19.4,83.7
			s94.9-92.7,94.9-92.7L2816.5,1102.9z"/>
	</g>
	<g id="PACK">
		<path class="st7" d="M2677.5,1442.4L2677.5,1442.4c-5.5-0.9-10.6,2.8-11.5,8.3l-1.3,8l19.8,3.2l1.3-8
			C2686.7,1448.4,2683,1443.2,2677.5,1442.4z"/>
		<path class="st10" d="M2691.6,1608.8l-77-12.4c-7.5-1.2-12.5-8.2-11.3-15.7l18.6-115.1c1.2-7.5,8.2-12.5,15.7-11.3l77,12.4
			c7.5,1.2,12.5,8.2,11.3,15.7l-18.6,115.1C2706.1,1604.9,2699.1,1610,2691.6,1608.8z"/>
		<path class="st7" d="M2691.6,1608.8l-77-12.4c-7.5-1.2-12.5-8.2-11.3-15.7l18.6-115.1c1.2-7.5,8.2-12.5,15.7-11.3l77,12.4
			c7.5,1.2,12.5,8.2,11.3,15.7l-18.6,115.1C2706.1,1604.9,2699.1,1610,2691.6,1608.8z"/>
		<path class="st8" d="M2686.1,1550l-50.7-8.2c-3-0.5-5-3.3-4.6-6.3l3.8-23.7c0.5-3,3.3-5,6.3-4.6l50.7,8.2c3,0.5,5,3.3,4.6,6.3
			l-3.8,23.7C2692,1548.5,2689.1,1550.5,2686.1,1550z"/>
		<path class="st28" d="M2661.5,1616.5l-15.1-2.4c-2.1-0.3-3.5-2.3-3.2-4.4l1.4-8.5l22.7,3.7l-1.4,8.4
			C2665.6,1615.4,2663.6,1616.8,2661.5,1616.5z"/>
	</g>
	<g id="RIGHT_HAND_1_">
		<path class="st19" d="M2928,1351.2c-58.6,49.8-177,93.1-199.2,90.6c-0.7,1.3-11.2,21.4-21.6,21.4c-10.8,0-20.9-5.8-26.6,0.2
			c-5.7,6-11.6,15.8-15.9,16.7c-9.1,1.8-15.5-2-15.5-2s3.7-9.1,7.6-17.8c-3.5,3.2-8.2,10.3-10.8,13.1c-3.9,4.2-7.4,0.4-7.4,0.4
			s7.6-14.5,10.5-18.3c2.8-3.7,11.7-9.6,16.5-11.5c5.6-3,37.2-20,54.2-23.4c27.9-20.6,99.1-72.3,133.6-91.1l-12.4-28.7
			c0,0,34.1-8.6,70.7-35.1C2911.7,1265.7,2939.7,1341.3,2928,1351.2z"/>
		<path class="st25" d="M2911.7,1265.7c0,0-30.9,23.7-70.7,35.1l4.5,10.3c0,0,33.3-15.5,77.6-10.7
			C2923,1300.4,2913,1267.7,2911.7,1265.7z"/>
		<path class="st30" d="M2655.5,1478c0,0,10-22.8,13.5-25.1c6.1-4.2,14.2-9.7,14.2-9.7"/>
		<path class="st30" d="M2661.6,1479c0,0,9.6-19.5,13.1-21.8c6.1-4.2,14.2-9.7,14.2-9.7"/>
	</g>
	<g id="HEAD_1_">
		<g id="NECK">
			<path class="st19" d="M2744.7,1004.9c0.7,13.5-4.5,63.5,45.6,84.6l-96.3,92.5l-19.4-83.7c0,0,12.4-19.9,6.3-87.6L2744.7,1004.9z"
				/>
		</g>
		<path id="SHADOW_6_" class="st25" d="M2744.4,1009.9c0,0-10.9,72.4-64.8,76.1c-0.3,0-0.5,0-0.8,0c2.9-12.5,5.7-35.7,2.1-75.4
			L2744.4,1009.9z"/>
		<path id="HEAD" class="st19" d="M2679.6,1058c31.7-2.9,64.8-48.1,64.8-48.1c9.1-6.3,10.1-20.3,2.8-22.9
			c-8.5-3-15.3,11.9-18.5,12.1c-5.6,3.9-19.6-2.9-19.4-32.9c0.1-13.7-4.4-22.6-11-27.8c0,0,0,0,0,0c-1.8-1.3-3.7-2.5-5.6-3.4
			c0,0,0,0,0,0c-4.7-2.3-9.9-3.4-15.5-2.9c-39.4,3.5-37.7,37.6-36.7,50.9C2641.7,1002.2,2654,1060.3,2679.6,1058z"/>
	</g>
</g>
<g id="PATIENT__x26__BED">
	<g id="BACK_BEDSIDE">
		<g>
			<path class="st27" d="M1871.9,1623.9h-545.1c-60.7,0-110,49.2-110,110v254h765.1v-254C1981.9,1673.1,1932.7,1623.9,1871.9,1623.9
				z"/>
			<line class="st27" x1="1214.5" y1="1780.9" x2="1981.9" y2="1780.9"/>
		</g>
		<path class="st6" d="M1646.7,1995.6h-124.9l-291.4-569.2l5.5-2.8c15.5-7.9,32.1-11.7,48.4-11.6h0.3c37.8,0.3,74.2,21.1,92.6,57.1
			L1646.7,1995.6z"/>
		<path class="st9" d="M2324.3,1986.9h-667l-269.5-526.4c-18.4-36-54.8-56.8-92.6-57.1h667c37.8,0.3,74.2,21.1,92.6,57.1
			L2324.3,1986.9z"/>
		<path class="st0" d="M2927.1,1984.8v2.1H1532.4l-0.5-1.1L1241,1417.7l5.5-2.8c15.5-7.9,32.1-11.7,48.4-11.5h0.3
			c37.8,0.3,74.2,21.1,92.6,57.1l216,421.8c11.6-4.2,24.1-6.5,37.2-6.5h1177.1C2878.3,1875.7,2927.1,1924.6,2927.1,1984.8z"/>
		<g>
			<g>
				<g>
					<path class="st27" d="M2644.9,2088.5v128.3c0,14.9,12.1,27,27,27l0,0c33.8,0,61.2,27.4,61.2,61.2v5.9"/>
					<circle class="st9" cx="2657.4" cy="2316.6" r="48.9"/>
					<circle class="st27" cx="2667.9" cy="2306.9" r="48.9"/>
				</g>
				<g>
					<path class="st27" d="M3455.8,2088.5v128.3c0,14.9,12.1,27,27,27l0,0c33.8,0,61.2,27.4,61.2,61.2v5.9"/>
					<circle class="st9" cx="3468.2" cy="2316.6" r="48.9"/>
					<circle class="st27" cx="3478.8" cy="2306.9" r="48.9"/>
				</g>
				<line class="st27" x1="2644.9" y1="2167.1" x2="3455.8" y2="2167.1"/>
			</g>
			<g>
				<g>
					<path class="st27" d="M1262.2,2088.5v128.3c0,14.9-12.1,27-27,27h0c-33.8,0-61.2,27.4-61.2,61.2v5.9"/>
					<circle class="st9" cx="1228.6" cy="2316.6" r="48.9"/>
					<circle class="st27" cx="1239.2" cy="2306.9" r="48.9"/>
				</g>
				<g>
					<path class="st27" d="M1941.2,2088.5v128.3c0,14.9-12.1,27-27,27l0,0c-33.8,0-61.2,27.4-61.2,61.2v5.9"/>
					<circle class="st9" cx="1907.6" cy="2316.6" r="48.9"/>
					<circle class="st27" cx="1918.2" cy="2306.9" r="48.9"/>
				</g>
				<line class="st27" x1="1941.2" y1="2167.1" x2="1262.2" y2="2167.1"/>
			</g>
		</g>
	</g>
	<g id="PATIENT">
		<g id="SHIRT_1_">
			<path id="SHIRT" class="st10" d="M1755,1500.3c-35.9,13.2-98.2,39.1-122.2,71.6c-24,32.6-49.8,138.9-49.8,138.9s40.2,46,171,40.3
				c0,0,68.5,124.6,235.3,124.6c0,0,63.7-127.7,192.9-156.8c0,0-33.1,13.2-81.7-4.6c-32.6-11.9-42.2-48.5-42.2-48.5
				s37.7-28.4,47-58.4c0,0-74.7-92-110.2-101.6c-35.5-9.6-114.9-12.3-114.9-12.3L1755,1500.3z"/>
			<g id="PATTERN">
				<g>
					<circle class="st9" cx="1777.5" cy="1530.7" r="6.2"/>
					<circle class="st9" cx="1805" cy="1529.3" r="6.2"/>
					<circle class="st9" cx="1832.4" cy="1527.9" r="6.2"/>
					<circle class="st9" cx="1859.9" cy="1526.5" r="6.2"/>
					<circle class="st9" cx="1887.3" cy="1525" r="6.2"/>
					<circle class="st9" cx="1914.8" cy="1523.6" r="6.2"/>
					<circle class="st9" cx="1942.2" cy="1522.2" r="6.2"/>
					<circle class="st9" cx="1969.7" cy="1520.8" r="6.2"/>
					<circle class="st9" cx="1997.1" cy="1519.3" r="6.2"/>
					<circle class="st9" cx="1750.1" cy="1532.2" r="6.2"/>
					<circle class="st9" cx="1722.6" cy="1533.6" r="6.2"/>
					<circle class="st9" cx="1697.8" cy="1535.9" r="6.2"/>
				</g>
				<g>
					<circle class="st9" cx="1790.6" cy="1514.5" r="6.2"/>
					<circle class="st9" cx="1818" cy="1513" r="6.2"/>
					<circle class="st9" cx="1845.5" cy="1511.6" r="6.2"/>
					<circle class="st9" cx="1872.9" cy="1510.2" r="6.2"/>
					<circle class="st9" cx="1900.4" cy="1508.8" r="6.2"/>
					<circle class="st9" cx="1927.8" cy="1507.3" r="6.2"/>
					<circle class="st9" cx="1955.3" cy="1505.9" r="6.2"/>
					<path class="st9" d="M1988.9,1504.3c0.1,2.8-1.8,5.4-4.6,6.2c-3.3,0.8-6.7-1.2-7.5-4.5c-0.3-1.4-0.2-2.8,0.3-4
						C1981.3,1502.7,1985.2,1503.5,1988.9,1504.3z"/>
					<circle class="st9" cx="1763.1" cy="1515.9" r="6.2"/>
					<circle class="st9" cx="1735.7" cy="1517.3" r="6.2"/>
				</g>
				<g>
					<circle class="st9" cx="1783.4" cy="1569.5" r="6.2"/>
					<circle class="st9" cx="1810.9" cy="1568" r="6.2"/>
					<circle class="st9" cx="1838.3" cy="1566.6" r="6.2"/>
					<circle class="st9" cx="1865.8" cy="1565.2" r="6.2"/>
					<circle class="st9" cx="1893.2" cy="1563.8" r="6.2"/>
					<circle class="st9" cx="1920.7" cy="1562.3" r="6.2"/>
					<circle class="st9" cx="1948.1" cy="1560.9" r="6.2"/>
					<circle class="st9" cx="1975.6" cy="1559.5" r="6.2"/>
					<circle class="st9" cx="2003" cy="1558.1" r="6.2"/>
					<circle class="st9" cx="1756" cy="1570.9" r="6.2"/>
					<circle class="st9" cx="1728.5" cy="1572.3" r="6.2"/>
					<circle class="st9" cx="1703.7" cy="1574.7" r="6.2"/>
					<path class="st9" d="M2060.7,1557.3c-0.8,1.4-2.2,2.6-3.9,3c-3.3,0.8-6.7-1.1-7.5-4.5c-0.7-2.8,0.6-5.7,3.1-7
						C2055.2,1551.6,2058,1554.4,2060.7,1557.3z"/>
					<circle class="st9" cx="2027.8" cy="1555.7" r="6.2"/>
					<circle class="st9" cx="1648.1" cy="1577" r="6.2"/>
					<circle class="st9" cx="1675.6" cy="1575.6" r="6.2"/>
				</g>
				<g>
					<circle class="st9" cx="1796.5" cy="1550.3" r="6.2"/>
					<circle class="st9" cx="1823.9" cy="1548.9" r="6.2"/>
					<circle class="st9" cx="1851.4" cy="1547.4" r="6.2"/>
					<circle class="st9" cx="1878.8" cy="1546" r="6.2"/>
					<circle class="st9" cx="1906.3" cy="1544.6" r="6.2"/>
					<circle class="st9" cx="1933.7" cy="1543.2" r="6.2"/>
					<circle class="st9" cx="1961.2" cy="1541.7" r="6.2"/>
					<circle class="st9" cx="1988.6" cy="1540.3" r="6.2"/>
					<circle class="st9" cx="2016.1" cy="1538.9" r="6.2"/>
					<circle class="st9" cx="1769" cy="1551.7" r="6.2"/>
					<circle class="st9" cx="1741.6" cy="1553.1" r="6.2"/>
					<circle class="st9" cx="1658.9" cy="1557.6" r="6.2"/>
					<circle class="st9" cx="1686.3" cy="1556.2" r="6.2"/>
					<circle class="st9" cx="1713.8" cy="1554.7" r="6.2"/>
				</g>
				<g>
					<circle class="st9" cx="1843.1" cy="1605.1" r="6.2"/>
					<circle class="st9" cx="1870.6" cy="1603.7" r="6.2"/>
					<circle class="st9" cx="1898" cy="1602.2" r="6.2"/>
					<circle class="st9" cx="1925.5" cy="1600.8" r="6.2"/>
					<circle class="st9" cx="1952.9" cy="1599.4" r="6.2"/>
					<circle class="st9" cx="1980.4" cy="1598" r="6.2"/>
					<circle class="st9" cx="2007.8" cy="1596.5" r="6.2"/>
					<circle class="st9" cx="2035.3" cy="1595.1" r="6.2"/>
					<circle class="st9" cx="2062.7" cy="1593.7" r="6.2"/>
					<circle class="st9" cx="1815.7" cy="1606.5" r="6.2"/>
					<circle class="st9" cx="1788.2" cy="1607.9" r="6.2"/>
					<circle class="st9" cx="1763.4" cy="1610.3" r="6.2"/>
					<path class="st9" d="M2093.4,1593.2c-0.6,1.9-2.2,3.5-4.3,4.1c-3.3,0.8-6.7-1.2-7.5-4.5c-0.8-3.3,1.2-6.7,4.5-7.5
						c0.1,0,0.3-0.1,0.4-0.1C2089,1588.1,2091.3,1590.8,2093.4,1593.2z"/>
					<circle class="st9" cx="1625.5" cy="1617" r="6.2"/>
					<circle class="st9" cx="1652.9" cy="1615.5" r="6.2"/>
					<circle class="st9" cx="1680.4" cy="1614.1" r="6.2"/>
					<circle class="st9" cx="1707.8" cy="1612.7" r="6.2"/>
					<circle class="st9" cx="1735.3" cy="1611.3" r="6.2"/>
				</g>
				<g>
					<circle class="st9" cx="1856.1" cy="1585.9" r="6.2"/>
					<circle class="st9" cx="1883.6" cy="1584.5" r="6.2"/>
					<circle class="st9" cx="1911.1" cy="1583.1" r="6.2"/>
					<circle class="st9" cx="1938.5" cy="1581.7" r="6.2"/>
					<circle class="st9" cx="1966" cy="1580.2" r="6.2"/>
					<circle class="st9" cx="1993.4" cy="1578.8" r="6.2"/>
					<circle class="st9" cx="2020.9" cy="1577.4" r="6.2"/>
					<circle class="st9" cx="2048.3" cy="1576" r="6.2"/>
					<path class="st9" d="M2080.5,1578.5c-0.8,1-1.9,1.7-3.2,2c-3.3,0.8-6.7-1.1-7.5-4.5c-0.6-2.6,0.4-5.2,2.4-6.6
						C2075.1,1572.6,2077.9,1575.6,2080.5,1578.5z"/>
					<circle class="st9" cx="1828.7" cy="1587.4" r="6.2"/>
					<circle class="st9" cx="1801.2" cy="1588.8" r="6.2"/>
					<circle class="st9" cx="1636.2" cy="1597.5" r="6.2"/>
					<circle class="st9" cx="1663.7" cy="1596.1" r="6.2"/>
					<circle class="st9" cx="1691.1" cy="1594.6" r="6.2"/>
					<circle class="st9" cx="1718.6" cy="1593.2" r="6.2"/>
					<circle class="st9" cx="1746" cy="1591.8" r="6.2"/>
					<circle class="st9" cx="1773.5" cy="1590.4" r="6.2"/>
				</g>
				<g>
					<circle class="st9" cx="1849.5" cy="1644.1" r="6.2"/>
					<circle class="st9" cx="1877" cy="1642.7" r="6.2"/>
					<circle class="st9" cx="1904.4" cy="1641.2" r="6.2"/>
					<circle class="st9" cx="1931.9" cy="1639.8" r="6.2"/>
					<circle class="st9" cx="1959.3" cy="1638.4" r="6.2"/>
					<circle class="st9" cx="1986.8" cy="1637" r="6.2"/>
					<circle class="st9" cx="2014.2" cy="1635.5" r="6.2"/>
					<circle class="st9" cx="2041.7" cy="1634.1" r="6.2"/>
					<circle class="st9" cx="2069.1" cy="1632.7" r="6.2"/>
					<circle class="st9" cx="1822.1" cy="1645.5" r="6.2"/>
					<circle class="st9" cx="1794.6" cy="1646.9" r="6.2"/>
					<circle class="st9" cx="1769.8" cy="1649.3" r="6.2"/>
					<path class="st9" d="M2096.9,1624.9c-2.2,3.4-4.6,6.8-7.1,10c-0.9-0.8-1.5-1.8-1.9-3.1c-0.8-3.3,1.2-6.7,4.5-7.5
						C2094,1623.9,2095.6,1624.2,2096.9,1624.9z"/>
					<circle class="st9" cx="1604.4" cy="1657.4" r="6.2"/>
					<circle class="st9" cx="1631.9" cy="1655.9" r="6.2"/>
					<circle class="st9" cx="1659.3" cy="1654.5" r="6.2"/>
					<circle class="st9" cx="1686.8" cy="1653.1" r="6.2"/>
					<circle class="st9" cx="1714.2" cy="1651.7" r="6.2"/>
					<circle class="st9" cx="1741.7" cy="1650.2" r="6.2"/>
				</g>
				<g>
					<circle class="st9" cx="1862.6" cy="1624.9" r="6.2"/>
					<circle class="st9" cx="1890" cy="1623.5" r="6.2"/>
					<circle class="st9" cx="1917.5" cy="1622.1" r="6.2"/>
					<circle class="st9" cx="1944.9" cy="1620.6" r="6.2"/>
					<circle class="st9" cx="1972.4" cy="1619.2" r="6.2"/>
					<circle class="st9" cx="1999.8" cy="1617.8" r="6.2"/>
					<circle class="st9" cx="2027.3" cy="1616.4" r="6.2"/>
					<circle class="st9" cx="2054.7" cy="1614.9" r="6.2"/>
					<circle class="st9" cx="2082.2" cy="1613.5" r="6.2"/>
					<circle class="st9" cx="1835.1" cy="1626.3" r="6.2"/>
					<circle class="st9" cx="1807.6" cy="1627.8" r="6.2"/>
					<circle class="st9" cx="1615.2" cy="1637.9" r="6.2"/>
					<circle class="st9" cx="1642.6" cy="1636.5" r="6.2"/>
					<circle class="st9" cx="1670.1" cy="1635.1" r="6.2"/>
					<circle class="st9" cx="1697.5" cy="1633.6" r="6.2"/>
					<circle class="st9" cx="1725" cy="1632.2" r="6.2"/>
					<circle class="st9" cx="1752.4" cy="1630.8" r="6.2"/>
					<circle class="st9" cx="1779.9" cy="1629.4" r="6.2"/>
				</g>
				<g>
					<circle class="st9" cx="1824.5" cy="1684.1" r="6.2"/>
					<circle class="st9" cx="1852" cy="1682.7" r="6.2"/>
					<circle class="st9" cx="1879.4" cy="1681.3" r="6.2"/>
					<circle class="st9" cx="1906.9" cy="1679.8" r="6.2"/>
					<circle class="st9" cx="1934.3" cy="1678.4" r="6.2"/>
					<circle class="st9" cx="1961.8" cy="1677" r="6.2"/>
					<circle class="st9" cx="1989.2" cy="1675.6" r="6.2"/>
					<circle class="st9" cx="2016.7" cy="1674.1" r="6.2"/>
					<circle class="st9" cx="2044.2" cy="1672.7" r="6.2"/>
					<circle class="st9" cx="1797.1" cy="1685.5" r="6.2"/>
					<circle class="st9" cx="1769.6" cy="1687" r="6.2"/>
					<circle class="st9" cx="1744.8" cy="1689.3" r="6.2"/>
					<circle class="st9" cx="1606.9" cy="1696" r="6.2"/>
					<circle class="st9" cx="1634.3" cy="1694.6" r="6.2"/>
					<circle class="st9" cx="1661.8" cy="1693.1" r="6.2"/>
					<circle class="st9" cx="1689.2" cy="1691.7" r="6.2"/>
					<circle class="st9" cx="1716.7" cy="1690.3" r="6.2"/>
				</g>
				<g>
					<circle class="st9" cx="1837.6" cy="1665" r="6.2"/>
					<circle class="st9" cx="1865" cy="1663.5" r="6.2"/>
					<circle class="st9" cx="1892.5" cy="1662.1" r="6.2"/>
					<circle class="st9" cx="1919.9" cy="1660.7" r="6.2"/>
					<circle class="st9" cx="1947.4" cy="1659.3" r="6.2"/>
					<circle class="st9" cx="1974.8" cy="1657.8" r="6.2"/>
					<circle class="st9" cx="2002.3" cy="1656.4" r="6.2"/>
					<circle class="st9" cx="2029.7" cy="1655" r="6.2"/>
					<circle class="st9" cx="2057.2" cy="1653.6" r="6.2"/>
					<circle class="st9" cx="1810.1" cy="1666.4" r="6.2"/>
					<circle class="st9" cx="1782.7" cy="1667.8" r="6.2"/>
					<path class="st9" d="M1590.5,1684.1c-0.1,0-0.3,0-0.4,0c1-3.6,2.1-7.4,3.2-11.5c1.7,1,2.9,2.8,3,5
						C1596.5,1681,1593.9,1683.9,1590.5,1684.1z"/>
					<circle class="st9" cx="1617.6" cy="1676.5" r="6.2"/>
					<circle class="st9" cx="1645.1" cy="1675.1" r="6.2"/>
					<circle class="st9" cx="1672.5" cy="1673.7" r="6.2"/>
					<circle class="st9" cx="1700" cy="1672.2" r="6.2"/>
					<circle class="st9" cx="1727.4" cy="1670.8" r="6.2"/>
					<circle class="st9" cx="1754.9" cy="1669.4" r="6.2"/>
				</g>
				<g>
					<circle class="st9" cx="1829.3" cy="1724.2" r="6.2"/>
					<circle class="st9" cx="1856.7" cy="1722.7" r="6.2"/>
					<circle class="st9" cx="1884.2" cy="1721.3" r="6.2"/>
					<circle class="st9" cx="1911.6" cy="1719.9" r="6.2"/>
					<circle class="st9" cx="1939.1" cy="1718.5" r="6.2"/>
					<circle class="st9" cx="1966.5" cy="1717" r="6.2"/>
					<circle class="st9" cx="1994" cy="1715.6" r="6.2"/>
					<circle class="st9" cx="2021.4" cy="1714.2" r="6.2"/>
					<circle class="st9" cx="2048.9" cy="1712.8" r="6.2"/>
					<circle class="st9" cx="1801.8" cy="1725.6" r="6.2"/>
					<circle class="st9" cx="1774.4" cy="1727" r="6.2"/>
					<circle class="st9" cx="1749.5" cy="1729.4" r="6.2"/>
					<circle class="st9" cx="2073.7" cy="1710.4" r="6.2"/>
					<path class="st9" d="M1640.9,1740.5c-0.5,0.2-1,0.3-1.6,0.3c-2.1,0.1-3.9-0.8-5.1-2.3
						C1636.4,1739.2,1638.6,1739.8,1640.9,1740.5z"/>
					<path class="st9" d="M1645.2,1734.3c0.2,2.9-1.7,5.4-4.3,6.2c0,0,0,0,0,0c-2.3-0.6-4.5-1.3-6.7-2h0c-0.8-1-1.3-2.2-1.4-3.6
						c-0.2-3.4,2.4-6.3,5.8-6.5C1642.1,1728.3,1645.1,1730.9,1645.2,1734.3z"/>
					<circle class="st9" cx="1666.5" cy="1733.2" r="6.2"/>
					<circle class="st9" cx="1694" cy="1731.8" r="6.2"/>
					<circle class="st9" cx="1721.4" cy="1730.3" r="6.2"/>
				</g>
				<g>
					<circle class="st9" cx="1842.3" cy="1705" r="6.2"/>
					<circle class="st9" cx="1869.8" cy="1703.6" r="6.2"/>
					<circle class="st9" cx="1897.2" cy="1702.2" r="6.2"/>
					<circle class="st9" cx="1924.7" cy="1700.7" r="6.2"/>
					<circle class="st9" cx="1952.1" cy="1699.3" r="6.2"/>
					<circle class="st9" cx="1979.6" cy="1697.9" r="6.2"/>
					<circle class="st9" cx="2007" cy="1696.5" r="6.2"/>
					<circle class="st9" cx="2034.5" cy="1695" r="6.2"/>
					<circle class="st9" cx="2061.9" cy="1693.6" r="6.2"/>
					<circle class="st9" cx="1814.8" cy="1706.4" r="6.2"/>
					<circle class="st9" cx="1787.4" cy="1707.9" r="6.2"/>
					<path class="st9" d="M1601.1,1717.7c0.1,2.1-0.8,4-2.3,5.2c-4.1-2.5-7.3-4.8-9.7-6.7c0.7-2.4,2.9-4.2,5.6-4.4
						C1598,1711.6,1600.9,1714.3,1601.1,1717.7z"/>
					<circle class="st9" cx="1622.4" cy="1716.6" r="6.2"/>
					<circle class="st9" cx="1649.8" cy="1715.1" r="6.2"/>
					<circle class="st9" cx="1677.3" cy="1713.7" r="6.2"/>
					<circle class="st9" cx="1704.7" cy="1712.3" r="6.2"/>
					<circle class="st9" cx="1732.2" cy="1710.9" r="6.2"/>
					<circle class="st9" cx="1759.6" cy="1709.4" r="6.2"/>
				</g>
				<g>
					<circle class="st9" cx="1887.2" cy="1760.4" r="6.2"/>
					<circle class="st9" cx="1914.7" cy="1758.9" r="6.2"/>
					<circle class="st9" cx="1942.1" cy="1757.5" r="6.2"/>
					<circle class="st9" cx="1969.6" cy="1756.1" r="6.2"/>
					<circle class="st9" cx="1997" cy="1754.7" r="6.2"/>
					<circle class="st9" cx="2024.5" cy="1753.2" r="6.2"/>
					<circle class="st9" cx="2051.9" cy="1751.8" r="6.2"/>
					<circle class="st9" cx="2079.4" cy="1750.4" r="6.2"/>
					<circle class="st9" cx="1859.8" cy="1761.8" r="6.2"/>
					<circle class="st9" cx="1832.3" cy="1763.2" r="6.2"/>
					<circle class="st9" cx="1807.5" cy="1765.6" r="6.2"/>
					<circle class="st9" cx="1779.4" cy="1766.5" r="6.2"/>
				</g>
				<g>
					<circle class="st9" cx="1900.3" cy="1741.2" r="6.2"/>
					<circle class="st9" cx="1927.7" cy="1739.8" r="6.2"/>
					<circle class="st9" cx="1955.2" cy="1738.3" r="6.2"/>
					<circle class="st9" cx="1982.6" cy="1736.9" r="6.2"/>
					<circle class="st9" cx="2010.1" cy="1735.5" r="6.2"/>
					<circle class="st9" cx="2037.5" cy="1734.1" r="6.2"/>
					<circle class="st9" cx="2065" cy="1732.6" r="6.2"/>
					<circle class="st9" cx="2092.4" cy="1731.2" r="6.2"/>
					<circle class="st9" cx="1872.8" cy="1742.6" r="6.2"/>
					<circle class="st9" cx="1845.4" cy="1744" r="6.2"/>
					<path class="st9" d="M1714,1751.3c-4.2-0.2-8.3-0.4-12.3-0.7c0.4-2.9,2.8-5.3,5.8-5.4c3.4-0.2,6.3,2.4,6.5,5.8
						C1714,1751.1,1714,1751.2,1714,1751.3z"/>
					<path class="st9" d="M1741.4,1749.6c0,0.7,0,1.3-0.2,1.9c-4.1,0.1-8,0.1-11.9,0.1c-0.1-0.4-0.2-0.9-0.2-1.4
						c-0.2-3.4,2.4-6.3,5.8-6.5C1738.3,1743.6,1741.2,1746.2,1741.4,1749.6z"/>
					<circle class="st9" cx="1762.7" cy="1748.5" r="6.2"/>
					<circle class="st9" cx="1790.1" cy="1747.1" r="6.2"/>
					<circle class="st9" cx="1817.6" cy="1745.6" r="6.2"/>
				</g>
				<g>
					<circle class="st9" cx="1894.4" cy="1801.2" r="6.2"/>
					<circle class="st9" cx="1921.9" cy="1799.8" r="6.2"/>
					<circle class="st9" cx="1949.3" cy="1798.4" r="6.2"/>
					<circle class="st9" cx="1976.8" cy="1797" r="6.2"/>
					<circle class="st9" cx="2004.2" cy="1795.5" r="6.2"/>
					<circle class="st9" cx="2031.7" cy="1794.1" r="6.2"/>
					<circle class="st9" cx="1867" cy="1802.7" r="6.2"/>
					<circle class="st9" cx="1839.5" cy="1804.1" r="6.2"/>
					<circle class="st9" cx="1814.7" cy="1806.5" r="6.2"/>
				</g>
				<g>
					<circle class="st9" cx="1907.5" cy="1782.1" r="6.2"/>
					<circle class="st9" cx="1934.9" cy="1780.7" r="6.2"/>
					<circle class="st9" cx="1962.4" cy="1779.2" r="6.2"/>
					<circle class="st9" cx="1989.8" cy="1777.8" r="6.2"/>
					<circle class="st9" cx="2017.3" cy="1776.4" r="6.2"/>
					<circle class="st9" cx="2044.7" cy="1775" r="6.2"/>
					<circle class="st9" cx="1880" cy="1783.5" r="6.2"/>
					<circle class="st9" cx="1852.6" cy="1784.9" r="6.2"/>
					<circle class="st9" cx="1797.3" cy="1787.9" r="6.2"/>
					<circle class="st9" cx="1824.8" cy="1786.5" r="6.2"/>
				</g>
				<g>
					<circle class="st9" cx="1894.4" cy="1844.6" r="6.2"/>
					<circle class="st9" cx="1921.9" cy="1843.1" r="6.2"/>
					<circle class="st9" cx="1949.3" cy="1841.7" r="6.2"/>
					<circle class="st9" cx="1976.8" cy="1840.3" r="6.2"/>
					<circle class="st9" cx="2004.2" cy="1838.9" r="6.2"/>
					<circle class="st9" cx="1867" cy="1844.1" r="6.2"/>
				</g>
				<g>
					<circle class="st9" cx="1907.5" cy="1825.4" r="6.2"/>
					<circle class="st9" cx="1934.9" cy="1824" r="6.2"/>
					<circle class="st9" cx="1962.4" cy="1822.6" r="6.2"/>
					<circle class="st9" cx="1989.8" cy="1821.1" r="6.2"/>
					<circle class="st9" cx="2017.3" cy="1819.7" r="6.2"/>
					<circle class="st9" cx="1880" cy="1826.8" r="6.2"/>
					<circle class="st9" cx="1852.6" cy="1828.3" r="6.2"/>
				</g>
			</g>
		</g>
		<path id="BLANKET" class="st12" d="M1877.9,1986.9c0,0,61.9-261.6,288.4-291.8c226.5-30.2,893.2,5.9,1047.8,45.5
			c154.6,39.6,300,128.5,300.9,245.8l-814.5,0.5L1877.9,1986.9z"/>
		<g id="HEAD_3_">
			<g id="NECK_2_">
				<path id="NECK_1_" class="st19" d="M1786,1410.8c0,0,1.9,41.2-30.9,89.5c0,0,65.7,28.9,139.2,1c0,0-44-14.7-27.1-90.5H1786z"/>
				<path id="SHADOW" class="st25" d="M1873.7,1483.5c-0.9,1-1.8,1.8-2.7,2.2c-10.7,4.7-51.1,6.9-75.7-34
					c-6.2-10.3-7.7-29.4-9.2-39.4c0-1,0-1.5,0-1.5h81.2C1858.9,1447.7,1865.1,1470.2,1873.7,1483.5z"/>
			</g>
			<path id="HAIR" class="st16" d="M1893.1,1365.5c-0.2-5.5-3.3-21.8-12-13.2c-9.6,9.5-42.2,8.9-57.5-1.4
				c-13.2-8.9-21.8,0.1-22.6,17.5c-0.7,16.2-12.1,24.5-12.1,24.5l-15.4-4.4c0,0-25.3-70.8,24.4-88.2c45.6-16,85.7,15.3,90.5,29.7
				C1892.3,1342.1,1893.1,1365.5,1893.1,1365.5z"/>
			<path id="HEAD_2_" class="st19" d="M1893.1,1411.5c-6.8,50.6-18.7,47.9-26,51.1c-10.7,4.6-45-0.4-59.4-13.8
				c-5.2-4.9-17.6-27.5-21.1-33.9l0,0.2c0,0-18.5-18.7-15.1-25.6c5.4-11.2,15.8,0.4,18,3c2.4-1.9,10.9-10,11.6-24
				c0.8-17.5,9.4-26.4,22.6-17.5c15.3,10.3,47.9,10.9,57.5,1.4c6-6,10,1.2,11.8,7.8C1894.2,1379.6,1893.9,1405.8,1893.1,1411.5z"/>
		</g>
		<g id="HANDS">
			<g id="LEFT_HAND">
				<path id="HAND" class="st19" d="M2089.6,1783.9c0,0-3,6.2-9.7,2.4c-4.4-2.6-13.2-9.9-18.8-12.6c8.3,9.6,16.5,19.8,16.5,19.8
					s-6.7,7.4-19,8.5c-5.9,0.6-17.1-9.7-26.7-15.2c-9.6-5.5-20.2,5.8-34,10c-10.4,3.1-25.6-9.3-32.4-15.6
					c-24.7,20.8-108.8,85.7-207.6,94.5c-118.9,10.6-123.1-135.6-123.1-135.6c69,15.8,119.3,11,119.3,11l9.2,14
					c130.4-20.7,192.1-19.3,209.8-18.2c24.5,0,63.2,7.9,70.6,9.4c6.9,0.5,20.5,4.7,25.5,8.3
					C2074.4,1768.4,2089.6,1783.9,2089.6,1783.9z"/>
				<g>
					<path class="st30" d="M2069.7,1795.9c0,0-21.5-25.2-26.9-26.9c-9.5-3-21.8-6.9-21.8-6.9"/>
					<path class="st30" d="M2062.3,1799.4c0,0-19.8-21.1-25.2-22.8c-9.5-3-21.8-6.9-21.8-6.9"/>
				</g>
				<path id="SHADOW_1_" class="st25" d="M1763.3,1765.2c0,0-64.7-4-120.9,20.7c-7-25.1-7.6-45.7-7.6-45.7
					c69,15.8,119.3,11,119.3,11L1763.3,1765.2z"/>
				<path class="st31" d="M1763.8,1761.6c0,0-24.8-41.7-34.8-84.8"/>
			</g>
			<g id="RIGHT_HAND">
				<path id="HAND_1_" class="st32" d="M2446.3,1698.2c0,0-2.6,17.7-3.8,20.8c-1.1,3-17.2,29-27.3,33.1c-10.1,4.1-53.1-3.7-61.6-5.1
					c-0.6-0.1-1.2-0.2-1.7-0.3c-35.5-0.2-189.7,1.8-233.1-12.8c-26.7-9-81.2-47.8-83.1-66.6c0,0,43.7-13.9,66.3-51.3
					c0,0,36.4,43.5,47,42.6c53.1-4.2,147,37,192.4,55.3c0-0.1,0.1-0.1,0.2-0.2c14-14.3,42.2-25.4,46.6-25.2
					c4.4,0.2,27.1,1.1,27.1,1.1c0,0.2,0,8.6-5.7,12.3c-3.8,2.5-18.3,1.2-19.6,7.2c-1.3,6,5.7,9.8,9.5,10.3c9.1,1.1,26.7,0.5,32.3-14
					C2436.4,1693.2,2446.3,1698.2,2446.3,1698.2z"/>
				<path id="SHADOW_4_" class="st25" d="M2032.6,1668.2c0,0,49-16.7,69.3-52.4l10.8,12.4c0,0-43.8,31.6-46.6,73.9
					C2066.2,1702.2,2038.8,1682.7,2032.6,1668.2z"/>
				<g id="DRIP">
					<path class="st11" d="M2168.8,1232.9v438.7c0,17.1-9.2,21.6-15.9,21.6h-1.5c-10.7,0-18.7-9.6-18.7-16.2"/>
					<polygon class="st10" points="2120,1691.3 2146.8,1671.1 2130.6,1659.3 2104.7,1678.5 					"/>
				</g>
				<path class="st31" d="M2006.2,1630.6c0,0,21.5,51.5,73.9,86.3"/>
			</g>
		</g>
	</g>
	<g id="FRONT_BEDSIDE">
		<path class="st9" d="M3514.1,1986.9h-813.6v-2.1c0-60.2,48.8-109,109-109h595.5c60.2,0,109,48.8,109,109V1986.9z"/>
		<g>
			<path class="st27" d="M3404.1,1622.9h-593.7c-60.7,0-110,49.2-110,110v254h327.1h486.5v-254
				C3514.1,1672.2,3464.9,1622.9,3404.1,1622.9z"/>
			<line class="st27" x1="2697" y1="1779.9" x2="3514.1" y2="1779.9"/>
		</g>
		<rect x="2733.7" y="1986.9" class="st6" width="809.8" height="101.6"/>
		<rect x="1172.9" y="1986.9" class="st6" width="1560.8" height="101.6"/>
	</g>
</g>
<g id="LIFE_SUPPORT">
	<polygon class="st0" points="623.7,1600.5 623.7,1556.9 936.4,1556.9 936.4,1562.3 	"/>
	<g>
		<g>
			<path class="st11" d="M580.3,2266.7v11.7c0,8-6.5,14.4-14.4,14.4h0c-18.1,0-32.7,14.6-32.7,32.7v3.2"/>
			<circle class="st7" cx="569" cy="2327.6" r="26.1"/>
		</g>
		<g>
			<path class="st11" d="M724.7,2266.7v11.7c0,8-6.5,14.4-14.4,14.4h0c-18.1,0-32.7,14.6-32.7,32.7v3.2"/>
			<circle class="st7" cx="713.4" cy="2327.6" r="26.1"/>
		</g>
		<g>
			<path class="st11" d="M987.9,2266.7v11.7c0,8,6.5,14.4,14.4,14.4l0,0c18.1,0,32.7,14.6,32.7,32.7v3.2"/>
			<circle class="st7" cx="999.3" cy="2327.6" r="26.1"/>
		</g>
	</g>
	<path class="st6" d="M861.4,2265.8H541.6c-21.3,0-38.6-17.3-38.6-38.6v-588.1c0-21.3,17.3-38.6,38.6-38.6h319.8
		c21.3,0,38.6,17.3,38.6,38.6v588.1C900,2248.5,882.7,2265.8,861.4,2265.8z"/>
	<path class="st6" d="M1018.5,2265.8H698.8c-21.3,0-38.6-17.3-38.6-38.6v-588.1c0-21.3,17.3-38.6,38.6-38.6h319.8
		c21.3,0,38.6,17.3,38.6,38.6v588.1C1057.1,2248.5,1039.8,2265.8,1018.5,2265.8z"/>
	<g>
		<path class="st6" d="M1026,1815.7H692.4c-9.5,0-17.2-7.7-17.2-17.2v-155c0-9.5,7.7-17.2,17.2-17.2H1026c9.5,0,17.2,7.7,17.2,17.2
			v155C1043.3,1808,1035.6,1815.7,1026,1815.7z"/>
		<path class="st9" d="M907.5,1734.6H792.8c-3.8,0-7-3.1-7-7v-1c0-3.8,3.1-7,7-7h114.7c3.8,0,7,3.1,7,7v1
			C914.5,1731.5,911.4,1734.6,907.5,1734.6z"/>
		<path class="st7" d="M916.5,1727.1H801.7c-3.8,0-6.9-3.1-6.9-6.9l0,0c0-3.8,3.1-6.9,6.9-6.9h114.8c3.8,0,6.9,3.1,6.9,6.9l0,0
			C923.5,1724,920.4,1727.1,916.5,1727.1z"/>
	</g>
	<g>
		<path class="st6" d="M1026,2026.4H692.4c-9.5,0-17.2-7.7-17.2-17.2v-155c0-9.5,7.7-17.2,17.2-17.2H1026c9.5,0,17.2,7.7,17.2,17.2
			v155C1043.3,2018.7,1035.6,2026.4,1026,2026.4z"/>
		<path class="st9" d="M907.5,1945.3H792.8c-3.8,0-7-3.1-7-7v-1c0-3.8,3.1-7,7-7h114.7c3.8,0,7,3.1,7,7v1
			C914.5,1942.2,911.4,1945.3,907.5,1945.3z"/>
		<path class="st7" d="M916.5,1937.9H801.7c-3.8,0-6.9-3.1-6.9-6.9l0,0c0-3.8,3.1-6.9,6.9-6.9h114.8c3.8,0,6.9,3.1,6.9,6.9l0,0
			C923.5,1934.8,920.4,1937.9,916.5,1937.9z"/>
	</g>
	<g>
		<path class="st6" d="M1026,2237.2H692.4c-9.5,0-17.2-7.7-17.2-17.2v-155c0-9.5,7.7-17.2,17.2-17.2H1026c9.5,0,17.2,7.7,17.2,17.2
			v155C1043.3,2229.5,1035.6,2237.2,1026,2237.2z"/>
		<path class="st9" d="M907.5,2156.1H792.8c-3.8,0-7-3.1-7-7v-1c0-3.8,3.1-7,7-7h114.7c3.8,0,7,3.1,7,7v1
			C914.5,2153,911.4,2156.1,907.5,2156.1z"/>
		<path class="st7" d="M916.5,2148.6H801.7c-3.8,0-6.9-3.1-6.9-6.9l0,0c0-3.8,3.1-6.9,6.9-6.9h114.8c3.8,0,6.9,3.1,6.9,6.9l0,0
			C923.5,2145.5,920.4,2148.6,916.5,2148.6z"/>
	</g>
	<path class="st7" d="M970.3,1414.1h36.5c70.1,0,127,56.9,127,127v296.8c0,50.6,41,91.6,91.6,91.6H1668c0.8,0,1.6,0,2.4,0
		c62.5-1.6,101.1-69.2,71.9-124.5l-28.3-52.7"/>
	<rect x="623.7" y="1556.9" class="st11" width="312.7" height="43.6"/>
	<g>
		<path class="st6" d="M683.1,1556.9H556c-8,0-14.5-6.5-14.5-14.5v-247.1c0-8,6.5-14.5,14.5-14.5h127.1V1556.9z"/>
		<path class="st6" d="M999.3,1556.9H680c-10,0-18.9-6.5-22-16l-79-243.7c-2.6-8.1,3.4-16.4,11.9-16.4h319.3c10,0,18.9,6.5,22,16
			l79,243.7C1013.9,1548.6,1007.8,1556.9,999.3,1556.9z"/>
		<path class="st14" d="M878.2,1476.1H676.5c-6.3,0-12-4.1-13.9-10.1l-49.9-154c-1.7-5.1,2.2-10.4,7.5-10.4h201.7
			c6.3,0,12,4.1,13.9,10.1l49.9,154C887.4,1470.8,883.6,1476.1,878.2,1476.1z"/>
		<polyline class="st33" points="820,1476.8 804.4,1428.6 874.8,1428.6 		"/>
		<path class="st0" d="M929.5,1477.1h-1.4c-10.3,0-20.7-6.7-25.6-16.5h0c-7.1-14.3,0.9-28.9,15.9-28.9h1.4
			c10.3,0,20.7,6.7,25.6,16.5l0,0C952.6,1462.4,944.5,1477.1,929.5,1477.1z"/>
		<path class="st24" d="M936.8,1474.5h-1.4c-10.3,0-20.7-6.7-25.6-16.5h0c-7.1-14.3,0.9-28.9,15.9-28.9h1.4
			c10.3,0,20.7,6.7,25.6,16.5v0C959.9,1459.8,951.8,1474.5,936.8,1474.5z"/>
		<g>
			<path class="st0" d="M880.4,1321.7h-23.2c-0.7,0-1.4-0.5-1.6-1.2l-5.7-17.7c-0.2-0.6,0.2-1.2,0.9-1.2h23.2c0.7,0,1.4,0.5,1.6,1.2
				l5.7,17.7C881.5,1321.1,881,1321.7,880.4,1321.7z"/>
			<path class="st0" d="M917,1321.7h-23.2c-0.7,0-1.4-0.5-1.6-1.2l-5.7-17.7c-0.2-0.6,0.2-1.2,0.9-1.2h23.2c0.7,0,1.4,0.5,1.6,1.2
				l5.7,17.7C918.1,1321.1,917.6,1321.7,917,1321.7z"/>
		</g>
		<g>
			<path class="st0" d="M889.7,1351.9h-23.2c-0.7,0-1.4-0.5-1.6-1.2l-5.7-17.7c-0.2-0.6,0.2-1.2,0.9-1.2h23.2c0.7,0,1.4,0.5,1.6,1.2
				l5.7,17.7C890.7,1351.3,890.3,1351.9,889.7,1351.9z"/>
			<path class="st0" d="M926.3,1351.9h-23.2c-0.7,0-1.4-0.5-1.6-1.2l-5.7-17.7c-0.2-0.6,0.2-1.2,0.9-1.2h23.2c0.7,0,1.4,0.5,1.6,1.2
				l5.7,17.7C927.3,1351.3,926.9,1351.9,926.3,1351.9z"/>
		</g>
		<g>
			<path class="st0" d="M900.7,1384.7h-23.2c-0.7,0-1.4-0.5-1.6-1.2l-5.7-17.7c-0.2-0.6,0.2-1.2,0.9-1.2h23.2c0.7,0,1.4,0.5,1.6,1.2
				l5.7,17.7C901.8,1384.1,901.4,1384.7,900.7,1384.7z"/>
			<path class="st0" d="M937.3,1384.7h-23.2c-0.7,0-1.4-0.5-1.6-1.2l-5.7-17.7c-0.2-0.6,0.2-1.2,0.9-1.2h23.2c0.7,0,1.4,0.5,1.6,1.2
				l5.7,17.7C938.4,1384.1,937.9,1384.7,937.3,1384.7z"/>
		</g>
		<g>
			<path class="st0" d="M911.9,1418.9h-23.2c-0.7,0-1.4-0.5-1.6-1.2l-5.7-17.7c-0.2-0.6,0.2-1.2,0.9-1.2h23.2c0.7,0,1.4,0.5,1.6,1.2
				l5.7,17.7C913,1418.3,912.5,1418.9,911.9,1418.9z"/>
			<path class="st0" d="M948.5,1418.9h-23.2c-0.7,0-1.4-0.5-1.6-1.2L918,1400c-0.2-0.6,0.2-1.2,0.9-1.2H942c0.7,0,1.4,0.5,1.6,1.2
				l5.7,17.7C949.5,1418.3,949.1,1418.9,948.5,1418.9z"/>
		</g>
		<polyline class="st33" points="621.6,1343.5 641.6,1343.5 646.7,1325.5 657.9,1359.8 658.2,1342.7 683,1342.5 688.1,1325.5 
			699.3,1359.8 699.6,1342.7 724.4,1342.5 729.5,1325.5 740.7,1359.8 741,1342.7 765.8,1342.5 770.9,1325.5 782.1,1359.8 
			782.4,1342.7 806.2,1342.5 811.3,1325.5 822.5,1359.8 822.8,1342.7 845.7,1342.5 		"/>
		<polyline class="st34" points="859.9,1382 852.2,1394.4 847.4,1387.4 847.4,1402.3 837.4,1382 834.5,1402.3 824.7,1382 
			817,1394.4 812.3,1387.4 812.3,1402.3 802.2,1382 792.6,1402.3 782.9,1382 775.2,1394.4 770.4,1387.4 770.4,1402.3 760.4,1382 
			757.5,1402.3 747.7,1382 740,1394.4 735.3,1387.4 735.3,1402.3 725.2,1382 725.2,1394.4 718.5,1387 714.6,1402.3 704.9,1382 
			697.2,1394.4 692.4,1387.4 692.4,1402.3 682.4,1382 679.5,1402.3 669.7,1382 662,1394.4 657.3,1387.4 657.3,1402.3 647.2,1382 
			636.5,1391.4 		"/>
		<g>
			<g>
				<path class="st35" d="M822.9,1438.7h12.3c0.9,0,1.8,0.7,2,1.6l2.5,10.7"/>
				<line class="st35" x1="840.4" y1="1454.2" x2="843.1" y2="1466.3"/>
			</g>
			<g>
				<path class="st35" d="M859,1438.7h-12.3c-0.9,0-1.4,0.7-1.2,1.6l2.5,10.7"/>
				<path class="st35" d="M864,1466.5h-10.8c-0.9,0-1.8-0.7-2-1.6l-2.5-10.7c-0.2-0.9,0.3-1.6,1.2-1.6h10.8c0.8,0,1.7,0.7,1.9,1.5
					l2.5,10.9C865.3,1465.9,864.8,1466.5,864,1466.5z"/>
			</g>
		</g>
		<g>
			<g>
				<g>
					<path class="st35" d="M757.2,1437.8h-12.3c-0.9,0-1.4,0.7-1.2,1.6l2.5,10.7"/>
					<path class="st35" d="M748.1,1451.8h10.8c0.8,0,1.7,0.7,1.9,1.5l2.5,10.9c0.2,0.8-0.3,1.5-1.2,1.5h-12.7"/>
				</g>
			</g>
			<g>
				<g>
					<line class="st35" x1="712.7" y1="1438.7" x2="715.6" y2="1451"/>
					<line class="st35" x1="716.3" y1="1454.2" x2="719.1" y2="1466.3"/>
				</g>
				<g>
					<path class="st35" d="M724,1451l-2.5-10.7c-0.2-0.9,0.3-1.6,1.2-1.6h11.3"/>
					<path class="st35" d="M737.9,1450.1l-2-9.8c-0.1-1.6-1.3-1.6-2.2-1.6h-11.3"/>
					<path class="st35" d="M738.6,1454.1l2.5,10.9c0.2,0.8-0.3,1.5-1.2,1.5h-10.8c-0.9,0-1.8-0.7-2-1.6l-2.5-10.7"/>
				</g>
			</g>
		</g>
		<line class="st33" x1="804.4" y1="1428.6" x2="649.6" y2="1428.6"/>
	</g>
</g>
<circle class="st16" cx="3834.3" cy="922.4" r="5.2"/>
<circle class="st16" cx="3877.4" cy="922.4" r="5.2"/>
<circle class="st16" cx="2690.3" cy="987.6" r="4"/>
<circle class="st16" cx="2652.2" cy="987.6" r="4"/>
<polyline class="st36" points="3854.2,917.8 3847,947.7 3859,947.7 "/>
<g>
	<circle class="st16" cx="1885.1" cy="1387.8" r="5.2"/>
	<circle class="st16" cx="1842.1" cy="1387.8" r="5.2"/>
	<polyline class="st36" points="1865.2,1383.1 1872.5,1416.4 1860.4,1416.4 	"/>
	<path class="st36" d="M1838.7,1424.8c0,0,9.1,9.1,26.8,6.8"/>
</g>
<path class="st36" d="M3854.3,967.3c0,0,14.4,3.5,20.8-10.5"/>
<line class="st37" x1="2663.5" y1="990.2" x2="2659.6" y2="1010.6"/>
<path class="st37" d="M2663.5,1024.4c0,0,10.9,4.2,19.9-5.1"/>
</svg>
