<svg id="Layer_1" data-name="Layer 1" xmlns="http://www.w3.org/2000/svg" viewBox="0 0 1258 2135"><defs><style>.cls-1{fill:#e5b21a;}.cls-2{fill:#d49046;}.cls-3{fill:#cb7c2d;}.cls-10,.cls-12,.cls-13,.cls-4,.cls-7{fill:none;}.cls-4,.cls-5{stroke:#e5b21a;stroke-width:10.56px;}.cls-10,.cls-4,.cls-5,.cls-7{stroke-miterlimit:10;}.cls-5,.cls-9{fill:#fff;}.cls-6{fill:#6464c8;}.cls-7{stroke:#fff;stroke-width:7.92px;}.cls-8{opacity:0.36;}.cls-10,.cls-13{stroke:#6464c8;}.cls-10,.cls-12,.cls-13{stroke-width:5.28px;}.cls-11{fill:#41465a;}.cls-12{stroke:#41465a;}.cls-12,.cls-13{stroke-linecap:round;stroke-linejoin:round;}.cls-14{fill:#e7f0fd;}</style></defs><g id="OLD_WOMAN" data-name="OLD WOMAN"><g id="LEGS"><g id="RIGHT_LEG" data-name="RIGHT LEG"><path id="SHOE" class="cls-1" d="M668.26,1997.29c-14.47.74-32.86,33.53-18.23,80.38h7.53s1.64-30.63,15.69-31c16.23-.42,24.14,31,38.9,31h72.79s-1.08-15.86-20.18-18.39c-41.39-5.48-46.51-53.29-46.51-53.29Z"/><path id="LEG" class="cls-2" d="M815.48,1774.31S710.2,1933.42,719.1,2011.8c4,35.56-45.23,9.3-56.49-24.26-28.66-85.49-25.31-186.42-25.31-186.42S736.49,1793.81,815.48,1774.31Z"/><path id="SHADOW" class="cls-3" d="M815.47,1774.31s-4.37,6.61-11.26,17.8a997.63,997.63,0,0,1-166.92,30.19c-.25-13.26,0-21.18,0-21.18S736.49,1793.81,815.47,1774.31Z"/></g><g id="LEFT_LEG" data-name="LEFT LEG"><path id="SHOE-2" data-name="SHOE" class="cls-1" d="M362.18,1980.14c-14.34-2-38.64,26.66-33.2,75.44l7.39,1.43s7.44-29.76,21.31-27.43c16,2.68,17.79,35,32.29,37.83,16.62,3.22,71.45,8.43,71.45,8.43s2-15.78-16.31-21.9c-39.59-13.25-35.51-55.74-35.51-55.74Z"/><path id="LEG-2" data-name="LEG" class="cls-2" d="M535.38,1802.75s-119.81,122.68-126,201.33c-2.8,35.68-46.18.51-50.83-34.58C346.69,1880.13,369.2,1778,369.2,1778S453,1803,535.38,1802.75Z"/><path id="SHADOW-2" data-name="SHADOW" class="cls-3" d="M369.2,1778s83.75,25,166.17,24.72c0,0-7.84,8-19.6,21.3-50.16-3.53-101.19-13-149.41-31.46C368,1783.34,369.2,1778,369.2,1778Z"/></g></g><g id="CANE"><path class="cls-4" d="M940.21,1292.31c0-29.94,23.88-54.22,53.33-54.22h0c29.46,0,53.34,24.28,53.34,54.22v785.36"/><path class="cls-5" d="M1057.92,2077.67h-22.78c-4.68,0-8.12-3.26-7-6.64l5.38-16.72c1-3.11,4.75-5.31,9-5.31h8c4.3,0,8,2.2,9,5.31L1065,2071C1066,2074.41,1062.6,2077.67,1057.92,2077.67Z"/></g><path id="ARM" class="cls-2" d="M963.09,1167.12c.95,7.53,5.73,14.59,16.36,18,14.54,4.6,58.58,20.08,66.76,46.28,5.26,16.86,10.87,29.82,10.87,29.82s-12.41,4.94-21.58-5.24c-16-17.75-45.89-18.89-56.25-18.08s-39-5.81-52.68-43.42S963.09,1167.12,963.09,1167.12Z"/><g id="DRESS"><path class="cls-6" d="M683.55,662.41c74.28,3.05,174.55,49.52,213.35,242.86s93.74,272.21,93.74,272.21L930.84,1219s-108.29-39.88-142.24-90.62c0,0,27.59,133.11,60.67,261.18,53.47,207,5.6,375,5.6,375s-282,84.85-508.26,6.53c0,0-62.18-356.7-62.28-461.29C284,956.43,403.93,650.89,683.55,662.41Z"/><path class="cls-7" d="M698.2,946.26s.36,98.86,100.15,199.12"/><g class="cls-8"><circle class="cls-9" cx="896.12" cy="1177.4" r="13.65"/><circle class="cls-9" cx="941.22" cy="1133.98" r="13.65"/><circle class="cls-9" cx="533.09" cy="767.27" r="13.65"/><circle class="cls-9" cx="630.07" cy="734.54" r="13.65"/><circle class="cls-9" cx="621.29" cy="838.89" r="13.65"/><circle class="cls-9" cx="588.96" cy="785.1" r="13.65"/><circle class="cls-9" cx="585.32" cy="695.06" r="13.65"/><path class="cls-9" d="M523.81,712.08a13.65,13.65,0,0,1-27.24,1.3q10.11-6.89,20.75-12.92A13.66,13.66,0,0,1,523.81,712.08Z"/><circle class="cls-9" cx="676.13" cy="678.97" r="13.65"/><circle class="cls-9" cx="684.91" cy="780.92" r="13.65"/><circle class="cls-9" cx="724.51" cy="725.74" r="13.65"/><path class="cls-9" d="M786.62,698.49a13.66,13.66,0,0,1-23-14.51A186.93,186.93,0,0,1,786.62,698.49Z"/><circle class="cls-9" cx="802.26" cy="757.8" r="13.65"/><circle class="cls-9" cx="756.3" cy="798.75" r="13.65"/><circle class="cls-9" cx="684.91" cy="869.31" r="13.65"/><circle class="cls-9" cx="621.29" cy="930.15" r="13.65"/><circle class="cls-9" cx="541.51" cy="855.66" r="13.65"/><circle class="cls-9" cx="469.58" cy="785.1" r="13.65"/><circle class="cls-9" cx="461.5" cy="864.09" r="13.65"/><circle class="cls-9" cx="510.16" cy="933.52" r="13.65"/><circle class="cls-9" cx="751.81" cy="882.96" r="13.65"/><circle class="cls-9" cx="815.91" cy="826.05" r="13.65"/><path class="cls-9" d="M890.13,875.39a13.65,13.65,0,1,1-7.67-24.94h.7Q886.85,862.43,890.13,875.39Z"/><circle class="cls-9" cx="829.56" cy="919.87" r="13.65"/><circle class="cls-9" cx="742.65" cy="960.82" r="13.65"/><circle class="cls-9" cx="802.26" cy="994.67" r="13.65"/><circle class="cls-9" cx="886.61" cy="960.82" r="13.65"/><circle class="cls-9" cx="868.81" cy="1024.1" r="13.65"/><circle class="cls-9" cx="761.88" cy="1037.75" r="13.65"/><circle class="cls-9" cx="815.91" cy="1082.38" r="13.65"/><circle class="cls-9" cx="913.92" cy="1068.73" r="13.65"/><circle class="cls-9" cx="872.96" cy="1112.15" r="13.65"/><circle class="cls-9" cx="802.26" cy="1128.33" r="13.65"/><circle class="cls-9" cx="568.81" cy="988.13" r="13.65"/><circle class="cls-9" cx="447.85" cy="947.17" r="13.65"/><circle class="cls-9" cx="376.07" cy="902.85" r="13.65"/><path class="cls-9" d="M410.79,820.37a13.65,13.65,0,0,1-21.64,11.07q7.05-11.84,14.66-23A13.65,13.65,0,0,1,410.79,820.37Z"/><circle class="cls-9" cx="663.53" cy="1015.43" r="13.65"/><circle class="cls-9" cx="602.76" cy="1072.42" r="13.65"/><circle class="cls-9" cx="502.16" cy="1041.43" r="13.65"/><circle class="cls-9" cx="389.72" cy="1001.78" r="13.65"/><circle class="cls-9" cx="424.45" cy="1086.07" r="13.65"/><circle class="cls-9" cx="327.9" cy="1058.77" r="13.65"/><circle class="cls-9" cx="355.21" cy="1133.98" r="13.65"/><circle class="cls-9" cx="502.16" cy="1133.98" r="13.65"/><circle class="cls-9" cx="424.45" cy="1191.05" r="13.65"/><circle class="cls-9" cx="582.46" cy="1177.39" r="13.65"/><circle class="cls-9" cx="690.84" cy="1125.8" r="13.65"/><circle class="cls-9" cx="761.88" cy="1163.74" r="13.65"/><circle class="cls-9" cx="661.53" cy="1204.7" r="13.65"/><circle class="cls-9" cx="519.44" cy="1233.8" r="13.65"/><circle class="cls-9" cx="596.11" cy="1267.79" r="13.65"/><circle class="cls-9" cx="455.93" cy="1261.99" r="13.65"/><circle class="cls-9" cx="362.42" cy="1223.34" r="13.65"/><path class="cls-9" d="M308.28,1196.47a13.65,13.65,0,0,1-20.6,11.76q.82-12.29,1.91-24.44a13.66,13.66,0,0,1,18.69,12.68Z"/><circle class="cls-9" cx="321.46" cy="1295.1" r="13.65"/><circle class="cls-9" cx="405.77" cy="1330.51" r="13.65"/><circle class="cls-9" cx="523.82" cy="1337.64" r="13.65"/><circle class="cls-9" cx="469.58" cy="1389.57" r="13.65"/><circle class="cls-9" cx="729" cy="1236.99" r="13.65"/><circle class="cls-9" cx="657.6" cy="1325.13" r="13.65"/><circle class="cls-9" cx="769.95" cy="1305.6" r="13.65"/><circle class="cls-9" cx="724.51" cy="1384.69" r="13.65"/><circle class="cls-9" cx="589.11" cy="1389.57" r="13.65"/><circle class="cls-9" cx="649.88" cy="1446.69" r="13.65"/><circle class="cls-9" cx="809.65" cy="1384.69" r="13.65"/><circle class="cls-9" cx="748.23" cy="1476.13" r="13.65"/><circle class="cls-9" cx="523.82" cy="1468.14" r="13.65"/><circle class="cls-9" cx="397.15" cy="1416.45" r="13.65"/><circle class="cls-9" cx="321.46" cy="1389.57" r="13.65"/><circle class="cls-9" cx="351.09" cy="1489.78" r="13.65"/><circle class="cls-9" cx="442.28" cy="1530.07" r="13.65"/><circle class="cls-9" cx="589.11" cy="1523.4" r="13.65"/><circle class="cls-9" cx="527.86" cy="1578.38" r="13.65"/><circle class="cls-9" cx="383.49" cy="1564.72" r="13.65"/><path class="cls-9" d="M341.55,1630a13.64,13.64,0,0,1-13.64,13.64,14,14,0,0,1-2.44-.22c-1.32-8.26-2.67-16.77-4-25.46a13.82,13.82,0,0,1,6.47-1.62A13.65,13.65,0,0,1,341.55,1630Z"/><circle class="cls-9" cx="442.28" cy="1643.67" r="13.65"/><circle class="cls-9" cx="383.49" cy="1691.84" r="13.65"/><circle class="cls-9" cx="521.73" cy="1671.4" r="13.65"/><circle class="cls-9" cx="455.93" cy="1739.8" r="13.65"/><circle class="cls-9" cx="575.46" cy="1730.09" r="13.65"/><circle class="cls-9" cx="684.91" cy="1557.37" r="13.65"/><circle class="cls-9" cx="616.41" cy="1630.02" r="13.65"/><circle class="cls-9" cx="761.88" cy="1588.24" r="13.65"/><circle class="cls-9" cx="829.56" cy="1509.75" r="13.65"/><path class="cls-9" d="M874.36,1610.21c-.16,7.11-.41,14-.74,20.78a13.5,13.5,0,0,1-8.45,2.94,13.65,13.65,0,1,1,9.19-23.72Z"/><circle class="cls-9" cx="802.26" cy="1671.4" r="13.65"/><circle class="cls-9" cx="698.56" cy="1671.4" r="13.65"/><circle class="cls-9" cx="748.23" cy="1743.74" r="13.65"/><circle class="cls-9" cx="649.88" cy="1753.45" r="13.65"/><path class="cls-9" d="M363.64,1757.18A13.65,13.65,0,0,1,350,1770.83a13,13,0,0,1-3.5-.46c-.4-2.37-1.91-11-4.18-24.46a13.65,13.65,0,0,1,21.34,11.27Z"/><circle class="cls-9" cx="532.58" cy="1779.87" r="13.65"/></g></g><g id="HEAD"><path id="HEAD-2" data-name="HEAD" class="cls-2" d="M730.34,517.18c8.95,49.22,49.28,84.9,29.84,119.93-24.62,44.36-117.28,45.79-142.5,25-47-38.82-32.82-138.65,17.16-152.51S730.34,517.18,730.34,517.18Z"/><g id="GLESSES"><ellipse class="cls-10" cx="765.31" cy="566.94" rx="6.47" ry="23.23" transform="translate(-87.18 142.22) rotate(-10.05)"/><circle class="cls-11" cx="726.88" cy="573.22" r="6.29"/><path class="cls-12" d="M708.89,610.81s15.21,11.41,42.41,0"/><line class="cls-13" x1="686.02" y1="582.45" x2="768.93" y2="565.1"/></g><path id="HAIR" class="cls-14" d="M676.08,535.08s76.81,14.48,92.77-19.2-42.23-42.7-42.23-42.7,1.65-46.28-56.27-46.49c-55.52-.2-55.41,44.43-61.78,40.3-8.19-5.32-24.93,1.52-28,12.17,0,0-40.33-16-60.1,15.58s4.58,52.1,4.58,52.1-11.49,3-8.78,14.45-40.67,27.38-23.94,57.81,55.54,22.45,55.54,22.45-.21,37.25,41.24,35,54-37.64,44.78-58.17,26.54,3,49.35-27.39S676.08,535.08,676.08,535.08Z"/><path class="cls-12" d="M737.26,579.51s-11.4,10.53-16.67,14"/></g></g></svg>